<svg id="background" xmlns="http://www.w3.org/2000/svg" width="594mm" height="841mm" viewBox="0 0 1683.78 2383.94">
  <defs>
    <style>
      .cls-1 {
        fill: #f5f5f5;
      }

      .cls-2 {
        fill: #fff;
      }
    </style>
  </defs>
  <rect class="cls-1" x="-9" y="-8.33" width="1700" height="2402.82"/>
  <path class="cls-2" d="M1693,22.32,1543.75,13c-102.29-9.86-204.92-17.74-306.81-31.25q-26.26-3.49-52.46-7.46C1083.37-41.07,982.57-59.51,880.06-62c-99.58-2.44-201.37,4.46-297.47,32.09C541.25-18,503.89,4,469.22,29,428,58.75,391.93,92.42,345.86,115.05c-36.23,17.8-76.13,28-115.69,35.18-29.72,5.4-59.68,10.81-88.09,21.35C111.11,183.07,87.53,203,60,220.33c-19.35,12.18-45.45,21.53-68.15,18.89l.05,15.6c21.44.34,46.54-5.43,65-16.29,18.71-11,33.8-26.82,52.3-38.12,28.67-17.5,60.45-24.53,93.19-29.95C242,163.9,281.53,156,319.51,142.78c41.6-14.42,80.74-41.64,115-69C467.81,47.1,502,19.53,540.08-.76c41.29-22,86.55-31.64,132.56-38.05,18.76-2.61,37.6-4.59,56.47-6.25C832.3-54.17,933-52.45,1035.42-36.31c36.28,5.71,72.43,12.23,108.69,18.05Q1188-11.21,1232-4.06C1304.66,7.77,1378.4,11,1451.48,18.13c59.79,5.81,119.69,11.14,179.68,14.45,4,.22,62.51,2.13,62.51,1.75Z"/>
  <path class="cls-2" d="M-8.72,523.56l-.07-.7c63-24.13,124.65-61.95,179.5-101.24C245,368.36,331,332.11,420.3,313.12c46.31-9.85,93.66-14.79,140.52-21.25,46.6-6.44,92.87-15,139.36-21.27,43.05-5.8,86.29-11.11,129.62-14.25,29.59-2.14,59.27-4.52,89-3.14,20,.93,40.12,4.12,58.18,13.21,12.41,6.25,22.27,15.72,33.65,23.46,15,10.21,34.62,22.21,52.5,25.7C1164,335.3,1267.51,335,1369.87,337.35c104.4,2.42,218,2.66,322.44.73l-.12,13.09c-103.81,2.65-217.12,2.74-320.87-1.79-52.44-2.29-104.92-7.69-157.41-7.69-49.78-3.18-102.1-3.32-150.56-16.21-1-.26-1.95-.52-2.93-.8-22.47-6.29-44.34-16.34-62.14-31.65a124.74,124.74,0,0,0-62.07-27.89c-49.47-6.75-100.3,2.48-149.39,8.6-51.93,6.47-103.77,13.64-155.61,20.75q-37.35,5.11-74.73,10.1C462.9,317,368.33,331.86,280.76,368.67q-5.89,2.47-11.73,5.08C173.14,416.55,87,487.19-7.89,532.11Z"/>
  <path class="cls-2" d="M1692.81,654.13c-98.32-.24-205.3-.48-303.63-.71-50.36-.12-102.9-.75-147.72-23.71-30.87-15.82-55.81-41.18-85.53-59.05-38.14-22.93-79.56-29.62-123.36-28.42C929.72,545.07,826.57,554,724.29,565c-40.49,4.34-81,8.29-121.41,13.29-101.15,12.5-201.15,29.34-299.78,55.26C239,650.37,173.89,667.28,111.25,689.11c0,0-86.29,29.77-119.81,48.11v9.49s39.49-21.55,148.27-55.07c97.18-29.95,195.81-56.18,295.6-75.89,41.08-8.11,82.41-15,124-20.23q142.28-17.92,285.49-29.21c23.67-2,47.36-3.55,71-5.41,46.9-3.73,95.21-9.71,142.33-7.18,27.47,1.48,55,6.7,80,18.53,41.29,19.56,73,55.57,114.22,75.29,45,21.54,96.87,21.71,146.76,21.46,94.83-.46,198.31-.93,293.14-1.4Q1692.51,660.87,1692.81,654.13Z"/>
  <path class="cls-2" d="M1692.15,929.41l-.05-1.16c-59.49-7.07-114.44-34.1-168.67-59.54-39-18.32-80.41-34.05-122.89-43.56-44.29-9.92-88.39-10-133.49-10.63l-3,0-7.28-.13c-70.85-1.55-141.77-1.85-212.56,1.81-51,2.64-101.59,9.61-152.27,15.42s-101.19,8.54-152,11.29c-19.87,1.08-39.72,2.39-59.53,4.35C579.53,857.2,481.28,881.6,384,909.3Q234.39,951.92,86.13,999.14c-30.14,9.6-64.64,19.34-94.69,29.23l-.22,12.72c0-1.34,6.78-2.8,7.68-3.07,5.29-1.59,10.64-3,16-4.37,18.09-4.68,35.83-10.58,53.61-16.3q37.22-12,74.52-23.7,74.61-23.42,149.54-45.78c21.64-6.46,43.48-12.15,65.09-18.16,64.74-18,129.1-39.5,195-53A1222.93,1222.93,0,0,1,676.3,858.1c67-6.68,134.32-9.08,201.34-16,103.92-10.65,208.16-19.53,312.68-20.59q23.49-.24,47,.07c88.74,1.2,175.13,10.8,257,46.48,64.06,27.89,127.21,64.21,198.17,70.3Z"/>
  <path class="cls-2" d="M1691.52,1097l0-.43c-105.17-3.91-218.06-5-323.29-3.33-47.37.76-94.8,2.42-142.12-.5-49.28-3-97.28-15.38-146-22.49-50.4-7.35-101.52-6.21-152.3-5.7-51.06.51-102.12-.91-153.19-1.14q-15-.06-30,0c-49.45.16-101.3-1.79-150.2,6.51-34.63,5.88-67.85,18.44-99,34.4-87.13,44.6-167.39,101.22-253.94,146.82-31,16.33-62,34.06-94.78,46.54-33.39,12.7-67.42,23.55-101.7,33.6-8.83,2.59-17.7,5.08-26.62,7.4-2.36.61-26.9,5.76-26.9,6.44l0,6.32c0-.32,23.13-3.74,25.28-4.15q12.86-2.4,25.58-5.42,25.44-6,50.26-14.37c12-4.06,23.94-8.6,35.79-13.1,92.32-35,177.22-85.51,261.24-136.73,33.06-20.15,66.29-40.1,100.62-58,33.6-17.57,68.93-32.66,106.51-39.05,47.36-8,96.26-4,144-6.79,24.42-1.4,49.09-.38,73.55.09,50.66,1,101.33,2.77,152,1.64,43.16-1,86.45-.49,129.1,6.84,41.73,7.18,82.87,18.4,125.22,21.52,51.77,3.8,103.68.34,155.49-.58,3.11-.06,6.22-.1,9.33-.14,99.32-1.14,206.27-.17,305.54,2.9Z"/>
  <path class="cls-2" d="M1692.51,1362.74c0-.11,0-.21,0-.32-18.6-4.63-38.64-3.75-57.69-4.62q-32.4-1.48-64.8-2.8c-42.72-1.67-85.47-2.86-128.22-2.86-37.42,0-74.67-4.16-112-6-63.15-3-125.7,10.36-188.66,6.61-42.56-2.53-84.13-14.16-126.93-7.57-32.18,5-64.43,9.52-96.82,12.83-31.78,3.25-64.11,1.24-95.68,5.69-34.56,4.87-67.94,8.67-102.86,6.85-36.68-1.93-73.06-7.66-109-15-74-15.1-146.78-36.89-221.74-46-34.73-4.25-70.75-5.64-103.95,5.4-38.23,12.73-69.16,40.65-98.89,67.85-58.82,53.81-122.2,107.28-181,161.09-7.13,6.53-14.94,15-12.88,24.44,76.84-57.47,143.59-131.7,215.15-195.64,25.3-22.6,52.8-44.42,85.48-53.52,29-8.07,59.9-5.45,89.71-1.12,98,14.25,192.43,46.14,290.46,60.13,32.73,4.67,64.39,6.92,97.27,2.55,37.91-5,76-8.25,114.16-11.36,19.08-1.56,38.16-3.09,57.23-4.79,16.9-1.51,33.75-5.77,50.65-8.25,30.34-4.44,61.37-5.48,91.84-1.89,25,2.93,48.23,8.44,73.74,7.88,41-.89,82.06-5.48,123-5.71,40.21-.22,80.5,2.1,120.66,4.61,39.1,2.73,78.35-.54,117.5.65,57.24,1.75,116.28,5.82,173.42,13.32Z"/>
  <path class="cls-2" d="M1691.51,1656.76v-.91c-30.27-5-69.17-9.06-99.69-12.18-52.79-5.39-105.83-7.94-158.83-10.5-103.42-5-207.09-8-310.21-17.8-59.69-5.68-118.37-16.16-178.57-16.17-32.64,0-64.71,7.14-97.23,9-33.76,1.92-70-6.41-101.76-16.56-34.14-10.9-71.17-9-105.93-2.26-41.51,8.07-81.44,22.9-122.85,31.46a418.18,418.18,0,0,1-174.49-1.22c-89.84-19.9-175.77-71.09-270.13-68.83-23.15.56-50.65,4.09-73.48,8-4.72.8-10.74,5.94-6.89,8.78,2.1,1.54,19-3.68,22.26-4.12,8.47-1.15,21.56-1.52,30.1-1.82a319.54,319.54,0,0,1,49.86,2.29c97,11.7,185.51,58.72,281.84,73.94a382.11,382.11,0,0,0,53.61,4.81,297.45,297.45,0,0,0,59.65-4.82c36.61-6.86,71.3-21.29,107-32,27.59-8.26,56.47-14.35,85.42-12.63,29.17,1.73,58.73,9.88,86.94,17.06,23.31,5.94,44.21,9.83,68.28,9.33,34.67-.71,68.87-7.24,103.4-9.85,34.17-2.58,69.1,2.63,102.82,8.06,50.11,8.07,100.15,14.27,150.83,17.63,44.33,2.94,88.74,4.38,133.14,5.48,101.1,2.5,202.68,3.42,302.85,18.78,18,2.76,44.37,6,62.16,9.74Z"/>
  <path class="cls-2" d="M1690.63,1938.71a15.89,15.89,0,0,0-3-3c-5.32-4-20.65-6.35-27.27-7.27-42.15-5.84-84.57-9.84-127.09-11.68-73-3.15-146.07,0-219.06-2.47-103.25-3.54-205.75-18.45-309-21.89-49.4-1.64-98.83-1.26-148.25-1.26-47.3,0-94.63.1-141.9-2-45.59-2.08-90.89-7.45-136.42-10.3-52.11-3.26-104.33-4.44-156.54-4.77-35.52-.23-71-.06-106.56.1-61.56.28-123.2.57-184.55,5.7-45.39,3.8-100.54,10.24-145.71,4.4.61,6.23,6.12,11.1,12.1,13s21.85,1.31,28.09.76q156.23-13.67,313.24-14.14c49.89-.15,100.4-.49,150.12,1.94,17.37.84,34.88-.09,52.31.84,46.19,2.45,91.51,11.08,137.55,14.48,43.5,3.22,87.3,2.61,130.88,3.33,50.1.82,100.26-1.94,150.51-.69,103.77,2.58,207,14.15,310.57,20.25,26.93,1.59,53.87,2.81,80.84,3.4,111.4,2.46,233.45-4.26,340.71,26C1695.11,1948.91,1693.89,1943,1690.63,1938.71Z"/>
  <path class="cls-2" d="M1686.84,2194.52c-.14.13.05-.38.07-.57-109.16,47.22-233.1,63.77-352,61.92-103.87-1.62-207-16-309.46-32-101.32-15.78-202.51-28.67-305-19.29-70,6.41-139.8,20.74-210.13,20.74-102,0-204-1.85-306-3-69.47-.78-143.68.68-212.87-6.49v13.28c0,2.36,75.52,5.55,79.79,5.72,50.06,2,100.32.25,150.41-.09,75.54,0,151.1,2.34,226.65,2.66,22,.09,44,0,66-.46,39.78-.81,80.55-3.28,120.4-8.48s79.28-13.81,119.5-15.84c101.94-5.15,205,15.8,305.53,30,54.16,7.63,108.38,15,162.85,20.09q4.62.43,9.24.84c149,13.14,322,2.63,457.43-60.77C1694.45,2200.33,1693,2188.23,1686.84,2194.52Z"/>
  <path class="cls-2" d="M1532.31-8.82H1532c-2.25,46.89-10.88,98.07-17.74,144.52-7.51,50.85-13.73,101.91-18.36,153.11-4.58,50.73-5.75,101.66-10.14,152.37-3.38,39.14-8.85,78.06-13.11,117.1-4.78,43.88-8.86,88.86-8.43,133,.31,31.46,2.63,64.21,12.06,94.75,9.88,32,32.45,57,51,84.14a427.3,427.3,0,0,1,57.93,122.72c12.7,44.37,14.82,91.16,16.49,137a2095.6,2095.6,0,0,1-11.23,307.51c-11.22,101.5-17.2,203.67-31.69,304.79-6.64,46.34-17.68,92.86-35.56,136.11-37.1,89.75-14.09,187.59-8.9,280.78,1.12,20.12,1.23,233.37,4.39,233.34l11-.12c-3.83,0-1.51-140.09-1.43-153.15.32-51.25-3.85-101.46-9.65-152.33-2.46-21.6-4.77-43.22-6-64.93-2.7-47.34,6.12-94.88,21.31-139.58,11.31-33.3,23.81-66.29,31.9-100.58,11.09-47,12.47-96.16,16.65-144.12,5.85-67.21,11.73-134.47,18.88-201.56,5.37-50.36,12.1-100.5,15.12-151.09,3.06-51.34.64-102-2.9-153.22-.61-8.86-1.21-17.73-1.74-26.59-2.44-40.9-6.73-80.65-20.14-119.69a281.71,281.71,0,0,0-14.39-34.54c-14.56-29.13-30.9-58.72-49.18-86.15-17.6-26.4-36.7-52.52-46.56-83-11-34.13-12-74.46-8-109.72,4.83-41.9,5.13-84.33,10-126.09,5-43,12.84-86,14.53-129.34,1-26.56,1.72-53.32,4.53-79.77,6.36-77.67,18.5-154,29.85-231.08,5.34-36.33,11.09-77.48,16.07-113.86Z"/>
  <path class="cls-2" d="M1137.08,2392.93s-7.59-112.57-3.79-187.84A1109.32,1109.32,0,0,1,1148.35,2080c11-60.7,23.33-121.23,32.24-182.29,8.49-58.15,7.11-118.22,19.11-175.79,2.64-12.7,4.09-25.78,5.65-38.64,2.32-19.07,4.78-38.14,5.78-57.33,1.74-33.23-2.7-66.38-1-99.67a586.66,586.66,0,0,1,12.36-94.17c6.77-31,18.79-59.85,28.53-89.9s9.84-61.46,10.42-92.69c1.25-66.36.1-132.64,3.21-199,1.49-31.72,1.22-63.69-3.29-95.18-3.87-27-12.81-51.78-21-77.61C1222,820,1220,759.7,1209.8,700.38A463.32,463.32,0,0,0,1199,652c-6.27-22-14.58-44.35-28.88-62.8s-32.44-33.55-45.37-53c-16.66-25.11-23.43-55.13-23.56-85-.27-68.1,9.73-136.47,19-203.81,8.72-63.2,17.52-127.06,25.93-190.57,2.68-20.28,6.24-44.83,8.92-65.1h17.08l-28.7,187.05q-7.67,54.22-14.79,108.54c-3.51,26.73-6.86,53.48-10.32,80.22-3.4,26.24-8,52.34-9,78.83-1.31,31.9,4.32,61.24,21.66,88.48q2.43,3.81,5.09,7.49c14.72,20.27,33.29,37.37,48.59,57.17,12.84,16.61,19.72,37.62,26,57.42,16.92,53.62,15.18,111.41,26.06,166.3,5.81,29.32,19,55.49,27.94,83.8,9.31,29.55,12.06,61.39,11.64,92.24-.91,66.38-3.91,132.71-4.66,199.09q-.19,16.82-.47,33.64c-.46,26.65,2.4,53.59-3.26,79.91-5.75,26.75-18.28,51.55-25.11,78-14,54.29-21.92,111-21,167.41.43,25.3,2.18,50.6.14,75.87-5.5,68-20.85,135-26.23,203.08q-.5,6.21-.89,12.41a860.66,860.66,0,0,1-12.56,99.88c-7.06,38.48-15.68,76.66-22.61,115.16-5.4,30-10.28,60.09-13.88,90.35q-1.29,10.77-2.29,21.56c-3.21,34.64-3.66,69.6-3,104.35,0,0,3.79,88.13,6.32,113Z"/>
  <path class="cls-2" d="M802.23-7.6c-3.53,5.38,11.38,288.53,13.24,314.06,7.27,100,15.64,200.77,44.21,297.38,12.89,43.6,31.24,86.38,43.34,130.59,13.36,48.83,10.35,99.67,10.31,149.72a967.81,967.81,0,0,0,7.72,122.22q3.84,30.39,9.55,60.51c3.89,20.51,7.31,39.33,7.9,60.24.83,29.85,1.31,59.78,2.38,89.52.64,17.53,4.71,34.64,9.15,51.52,7.22,27.43,12.88,53.95,5.15,82-6,21.76-16.93,40.87-26.56,61.11-20,42-33.34,86.59-45.31,131.36a1747.93,1747.93,0,0,0-52.19,296c-9.17,102.86-18.11,205.85-30.9,308.35-5.23,41.89-10.75,83.75-16.31,125.61-1.47,11.05-17.83,117.74-17.83,119.82l16.21.33c2-102.33,22.62-202.8,34.85-304.11,9.33-77.27,14.53-154.92,21-232.47q1-12.56,2.13-25.1c8.61-98.66,25-197.53,52.53-292.73a984.1,984.1,0,0,1,39.69-112.52c8.66-20.31,21.07-39.26,28.59-60,10.76-29.54,10.59-63.41.23-93-12.54-35.82-9.83-75.95-10.81-113.38-.66-25.35-1.16-53.73-8.17-78.26C930.91,1029.4,930,974.84,924.81,922.11c-3.15-32.05-.43-64.35-.3-96.47.15-36-5.72-71.95-14.78-106.73-15-57.53-43.82-109.9-57.12-168.14-9.68-42.37-13.56-85.86-16.84-129.11-3.86-51-8.16-101.88-11.3-152.9-.1-1.57-.19-3.14-.29-4.7-5.41-89-8.83-183.25-10.29-272.39l-11.56.65A.14.14,0,0,0,802.23-7.6Z"/>
  <path class="cls-2" d="M464.81-8.07l.63,0c.38,20.24-6.61,43.75-11.72,63.34-13.62,52.2-12.79,107.11-7.59,160.8,9.51,98.31,20,199.25,44.33,295.59q13.44,53.19,30.83,105.29c12.25,36.47,23.75,73.31,31,111.15,8.56,44.58,11.61,90,14.38,135.19,1.3,21.22,1.55,42.87,4.79,63.88,2.26,14.68,4.45,29.89,9.38,44,9.2,26.23,32.2,48.39,55.32,62.91,65.34,41,87.23,123,82.59,195.92-2.76,43.49-13,86.17-23.36,128.37-20.13,82.42-46.77,159.35-103.25,224.43-24.21,27.89-52.08,53.32-70.12,86-21.93,39.68-27.51,85.71-32.27,130.07-11,102.38-21.18,205-25.57,307.86-3.08,72.34-3.55,145.52-16.92,216.89q-3.39,18.13-8,36c-.87,3.31-8,34-10.32,33.95l-21.12-.06c39.3-87,34.53-186.55,40.07-279.78q7.51-126.27,22.44-252c7.59-63.69,10.48-131.32,40.3-189.51,18-35.05,46.86-63,71.44-93.3,57.14-70.45,90-152.25,111.16-239.56,19-78.4,26.2-169.46-14.74-242.44-8.39-14.94-19-29-32-40.35-14.94-13.06-32.79-22.4-47.14-36.19C584,1005.51,573.07,986.15,567,965.7c-12.08-41-13.2-84.06-14.72-126.42a794.83,794.83,0,0,0-15.06-127.43c-9.58-48-28.16-92.09-42.82-138.45-15-47.39-25-96.2-32.65-145.26-5.13-32.9-9.19-65.95-13-99-9.87-86.21-23.64-173.91-4.91-260,5.24-24.09,12.78-52,12.88-76.63Z"/>
  <path class="cls-2" d="M157.44-7.67c-8.7,19.48-11.32,44.77-14.95,65.48-4.85,27.64-17.31,53.09-24.25,80.16-9.91,38.63-5,81.46,1.65,120.27,3.69,21.5,9.57,42.53,16.15,63.31,7.07,22.33,15.19,44.85,16.77,68.41,1.43,21.17-1.91,47.42-20.93,60-9.86,6.51-25,13.58-29.49,25.41-9,23.91-5.29,48.94-.34,73.22,6.92,33.92,15.22,67.53,23.26,101.2,16,66.86,31.33,133.87,47.23,200.75q12,50.29,22.49,100.91c9.94,47.86,14.85,100.51,47.59,139.71,11.48,13.75,25.95,24.49,37.48,38.21,16.5,19.62,26.26,43.66,37.41,66.47,5.62,11.51,11.63,22.9,19.08,33.35,6.86,9.62,15.13,22.13,28.06,22.09,10.52,0,15.6,1.84,19.51,12,9.74,25.26-3,50.79-18.27,70.73-17,22.15-37.94,41-54.35,63.62-37.68,52-65.73,110.53-89.43,170-6.85,20.55-15.6,40.39-23.35,60.6-24.28,63.38-44.38,127.94-66.29,192.11-3.85,11.3-7,22.67-10.46,34.1-19.48,63.87-29.45,130.22-39.76,196-10.61,67.74-19.92,135.68-28.33,203.72-5.68,46-11,92-16.33,138H21.26c.34-3,11.76-93.12,12.94-101.94q6.94-51.73,14.52-103.41c10.11-68.2,21.37-136.23,33.33-204.13l.36-2.06c11.32-64.17,25-128.17,45.34-190.14,15.41-46.92,33.27-93,50.82-139.12,16.77-44.07,34.4-87.85,54.67-130.45,21.76-45.74,46.62-90.17,76.53-131.13a715.14,715.14,0,0,1,49.73-60.56c15-16.41,29.08-37.89,19.86-60.77-1.35-3.33-3.37-6.67-6.66-8.11-10.06-4.39-19.39,6.2-29.28-2.68-5-4.45-7.75-10.73-11.33-16.24-4.43-6.83-9.08-13.53-13.19-20.57-15.75-26.93-28.14-55.83-46.8-81-11.14-15-27-24.8-39.94-37.91-36-36.31-38.2-89-46.25-136.54-5.69-33.66-13.46-66.92-21.6-100.06-6.75-27.5-13.77-54.94-20.1-82.54q-3.65-15.87-7.27-31.73c-7.41-32.4-13.26-65.17-22.37-97.17-14.07-49.4-35-99.9-28.8-152.3,1-8.91,3.4-17.75,8-25.49,7.83-13,22.93-20.06,34.5-29.19,6.7-5.29,10.22-12.44,12.08-20.79,7.16-32.19-5-64.28-15.24-94.34a387.12,387.12,0,0,1-19.29-94.45q-1.2-15.45-1.16-31c.07-31.46,1.58-63.5,13-93.2q2.4-6.24,5.37-12.25c5.65-11.43,11.23-21,12.2-34.12,0,0,3-46.4,16.89-74.86Z"/>
  <path class="cls-2" d="M-8,1409.16l.06-.29c-.13.64,20.43,11,22.42,12.19q11.82,7,23.11,14.87c26.67,18.53,51.8,42.64,73.86,66.91,16.92,18.6,33.81,69.27,25.09,63.82-6-43.23-44-74.34-77.82-97a632.36,632.36,0,0,0-64.43-37.82,6.32,6.32,0,0,1-2.77-2.15,6,6,0,0,1-.64-2.65A65.52,65.52,0,0,1-8,1409.16Z"/>
</svg>
