<svg xmlns="http://www.w3.org/2000/svg" viewBox="0 0 97.87 36.92">
  <defs>
    <style>
      .cls-1 {
        fill: lime;
      }
    </style>
  </defs>
  <title>green_light</title>
  <g id="圖層_2" data-name="圖層 2">
    <g id="圖層_1-2" data-name="圖層 1">
      <path class="cls-1" d="M1.4,24.84l.72.17c4,.78,7.9,1.61,11.85,2.43l15,3.1L44,33.65l10.66,2.21,2.45.51S65.34,38.81,71,33.48l8.21-7.33L83,22.82a28.64,28.64,0,0,0,3.6-3.27c1.3-1.61-1.18-2.1-2.32-2.18l-2-.23,2.11-1.89,2.78.34a6.65,6.65,0,0,0,5.66-1.78l4.34-4s2.55-2.67-1.78-3.22L91,6.13,80.16,5,65.79,3.48,51,1.92,38.83.64,35.39.28c-1.55-.17-2.91-.59-4.34.11L28,1.88,23.12,4.25,19.91,6.84l-7.2,5.8L5.17,18.72c-1.24,1-2.58,1.85-3.78,2.9C.89,22.06,0,22.83,0,23.55s.71,1.09,1.4,1.29"/>
    </g>
  </g>
</svg>
