<svg xmlns="http://www.w3.org/2000/svg" width="91.89mm" height="110.81mm" viewBox="0 0 260.47 314.12">
  <title>map_1</title>
  <g id="圖層_2" data-name="圖層 2">
    <g id="圖層_1-2" data-name="圖層 1">
      <path d="M44.57,149.27a.76.76,0,0,1,.16.38l.3,2.71a.75.75,0,0,0,.28.51L51.73,158a.83.83,0,0,0,.4.16l32.27,3.55a.74.74,0,0,1,.66.59l3,13.57a.76.76,0,0,1-.31.78L71,188.42a.75.75,0,0,1-.68.1l-6.71-2.19a.78.78,0,0,0-.63.08l-5.71,3.43a.65.65,0,0,0-.18.15l-4.3,4.95a.77.77,0,0,0-.19.43l-.44,4.82a.8.8,0,0,0,.05.34l1.23,3.15a.8.8,0,0,1,0,.57l-4.13,9.61,0,.06L36.33,237.79a.77.77,0,0,1-1.27.12L1.9,196.51A.76.76,0,0,0,.54,197L.13,227.58a.75.75,0,0,0,.23.56L27.83,254.5,50.73,275l25,20.27a.78.78,0,0,0,1.2-.3l3.65-8.72a.77.77,0,0,1,.54-.45l14.51-3.3a.78.78,0,0,0,.35-.18l13-11.76.06-.06,7-7.91,0-.07,5.39-7.79a.77.77,0,0,1,1-.24l6.47,3.49a.74.74,0,0,1,.34.94l-1.75,4.36a.79.79,0,0,0,0,.48l1.83,6.89a.68.68,0,0,0,.13.27l6.27,8a.39.39,0,0,0,.08.1l8.22,7.57a.73.73,0,0,1,.22.39l1.8,7.93L176.08,314l3.38-3.26a.71.71,0,0,1,.31-.19l2.09-.62a.8.8,0,0,1,.53,0l2.42,1,.07,0,4.6,2.57a.77.77,0,0,0,1-.26l11.12-18a.76.76,0,0,0,.12-.46l-.59-7.52a.76.76,0,0,1,0-.26l1.37-5.06a.94.94,0,0,1,.1-.23l1.17-6.22c.09-.14,3.09-.25,3.07-.41l-1-16.41v0l.14-16a.22.22,0,0,1,0-.08l1.53-13.89a.85.85,0,0,1,0-.17l2.91-8a.87.87,0,0,1,.16-.26l5.16-5.58a.93.93,0,0,1,.15-.13l10.18-6.38L225.72,198l-.06-.09-2.53-5.22a.81.81,0,0,1-.07-.22l-.28-1.95a.59.59,0,0,1,0-.23,22.64,22.64,0,0,1,.53-2.31L242,160.05l3.28-5.93a.77.77,0,0,1,.07-.34l.55-1.24a.89.89,0,0,1,.22-.29l1.59-2.62c.06,0,1.58.08,1.62,0l6.49-9.77a.69.69,0,0,0,.11-.28l4.38-23.5a.65.65,0,0,0,0-.24L249.63,37.53a.79.79,0,0,0-.31-.52L201.76,2.76a.66.66,0,0,0-.24-.11l-7.06-2-.2,0L160.93.13a.75.75,0,0,0-.77.71l-2.69,51.07a.68.68,0,0,1-.12.37l-14,21.79,0,.08L132.57,96.33a.7.7,0,0,1-.34.34l-8.78,4.61-10.34,5.92-7.73,4.33-8.32,4.7a.47.47,0,0,1-.15.06l-5,1.55-.13,0-11.72,6.94a.64.64,0,0,1-.22.14l-7.26,2.77-.15,0L61.8,129.47a1,1,0,0,0-.29.11l-4.31,2.7a.78.78,0,0,0-.32.42l-.9,2.86Z" style="fill: #fff;stroke: #221e1f;stroke-miterlimit: 10;stroke-width: 0.25px"/>
      <path d="M89.87,214.27,94.1,209l1.39-4.18,0-1.38-4.36-3.34-1.08-.86s-.2-1.91,0-1.9,8.56-6.92,8.56-6.92l.86-1.28,0-1.34L98.72,186l-1.17-.85-1.86-.56-7.84-2-13.95,10-.92.52h-.84l-1.41-.55-3-1.11-.68-.16-3.81,2.47-3.37,3.89-.21,3.7,1,2.42-.39.91,16.47,9.65Z" style="fill: #f1f2f2;opacity: 0.35000000000000003"/>
      <path d="M239,32.6a1.54,1.54,0,0,0-.13-2.29,1.57,1.57,0,0,0-2.06.09l-12.5,12a1.55,1.55,0,0,1-1.94.17l-32.2-21.33-.31-.16-2.56-1-1.12-.49a1.59,1.59,0,0,0-.61-.13l-6.78-.09a1.51,1.51,0,0,0-.59.11l-4,1.58-.22.1-4.25,2.5a1.24,1.24,0,0,0-.26.19L166,27l-.13.14-1.34,1.53a1.52,1.52,0,0,0-.24.38l-1.1,2.45a1.14,1.14,0,0,0-.09.26l-1.47,5.86-1.51,6.15-1.71,8.6a2,2,0,0,1,0,.4,1.92,1.92,0,0,1-.25.6l-7.31,14-7,11.33-4.34,9-1,2.33c-.43,2.47-.87,4.93-1.3,7.4a1,1,0,0,0,0,.17l2.43,19.58a1.48,1.48,0,0,1,0,.47l-2.68,14.5a1.79,1.79,0,0,0,0,.23l-.14,3.64a1.47,1.47,0,0,0,.12.65l.85,2.06a1.3,1.3,0,0,0,.27.43l3.8,4.33a1.57,1.57,0,0,1,.38.85l1.64,15.06a1.54,1.54,0,0,1,0,.43l-1.92,11,0,.21-.46,12.59a1.75,1.75,0,0,1-.12.54l-2.49,5.89a1.5,1.5,0,0,1-.37.53l-8.51,7.87-.17.14-13.43,9.27-.22.13-7.92,3.69-.16.07-22.19,7.46L78,222.18a1.6,1.6,0,0,0-.54.34l-3.9,3.81c-.06,0-.1.11-.15.16l-30,38.78a1.56,1.56,0,0,0,.23,2.13l.64.53a1.57,1.57,0,0,0,2.24-.23L78,227.16a1.59,1.59,0,0,1,1.9-.46l10.28,4.8.11.06L103,238.78l8.45,5,10.21,6.29.11.08,9.09,6.67v.55l4.26,2.45a1.54,1.54,0,0,0,.58.2l3.75.48a1.53,1.53,0,0,1,1.35,1.35l.21,1.83a.66.66,0,0,1,0,.14l.24,11.32a1.58,1.58,0,0,0,.13.57l.86,2,1.09,2.31,1.12,2.68a2,2,0,0,0,.14.25l1.28,1.95.07.1,1.93,2.48a1.29,1.29,0,0,0,.16.17l2.31,2.19.12.11,3.2,2.45.1.08,3.53,2.28.09.05,5.21,2.9.16.08,5.57,2.34,5.75,2.57,2,.85a1.91,1.91,0,0,0,.41.11l4.14.53,5.69.86.16,0,2.22.58a1.34,1.34,0,0,1,.26.09l1.53.7a1.57,1.57,0,0,0,2-.6l.19-.32a1.54,1.54,0,0,0-.76-2.24l-1.46-.57-2.66-1-.25-.07-2-.38a1.27,1.27,0,0,0-.28,0l-2.47,0-.24,0-1.71-.29-.2,0-1.45-.44a2,2,0,0,0-.34-.06l-1.25-.09a1.85,1.85,0,0,1-.57-.15l-2-1-.08,0L162.49,294a1.06,1.06,0,0,1-.21-.11l-3.38-2-.08-.06-2.84-2-.07-.05-2.63-2.07a.73.73,0,0,1-.09-.08l-1.11-1-.1-.11-1.75-2-1.79-2.2a1.34,1.34,0,0,1-.18-.28l-1.38-2.7a.75.75,0,0,0-.07-.12l-.72-1.15a1.34,1.34,0,0,1-.19-.44l-.71-2.77-.54-2.54a1.23,1.23,0,0,1,0-.33l0-2.84v-.18l-.35-3.26a.38.38,0,0,0,0-.1l-.14-3.65v-.09l-.17-1.62v-.89a1.6,1.6,0,0,0-.39-1l0,0a1.53,1.53,0,0,0-1-.52l-1.45-.19H141l-3.84,0a1.6,1.6,0,0,1-.94-.33l-13.67-10.63a.91.91,0,0,0-.16-.11L107,237.34,98,232l-7.68-4.4-3.92-2a1.55,1.55,0,0,1,.21-2.83l24.84-9.51a.84.84,0,0,1,.29-.25.76.76,0,0,1,.42-.08l2.75-1.79c.34-.16.69-.32,1-.5l.88-.46,14.7-9,.12-.1,8.32-7.39.08-.07,1.25-1.28a1.83,1.83,0,0,0,.26-.36l.8-1.53a.61.61,0,0,0,0-.12l1-2.36.05-.12.86-2.72a1.49,1.49,0,0,0,.08-.42l.38-13.53a1.15,1.15,0,0,1,0-.26l.73-3.66.94-4.39a2.43,2.43,0,0,0,0-.38l-.63-18.07a1.59,1.59,0,0,1,.45-1.15l9.44-9.45a1.42,1.42,0,0,1,.39-.29l11.58-7.19c.16-.12.33-.23.5-.34s.38-.23.57-.33l11-5.58a1.72,1.72,0,0,1,.7-.24L190,119a1.61,1.61,0,0,0,.95-.44l21.62-21c.05-.06.11-.12.16-.19l13.14-17.74a1.48,1.48,0,0,0,.19-.35l1.19-3,4.38-12.19a2.68,2.68,0,0,0,.07-.27l.61-3.74a2,2,0,0,0,0-.42l-.42-3.71a1.55,1.55,0,0,0,0-.21l-1.06-4.12a1.61,1.61,0,0,0-.22-.48l-1.79-2.63a1.34,1.34,0,0,0-.11-.14l-1.52-1.78a1.55,1.55,0,0,1,.08-2.09ZM227,57.2v3.67l-1.2,4.25-2.19,4.76-1,5L220.33,79l-14,18.39q-8.3,9.19-16.6,18.38l-11.37.34-23.3,14L144.92,140l-3.36-3.09-.68-2.47,2.92-16.84-3.3-21.12c.19-2.42.38-4.85.58-7.27l2.44-5.31,1.68-3.31L156,61.35,160.72,54l.4-2.38,1.61-6.83,1.6-6.43,1.1-4.76,1.3-2.77L169.81,27,174,24.44l4.26-1.57h4.26l3.07.9,4.94,2.59,22,14.63,8.79,6.18,2.76,3,2,3.87Z" style="fill: #f1f2f2"/>
      <g style="opacity: 0.31">
        <rect x="191.68" y="266.08" width="4.61" height="10" transform="translate(-79.68 461.41) rotate(-89.23)" style="fill: #d1d3d4;stroke: #221e1f;stroke-miterlimit: 10;stroke-width: 0.25px;opacity: 0.5"/>
        <polygon points="188.23 267.6 186.42 260.08 193.49 258.69 194.8 266.89 188.23 267.6" style="fill: #d1d3d4;stroke: #221e1f;stroke-miterlimit: 10;stroke-width: 0.25px;opacity: 0.5"/>
        <rect x="192.01" y="240.04" width="16.83" height="5.76" transform="translate(-45.18 440.04) rotate(-89.22)" style="fill: #d1d3d4;stroke: #221e1f;stroke-miterlimit: 10;stroke-width: 0.25px;opacity: 0.5"/>
        <rect x="176.96" y="233.59" width="18.53" height="20" transform="translate(-59.86 426.49) rotate(-89.22)" style="fill: #d1d3d4;stroke: #221e1f;stroke-miterlimit: 10;stroke-width: 0.25px;opacity: 0.5"/>
        <rect x="173.74" y="262.94" width="10.92" height="8.18" transform="translate(-90.23 442.6) rotate(-89.23)" style="fill: #d1d3d4;stroke: #221e1f;stroke-miterlimit: 10;stroke-width: 0.25px;opacity: 0.5"/>
        <polygon points="175.72 280.76 175.79 275.65 173.78 275.62 173.79 274.72 171.77 274.69 171.76 275.6 169.63 275.67 169.56 280.67 175.72 280.76" style="fill: #d1d3d4;stroke: #221e1f;stroke-miterlimit: 10;stroke-width: 0.25px;opacity: 0.5"/>
        <polygon points="170.52 268.44 170.59 263.83 167.96 263.79 167.99 261.39 162.04 261.31 162.06 259.71 159.63 259.68 159.61 261.28 154.56 261.21 154.53 263.31 151.91 263.38 151.84 268.19 170.52 268.44" style="fill: #d1d3d4;stroke: #221e1f;stroke-miterlimit: 10;stroke-width: 0.25px;opacity: 0.5"/>
        <rect x="150.09" y="242.21" width="11.72" height="12.93" transform="translate(-94.8 401.25) rotate(-89.23)" style="fill: #d1d3d4;stroke: #221e1f;stroke-miterlimit: 10;stroke-width: 0.25px;opacity: 0.5"/>
        <rect x="152.7" y="246.35" width="4.31" height="4.44" transform="translate(-95.82 400.01) rotate(-89.22)" style="fill: #d1d3d4;stroke: #221e1f;stroke-miterlimit: 10;stroke-width: 0.25px;opacity: 0.5"/>
        <polygon points="205.58 224.36 205.88 201.62 205.5 200.42 204.81 199.1 203.92 197.79 203.02 196.68 202.12 195.96 201.07 195.25 200.02 194.83 199.22 194.42 195.02 194.37 194.06 194.85 192.84 195.54 191.51 196.42 190.49 197.31 189.47 198.2 188.95 199.29 188.61 224.13 189.1 225.44 189.59 226.45 190.28 227.66 191.08 228.57 192.37 229.69 193.88 230.31 195.29 230.73 198.62 230.78 200.04 230.19 201.26 229.61 202.38 229.12 203.51 227.84 204.34 226.54 204.96 225.45 205.58 224.36" style="fill: #d1d3d4;stroke: #221e1f;stroke-miterlimit: 10;stroke-width: 0.25px;opacity: 0.5"/>
        <rect x="158.87" y="226.99" width="12.92" height="8.99" transform="translate(-68.37 393.66) rotate(-89.22)" style="fill: #d1d3d4;stroke: #221e1f;stroke-miterlimit: 10;stroke-width: 0.25px;opacity: 0.5"/>
        <polygon points="157.71 238.54 157.77 233.94 155.65 233.91 155.71 229.4 157.83 229.43 157.9 224.92 146.28 224.77 146.22 229.38 151.27 229.44 151.31 233.85 146.16 233.78 146.1 238.39 157.71 238.54" style="fill: #d1d3d4;stroke: #221e1f;stroke-miterlimit: 10;stroke-width: 0.25px;opacity: 0.5"/>
        <rect x="160.98" y="211.67" width="9.11" height="8.99" transform="translate(-52.84 378.77) rotate(-89.23)" style="fill: #d1d3d4;stroke: #221e1f;stroke-miterlimit: 10;stroke-width: 0.25px;opacity: 0.5"/>
        <polygon points="157.48 218.51 157.6 209.4 154.88 209.36 154.88 208.76 151.35 208.71 151.25 209.85 150.22 209.7 150.24 208.69 147.31 208.66 147.29 209.56 145.68 209.44 145.65 211.89 141.71 211.84 141.66 215.84 145.29 215.89 145.36 218.35 157.48 218.51" style="fill: #d1d3d4;stroke: #221e1f;stroke-miterlimit: 10;stroke-width: 0.25px;opacity: 0.5"/>
        <polygon points="135.48 219.99 135.59 211.24 115.08 211.5 114.97 220.3 120.24 220.38 120.42 215.8 126.9 215.88 126.84 219.75 135.48 219.99" style="fill: #d1d3d4;stroke: #221e1f;stroke-miterlimit: 10;stroke-width: 0.25px;opacity: 0.5"/>
        <polygon points="128.52 229.05 128.62 221.32 123.23 221.25 123.21 222.79 120.81 222.76 120.69 231.32 118.66 231.29 118.73 225.83 112.25 225.62 112.11 236.2 118.95 236.29 119.08 235.34 125.01 235.54 125.1 228.82 128.52 229.05" style="fill: #d1d3d4;stroke: #221e1f;stroke-miterlimit: 10;stroke-width: 0.25px;opacity: 0.5"/>
        <polygon points="109.73 232.97 109.78 229.31 105.63 229.26 105.61 230.21 101.55 230.27 101.56 229.2 101.65 222.84 105.32 222.89 109.86 222.95 109.95 216.74 106.18 216.69 106.15 218.99 101.7 218.93 101.69 220.03 98.31 219.89 98.29 221.39 97.42 221.48 97.31 229.8 98.75 229.82 98.63 231.72 100.37 231.84 102.3 231.97 102.29 232.87 109.73 232.97" style="fill: #d1d3d4;stroke: #221e1f;stroke-miterlimit: 10;stroke-width: 0.25px;opacity: 0.5"/>
        <polygon points="139.52 208.35 139.58 204.19 134.07 204.12 134.08 203.29 128.32 203.21 128.27 207.25 129.47 207.27 129.19 210 133.99 210.06 134.01 208.04 139.52 208.35" style="fill: #d1d3d4;stroke: #221e1f;stroke-miterlimit: 10;stroke-width: 0.25px;opacity: 0.5"/>
        <rect x="156.82" y="192.51" width="12.82" height="8.28" transform="translate(-35.61 357.2) rotate(-89.23)" style="fill: #d1d3d4;stroke: #221e1f;stroke-miterlimit: 10;stroke-width: 0.25px;opacity: 0.5"/>
        <polygon points="157.71 201.08 157.83 192.17 153.39 192.11 153.35 194.91 154.87 194.83 154.81 199.04 153.3 199.02 153.27 201.02 157.71 201.08" style="fill: #d1d3d4;stroke: #221e1f;stroke-miterlimit: 10;stroke-width: 0.25px;opacity: 0.5"/>
        <polygon points="167.51 186.39 167.57 182.08 166.45 182.06 166.55 174.75 157.16 174.63 157.01 186.25 167.51 186.39" style="fill: #d1d3d4;stroke: #221e1f;stroke-miterlimit: 10;stroke-width: 0.25px;opacity: 0.5"/>
        <polygon points="174.26 180.67 174.36 173.86 176.77 173.89 176.86 166.78 171.91 166.71 171.93 165.61 176.88 165.68 176.95 160.37 169.27 160.26 169.25 161.97 165.31 162.12 165.23 167.72 170.69 167.8 170.63 172.5 167.69 172.47 167.59 180.58 174.26 180.67" style="fill: #d1d3d4;stroke: #221e1f;stroke-miterlimit: 10;stroke-width: 0.25px;opacity: 0.5"/>
        <polygon points="184.12 167.78 183.68 155.88 179.84 155.83 180.49 167.73 184.12 167.78" style="fill: #d1d3d4;stroke: #221e1f;stroke-miterlimit: 10;stroke-width: 0.25px;opacity: 0.5"/>
        <rect x="175.78" y="130.81" width="5.11" height="18.99" transform="translate(35.66 316.74) rotate(-89.23)" style="fill: #d1d3d4;stroke: #221e1f;stroke-miterlimit: 10;stroke-width: 0.25px;opacity: 0.5"/>
        <rect x="166.02" y="128.66" width="8.21" height="3.74" transform="translate(37.29 298.86) rotate(-89.22)" style="fill: #d1d3d4;stroke: #221e1f;stroke-miterlimit: 10;stroke-width: 0.25px;opacity: 0.5"/>
        <polygon points="214.55 128.41 231.34 111.71 220.09 99.94 213.85 105.57 216.34 108.5 210.4 114.63 206.41 110.87 202.61 115.18 208 120.01 207.28 121 214.55 128.41" style="fill: #d1d3d4;stroke: #221e1f;stroke-miterlimit: 10;stroke-width: 0.25px;opacity: 0.5"/>
        <rect x="123.97" y="182.6" width="9.22" height="6.87" transform="translate(-59.18 312.08) rotate(-89.22)" style="fill: #d1d3d4;stroke: #221e1f;stroke-miterlimit: 10;stroke-width: 0.25px;opacity: 0.5"/>
        <polyline points="124.7 181.38 119.96 181.31 120 178.41 132.11 178.57 132.08 181.47" style="fill: #d1d3d4;stroke: #221e1f;stroke-miterlimit: 10;stroke-width: 0.25px;opacity: 0.5"/>
        <rect x="125.45" y="170.6" width="3" height="10.4" transform="translate(-50.55 300.36) rotate(-89.23)" style="fill: #d1d3d4;stroke: #221e1f;stroke-miterlimit: 10;stroke-width: 0.25px;opacity: 0.5"/>
        <rect x="116.94" y="162.83" width="3.01" height="6.87" transform="translate(-49.45 282.4) rotate(-89.21)" style="fill: #d1d3d4;stroke: #221e1f;stroke-miterlimit: 10;stroke-width: 0.25px;opacity: 0.5"/>
        <rect x="106.67" y="152.28" width="3" height="7.88" transform="translate(-49.53 262.21) rotate(-89.2)" style="fill: #d1d3d4;stroke: #221e1f;stroke-miterlimit: 10;stroke-width: 0.25px;opacity: 0.5"/>
        <polygon points="109.2 149.49 109.25 145.28 107.64 145.26 107.62 146.86 100.65 146.77 100.67 145.17 99.25 145.15 99.2 149.36 102.93 149.41 102.92 150.71 105.75 150.75 105.76 149.45 109.2 149.49" style="fill: #d1d3d4;stroke: #221e1f;stroke-miterlimit: 10;stroke-width: 0.25px;opacity: 0.5"/>
        <polygon points="134.81 157.76 134.82 156.86 135.94 156.17 137.05 156.18 138.49 154.3 136.01 151.36 133.45 153.73 129.92 153.59 127.92 151.75 124.75 154.42 126.34 156.24 128.56 156.37 128.95 157.68 134.81 157.76" style="fill: #d1d3d4;stroke: #221e1f;stroke-miterlimit: 10;stroke-width: 0.25px;opacity: 0.5"/>
        <polygon points="131.37 143.9 131.42 140.55 121.11 140.41 121.07 143.76 124.91 143.82 124.9 144.32 127.38 144.35 127.38 143.88 131.37 143.9" style="fill: #d1d3d4;stroke: #221e1f;stroke-miterlimit: 10;stroke-width: 0.25px;opacity: 0.5"/>
        <polygon points="123 126.11 124.8 124.52 124.82 123.05 127.19 124.62 129.04 122.39 126.3 120.1 126.36 118.65 129.73 118.12 129.77 115.19 127.28 115.16 126.16 113.87 127.96 112.13 126.06 110.11 124.49 111.48 123.22 109.92 123.25 107.93 121.47 107.34 120.15 110.03 118.48 110.01 118.46 111.85 124.07 116.75 124.04 119.21 121.58 122.07 123 126.11" style="fill: #d1d3d4;stroke: #221e1f;stroke-miterlimit: 10;stroke-width: 0.25px;opacity: 0.5"/>
        <polygon points="115.88 132.68 119.86 129.84 119.87 128.82 119.35 128.29 120.08 127.1 120.09 126.53 117.41 122.89 116.01 122.87 116.02 122.05 114.9 121.13 113.91 121.42 110.63 123.63 110.39 124.34 111.17 125.14 110.7 126.6 110.69 127.05 112.88 130.5 114.51 130.33 114.45 131.64 115.15 132.41 115.88 132.68" style="fill: #d1d3d4;stroke: #221e1f;stroke-miterlimit: 10;stroke-width: 0.25px;opacity: 0.5"/>
        <polygon points="117.68 128.12 115.5 129.63 112.72 125.61 114.82 124.14 117.68 128.12" style="fill: #d1d3d4;stroke: #221e1f;stroke-miterlimit: 10;stroke-width: 0.25px;opacity: 0.5"/>
        <polygon points="108.53 144.05 107.94 142.35 100.03 142.24 100.07 139.05 109.61 139.18 109.58 141.43 110.37 141.97 110.36 143.17 108.53 144.05" style="fill: #d1d3d4;stroke: #221e1f;stroke-miterlimit: 10;stroke-width: 0.25px;opacity: 0.5"/>
        <polygon points="107.43 134.85 107.67 133.87 106.29 132.28 105.31 132.26 104.81 132.26 105.38 131.21 105.65 129.89 104.31 128.47 106.49 126.02 104.55 124.17 102.14 126.66 100.61 125.44 100.66 121.78 97.63 121.74 97.58 125.42 96.14 125.43 95.4 126.57 92.91 124.01 90.73 125.98 93.07 128.42 91.89 129.83 87.88 129.8 87.83 133.08 91.7 133.11 91.58 134.38 92.21 134.64 92.86 135.08 93.64 135.09 94.3 134.47 94.34 133.28 94.96 132.8 94.81 130.95 96.85 129.15 100.79 129.22 106.02 135 107.2 135.07 107.43 134.85" style="fill: #d1d3d4;stroke: #221e1f;stroke-miterlimit: 10;stroke-width: 0.25px;opacity: 0.5"/>
        <polygon points="71.15 143.55 71.19 140.36 74.75 140.41 74.8 136.57 81.13 136.66 81.17 133.39 88.14 133.48 88.09 136.71 81.58 136.7 81.64 138.09 83.42 138.12 83.37 138.83 88.33 138.9 88.29 142.16 84.69 142.15 84.69 144.96 81.47 144.91 81.45 143.69 71.15 143.55" style="fill: #d1d3d4;stroke: #221e1f;stroke-miterlimit: 10;stroke-width: 0.25px;opacity: 0.5"/>
        <polygon points="95.25 156.9 100.37 153.48 99.16 152.15 91.67 149.72 69.8 147.89 69.76 150.85 92.83 153.19 95.25 156.9" style="fill: #d1d3d4;stroke: #221e1f;stroke-miterlimit: 10;stroke-width: 0.25px;opacity: 0.5"/>
        <polygon points="115.42 178.35 116.64 176.47 114.02 173.39 115.15 172.04 109.1 166.97 108.03 167.75 107.46 166.95 107.48 165.8 106.95 165.31 104.91 165.28 104.92 164.8 103.86 164.25 101.39 166.47 99.98 166.5 99.96 167.69 104.44 170.66 104.6 172.12 105.94 171.69 110.58 175.24 111.39 174.76 115.42 178.35" style="fill: #d1d3d4;stroke: #221e1f;stroke-miterlimit: 10;stroke-width: 0.25px;opacity: 0.5"/>
        <polygon points="98.51 171.72 99.78 169.79 98.01 167.06 98.94 165.52 98.04 164.63 95.45 164.41 95.44 165.34 94.58 165.25 94.6 163.34 93.71 162.71 92.83 163.76 92.53 163.05 90.84 163.07 90.42 163.77 92.38 171.91 93.73 171.93 94.42 171.14 97.36 170.95 98.51 171.72" style="fill: #d1d3d4;stroke: #221e1f;stroke-miterlimit: 10;stroke-width: 0.25px;opacity: 0.5"/>
        <polygon points="113.03 197.1 115.02 195.22 116.08 195.74 118.08 193.36 116.98 192.29 119.19 189.47 119.21 188.22 115.06 185.25 113.54 185.23 108.05 191.57 107.83 193.02 112.12 197.09 113.03 197.1" style="fill: #d1d3d4;stroke: #221e1f;stroke-miterlimit: 10;stroke-width: 0.25px;opacity: 0.5"/>
        <polygon points="64.13 225.47 67.9 219.51 60.22 215.55 57.8 215.52 54.74 221.29 64.13 225.47" style="fill: #d1d3d4;stroke: #221e1f;stroke-miterlimit: 10;stroke-width: 0.25px;opacity: 0.5"/>
        <polygon points="60.12 236.24 68.38 226.83 65.08 224.13 61.59 228.24 56.89 228.88 49.48 223.67 46.61 226.94 60.12 236.24" style="fill: #d1d3d4;stroke: #221e1f;stroke-miterlimit: 10;stroke-width: 0.25px;opacity: 0.5"/>
        <polygon points="47.6 251.5 53.91 243.37 51.49 241.4 49.31 241.37 51.91 237.67 53.99 237.7 53.85 234.74 46.91 230.08 36.41 242.68 47.6 251.5" style="fill: #d1d3d4;stroke: #221e1f;stroke-miterlimit: 10;stroke-width: 0.25px;opacity: 0.5"/>
        <polygon points="48.09 240.77 46.09 238.94 49.63 234.49 48.18 233.31 41.72 240.69 48.09 240.77" style="fill: #d1d3d4;stroke: #221e1f;stroke-miterlimit: 10;stroke-width: 0.25px;opacity: 0.5"/>
        <polygon points="70.66 269.68 75.58 263.69 75.15 262.13 71.95 259.83 69.33 259.5 62.38 253.95 59.25 257.66 66.29 263.87 65.06 265.35 70.66 269.68" style="fill: #d1d3d4;stroke: #221e1f;stroke-miterlimit: 10;stroke-width: 0.25px;opacity: 0.5"/>
        <polygon points="82.3 278.35 73.26 271.17 78.34 265.03 87.49 272.21 82.3 278.35" style="fill: #d1d3d4;stroke: #221e1f;stroke-miterlimit: 10;stroke-width: 0.25px;opacity: 0.5"/>
        <polygon points="92.17 269.47 97.98 262.23 89.68 255.61 87.11 258.83 84.64 258.65 84.62 260.25 86.34 260.27 83.77 263.3 92.17 269.47" style="fill: #d1d3d4;stroke: #221e1f;stroke-miterlimit: 10;stroke-width: 0.25px;opacity: 0.5"/>
        <polygon points="97.64 256.18 105.49 245.18 99.39 240.73 99.82 239.73 100.14 239.18 100 238.28 99.56 237.87 97.78 236.53 92.64 236.74 89.54 239.02 89.15 240.16 89.69 241.5 85.02 247.55 97.64 256.18" style="fill: #d1d3d4;stroke: #221e1f;stroke-miterlimit: 10;stroke-width: 0.25px;opacity: 0.5"/>
        <polygon points="101.89 264.14 106.98 257.55 104.5 255.56 99.39 261.9 101.89 264.14" style="fill: #d1d3d4;stroke: #221e1f;stroke-miterlimit: 10;stroke-width: 0.25px;opacity: 0.5"/>
        <polygon points="109 258.12 113.21 252.13 110.42 246.36 105.88 251.56 108.05 253.8 107.12 254.88 108.58 256.21 109.7 254.76 109 258.12" style="fill: #d1d3d4;stroke: #221e1f;stroke-miterlimit: 10;stroke-width: 0.25px;opacity: 0.5"/>
        <polygon points="248.6 51.69 250.72 49.16 247.11 46.6 248.97 44.29 246.49 42.23 248.3 40.19 239.48 34.29 233.65 42.33 241.75 48.14 242.53 46.99 248.6 51.69" style="fill: #d1d3d4;stroke: #221e1f;stroke-miterlimit: 10;stroke-width: 0.25px;opacity: 0.5"/>
        <polygon points="72.87 283.7 78.21 277.51 73.02 272.99 67.48 279.22 72.87 283.7" style="fill: #d1d3d4;stroke: #221e1f;stroke-miterlimit: 10;stroke-width: 0.25px;opacity: 0.5"/>
        <polygon points="89.18 235.83 79.31 228.71 62.51 251.62 72.38 258.74 89.18 235.83" style="fill: #f1f2f2;stroke: #221e1f;stroke-miterlimit: 10;stroke-width: 0.25px;opacity: 0.84"/>
        <polygon points="180.76 113.83 180.81 110.22 173.34 110.12 173.35 109.12 180.82 109.22 180.88 105.32 171.54 105.19 171.42 113.7 180.76 113.83" style="fill: #d1d3d4;stroke: #221e1f;stroke-miterlimit: 10;stroke-width: 0.25px;opacity: 0.5"/>
        <polygon points="193.53 110.09 199.18 103.46 196.43 101.22 192.06 106.87 185.39 107.38 185.34 110.69 193.53 110.09" style="fill: #d1d3d4;stroke: #221e1f;stroke-miterlimit: 10;stroke-width: 0.25px;opacity: 0.5"/>
        <polygon points="199.24 100.96 196.98 103.43 188.81 95.61 195.68 87.89 203.97 94.71 201.09 98.48 202.29 99.49 200.34 101.97 199.24 100.96" style="fill: #d1d3d4;stroke: #221e1f;stroke-miterlimit: 10;stroke-width: 0.25px;opacity: 0.5"/>
        <polygon points="199.45 98.85 202.23 95.88 199.32 93.34 196.65 96.31 199.45 98.85" style="fill: #d1d3d4;stroke: #221e1f;stroke-miterlimit: 10;stroke-width: 0.25px;opacity: 0.5"/>
        <polygon points="181.63 101.62 181.69 97.21 177.25 97.15 177.33 91.04 166.63 90.9 166.56 96.16 173.52 96.25 173.45 101.51 181.63 101.62" style="fill: #d1d3d4;stroke: #221e1f;stroke-miterlimit: 10;stroke-width: 0.25px;opacity: 0.5"/>
        <rect x="155.81" y="110.58" width="3.51" height="9.39" transform="translate(40.23 271.31) rotate(-89.25)" style="fill: #d1d3d4;stroke: #221e1f;stroke-miterlimit: 10;stroke-width: 0.25px;opacity: 0.5"/>
        <rect x="161.67" y="112.12" width="4.36" height="2.12" transform="translate(48.43 275.46) rotate(-89.21)" style="fill: #d1d3d4;stroke: #221e1f;stroke-miterlimit: 10;stroke-width: 0.25px;opacity: 0.5"/>
        <polygon points="162.32 110.98 162.36 107.77 159.33 107.73 159.45 98.82 160.97 98.84 161.04 93.43 148.52 93.27 148.44 98.77 152.18 98.82 152.09 112.54 159.47 112.64 159.49 110.94 162.32 110.98" style="fill: #d1d3d4;stroke: #221e1f;stroke-miterlimit: 10;stroke-width: 0.25px;opacity: 0.5"/>
        <polygon points="162.63 87.54 162.73 80.33 150.71 80.17 147.08 87.33 162.63 87.54" style="fill: #d1d3d4;stroke: #221e1f;stroke-miterlimit: 10;stroke-width: 0.25px;opacity: 0.5"/>
        <rect x="156.34" y="66.24" width="5.01" height="5.05" transform="translate(87.96 226.67) rotate(-89.23)" style="fill: #d1d3d4;stroke: #221e1f;stroke-miterlimit: 10;stroke-width: 0.25px;opacity: 0.5"/>
        <rect x="176.98" y="24.01" width="5.71" height="5.76" transform="matrix(0.01, -1, 1, 0.01, 150.5, 206.34)" style="fill: #d1d3d4;stroke: #221e1f;stroke-miterlimit: 10;stroke-width: 0.25px;opacity: 0.5"/>
        <polygon points="240.68 45.25 242.18 43.09 240.49 41.95 238.99 44.07 240.68 45.25" style="fill: #d1d3d4;stroke: #221e1f;stroke-miterlimit: 10;stroke-width: 0.25px;opacity: 0.5"/>
      </g>
      <g>
        <path d="M63.81,199.79h1.31s0-.26,0-.46a1.41,1.41,0,0,0-.06-.36l.56,0,0,.29v.49H67v.4l-.37,0h-1a6.32,6.32,0,0,0,.29,1.5,4.7,4.7,0,0,0,.37-1.22s.39.18.5.21a13.57,13.57,0,0,1-.66,1.41,1.91,1.91,0,0,0,.4.52c.17.13.24.1.3-.39a1,1,0,0,0,.43.29c-.17.54-.24.73-.39.74-.33,0-.82-.48-1-.83a4,4,0,0,1-1,.8.8.8,0,0,0-.39-.33,2.65,2.65,0,0,0,1.18-.81,5.05,5.05,0,0,1-.49-1.89H63.89v.61h.77l.29,0,0,.35s0,.71-.06,1-.41.46-.71.47c0,0,0-.3-.23-.5,0,0,.52.21.55-.2a3.92,3.92,0,0,0,0-.71h-.62a2.87,2.87,0,0,1-.59,2,1.11,1.11,0,0,0-.4-.21,2.4,2.4,0,0,0,.57-1.78v-1l0-.33Zm2.11-.57.41-.2s.25.36.35.53l-.48.19A1.13,1.13,0,0,0,65.92,199.22Z" style="fill: #58595b"/>
        <path d="M68.94,199.54h1l.32,0V200l-.28,0h-.35v1.81l.66-.16,0,.4-.51.13-.83.23-.36.12-.15-.52.33,0,.41-.07v-1.9h-.29l-.32,0v-.44Zm1.71.41H71v-1l.53.07s-.06.25-.06.3,0,.48,0,.63H72l.52,0c0,.12,0,.31,0,.46a11.54,11.54,0,0,1-.23,2.35,1.27,1.27,0,0,1-.78.29s0-.29-.19-.52c0,0,.5.14.6-.12a15.73,15.73,0,0,0,.17-2h-.66a2.76,2.76,0,0,1-1.37,2.75l-.38-.31c.69-.41,1.3-.69,1.33-2.44h-.35l-.31,0v-.43Z" style="fill: #58595b"/>
        <path d="M74.81,201.4a15.8,15.8,0,0,1-.47,1.63l-.47-.28a4.68,4.68,0,0,0,.53-1.52Zm.07-.76s-.19.28-.27.38a5.59,5.59,0,0,0-.71-.51,2.44,2.44,0,0,0,.23-.31A3.29,3.29,0,0,1,74.88,200.64Zm.19-1.06-.27.34a2.57,2.57,0,0,0-.7-.5l.25-.32A3.13,3.13,0,0,1,75.07,199.58Zm1.52-.43H78v3.53c0,.32-.44.39-.79.4a1.4,1.4,0,0,0,0-.25,1.94,1.94,0,0,0-.11-.24c.24,0,.54,0,.54-.16v-.82H77a2.88,2.88,0,0,1-.76,1.59.81.81,0,0,0-.19-.13L75.8,203a1.8,1.8,0,0,0,.48-.55H75.9v-.24h-.53v.43H75v-1.76h.48v-.6H75.2l-.31,0v-.39h.55v-.58l0-.34h.43l0,.35v.57h.6v.39l-.34,0h-.26v.6h.47v1.53A7.42,7.42,0,0,0,76.59,199.15Zm-1.22,2.71h.52v-.67h-.52Zm1.62-.61h.56v-.69H77A6.39,6.39,0,0,1,77,201.25Zm0-1h.54v-.71H77Z" style="fill: #58595b"/>
      </g>
      <path d="M182.37,26.89,172.55,43a1.5,1.5,0,0,0,.45,2l21,14a1.5,1.5,0,0,1,.65,1.46L191.19,83.6a1.49,1.49,0,0,0,1.2,1.68L206.23,88a1.52,1.52,0,0,0,1.49-.56l11-14.35a1.52,1.52,0,0,0,.27-.61l3.55-17.17a1.42,1.42,0,0,0,0-.68L221,49a1.5,1.5,0,0,0-.67-.89l-35.9-21.68a1.53,1.53,0,0,0-1.7.09h0A1.81,1.81,0,0,0,182.37,26.89Z" style="fill: #f1f2f2;opacity: 0.63"/>
      <g>
        <path d="M91,244v-2.61l0-.57.42,0h.56l.45,0,0,.5v2.25l0,.46h-.44v-.21H91.4v.7h-.46Zm.44-2.76v.86h.54v-.86Zm0,1.25v1h.54v-1Zm.94,2V244l.52,0h.52v-1.41h-.33l-.46,0v-.45l.45,0h.34v-1.16h-.86v-.45l.46,0h1.38c.23,0,.41,0,.41,0v.46l-.41,0h-.54v1.16h.4l.46,0v.45l-.45,0h-.41v1.41h.63l.51,0v.46s-.29,0-.51,0h-1.6Z" style="fill: #404041"/>
        <path d="M95.67,244a4,4,0,0,0,1.23-1.48h-.68l-.39,0v-.44l.39,0h.86a3.18,3.18,0,0,0,.23-.73l.55.17a1.92,1.92,0,0,0-.32.56H99.1l.42,0v.44l-.41,0H97.34a5,5,0,0,1-1.28,1.73A1.21,1.21,0,0,0,95.67,244Zm1.89-3.08a1.72,1.72,0,0,0-.11-.46l.47-.09s.09.34.13.55h1.09l.41,0v.58l0,.27h-.47v-.45H96.35v.47h-.47l0-.29v-.23l0-.35.42,0Zm.74,2a5.74,5.74,0,0,0-.84,1.07l1.25-.08a2.7,2.7,0,0,0-.42-.57l.38-.19c.09.12.54.73.79,1.12l-.42.24-.13-.27a9.79,9.79,0,0,0-2,.24,1.73,1.73,0,0,0-.19-.42,1.71,1.71,0,0,0,.36-.24,3.4,3.4,0,0,0,.64-1.17Z" style="fill: #404041"/>
        <path d="M89,246.21h3l.36,0,0,.46v3.15l0,.57H92v-.26H89v.27h-.38l0-.56v-3.07l0-.57Zm0,.31v3.29h3v-3.29Zm.11,1.39v-.29h1.18v-.16h-.82v-.81H91.5v.81h-.91v.16h1.26v.29H89.06Zm2.55.3v1.4H89.31V248l.24,0h2.07Zm-1.94.08v1h1.57v-1Zm.12-1.35v.27h1.34v-.27Zm.31,1.49H91v.7H89.86v-.7Zm.1.22v.24h.51v-.24Z" style="fill: #404041"/>
        <path d="M93.91,248.2l-.24,0v-.31l.25,0h1.14v-.17h-1.3v-.3h1.3v-.21H93.25V247h1.81v-.22H93.73v-.32l.26,0h1.07l0-.37h.41l0,.37h1.32l0,.26V247h.61v.31a1.58,1.58,0,0,0-.24,0h-.37v.51l-.34,0h-1v.17h1.33a1.52,1.52,0,0,0,.25,0v.32l-.24,0H95.43v.25h1.83v.31l-.23,0H93.38v-.3h1.68v-.25Zm0,2.19c0-.08,0-.27,0-.38v-.82c0-.12,0-.27,0-.27h2.9a2.44,2.44,0,0,0,0,.27V250c0,.12,0,.35,0,.35h-.4v-.23H94.27v.25Zm.41-1h2.09v-.2H94.27Zm0,.45h2.09v-.2H94.27Zm1.16-3.09V247h.93v-.22Zm0,.5v.21h.93v-.21Z" style="fill: #404041"/>
        <path d="M98.81,246.1l.49.2a2.26,2.26,0,0,1-.16.18,6,6,0,0,1,.66.46l-.23.38a2.58,2.58,0,0,0-.62-.56,5.34,5.34,0,0,1-.54.87h.43a2.85,2.85,0,0,0-.07-.44l.4-.1c0,.12.07.4.07.54h.52c0,.12,0,.22,0,.31v.83c0,.16,0,.36,0,.36H98.67v.65l.63-.2-.15-.22.34-.17c.22.28.5.72.5.72l-.35.22-.17-.29-.92.38a.88.88,0,0,0-.2.14c-.06-.11-.25-.41-.25-.41s.19-.1.21-.19v-2l-.17.23a1.21,1.21,0,0,0-.31-.41A3.36,3.36,0,0,0,98.81,246.1Zm-.14,2.1h.71v-.26h-.71Zm0,.59h.71v-.28h-.71Zm1.17-1.71v-.47l.39,0h.51a3,3,0,0,0-.14-.43l.47-.07s.09.27.14.5h.65l.36,0s0,.17,0,.26v.24c0,.07,0,.27,0,.27h-.41V247h-1.58v.35h-.43S99.84,247.16,99.84,247.08Zm1.83,1.78H102s0,.22,0,.3V250c0,.11,0,.35,0,.35h-.38V250H100.5v.35h-.4s0-.26,0-.39v-2.24c0-.07,0-.39,0-.39l.42,0h.89l.36,0s0,.32,0,.4v.41c0,.1,0,.35,0,.35l-.35,0h-.92v.36Zm-1.17-1.14v.45h.88v-.45Zm0,2h1.07v-.51H100.5Z" style="fill: #404041"/>
      </g>
      <g>
        <path d="M122.33,211.81a11.58,11.58,0,0,0-.8,1.14l.42,0s.2-.34.3-.56c0,0,.24.16.42.26-.18.2-.48.62-1,1.35l.62,0a1,1,0,0,0-.14-.24l.34-.15a8,8,0,0,1,.34.75l-.37.16-.07-.2a6.94,6.94,0,0,0-1.19.21,2.66,2.66,0,0,0-.08-.45,1,1,0,0,0,.2-.09,5.4,5.4,0,0,0,.49-.67,2.14,2.14,0,0,0-.57.13s-.07-.21-.13-.37c.13-.09.27-.11.79-1.41Zm-.68,2.85a7.28,7.28,0,0,1-.15,1l-.4-.06a2.26,2.26,0,0,0,.19-1Zm.54.78-.42.05a4.25,4.25,0,0,0,0-.88l.33,0C122.09,214.92,122.15,215.17,122.19,215.44Zm1.35-.92c-.19.29-.64,1.11-.64,1.11a1.13,1.13,0,0,0-.31-.25.48.48,0,0,1,.08-.1l-.29.1a2.89,2.89,0,0,0-.18-.8l.35-.1c0,.21.13.51.18.71a5.9,5.9,0,0,0,.44-.87Zm1.24-2.43.38,0,0,.32v.14l0,.3h-.4v-.42h-1.69v.49h-.41l0-.35v-.48l.39,0h.72a2,2,0,0,0-.16-.39l.45-.14c.06.17.17.53.17.53Zm-1,2h-.43l-.57,0v-.38l.57,0h1.38l.56,0v.38l-.54,0h-.6v1.45c0,.26-.32.3-.61.38a.64.64,0,0,0-.19-.49s.43,0,.43-.09Zm-.41-1.12h1.53v.37l-.34,0h-1.19l-.37,0V213Zm2,2.28a3.11,3.11,0,0,1-.38.25,4.41,4.41,0,0,0-.66-1l.3-.22C124.79,214.53,125.19,215.08,125.32,215.26Z" style="fill: #404041"/>
        <path d="M130,214.77v.52l-.51,0h-2.85l-.69,0v-.52l.69,0h2.86Zm-.49-2.61v.52h-3.1v-.52l.64,0h2Z" style="fill: #404041"/>
        <path d="M131.5,211.59l.5.21-.17.18a5.67,5.67,0,0,1,.67.45l-.24.38a2.64,2.64,0,0,0-.61-.56,6.15,6.15,0,0,1-.54.87h.42a2.85,2.85,0,0,0-.07-.44l.4-.09a4,4,0,0,1,.08.53h.52a1.84,1.84,0,0,0,0,.31v.83c0,.16,0,.36,0,.36h-1.08v.65l.63-.2-.16-.22a2.47,2.47,0,0,0,.34-.17c.22.28.5.73.5.73l-.35.22a2.87,2.87,0,0,0-.16-.3l-.92.38a.87.87,0,0,0-.2.15l-.26-.41c.05,0,.19-.11.21-.2v-2l-.17.23a1.23,1.23,0,0,0-.3-.41A3.37,3.37,0,0,0,131.5,211.59Zm-.13,2.11h.7v-.27h-.7Zm0,.58h.7V214h-.7Zm1.17-1.71v-.23l0-.23h.9c0-.13-.07-.27-.13-.42l.46-.07a3.1,3.1,0,0,1,.14.49h1s0,.16,0,.25v.24c0,.08,0,.28,0,.28h-.42v-.4h-1.58v.36h-.42S132.54,212.65,132.54,212.57Zm1.82,1.79.29,0s0,.23,0,.3v.84c0,.12,0,.36,0,.36h-.39v-.31h-1.07v.35h-.4s0-.26,0-.39v-2.24c0-.07,0-.38,0-.38h1.31l.36,0s0,.31,0,.39v.42c0,.09,0,.34,0,.34h-1.27v.36Zm-1.17-1.15v.45h.88v-.45Zm0,2h1.07v-.52h-1.07Z" style="fill: #404041"/>
      </g>
      <g>
        <path d="M74.13,239.33l.46,0v.42l-.43,0h-.88v1h1.21v.43H73.28v1.29h1.08l.55,0v.45l-.53,0H71.59l-.57,0v-.45l.41,0h.26V241l0-.58h.48l0,.53v1.46h.72v-2.67H71.71l-.44,0v-.42l.53,0Z" style="fill: #404041"/>
        <path d="M77.49,239l0,.44v1l0,.43-.37,0h-.81v1.85c0,.08,0,.41,0,.41h-.44s0-.31,0-.42v-3.22l0-.44.45,0h.77Zm-1.18.74h.76v-.36h-.76Zm0,.72h.76v-.37h-.76ZM79.54,239l0,.34v3.27c0,.3-.14.48-.75.5,0,0,0-.16,0-.26a.77.77,0,0,0-.16-.28c.24,0,.52.07.52,0v-1.71h-.75l-.44,0,0-.42v-1l0-.38.45,0h.84Zm-1.19.74h.76v-.36h-.76Zm0,.71h.76v-.35h-.76Z" style="fill: #404041"/>
        <path d="M72.11,248.77a3,3,0,0,1-1.55-1.94,2.83,2.83,0,0,1-1.72,1.93c-.18-.23-.31-.37-.31-.37a2.43,2.43,0,0,0,1.72-2.17H69.16l-.45,0v-.46l.44,0h1.11l0-.66s0-.14,0-.55l.61,0a4.72,4.72,0,0,0-.13,1.17H72a2.49,2.49,0,0,0,.39,0v.47l-.39,0h-1.3a2.71,2.71,0,0,0,1.79,2A1.34,1.34,0,0,0,72.11,248.77Z" style="fill: #404041"/>
        <path d="M74.28,247.52l-.3,0v-1.61l.31,0h2.5l0,.4v.73l0,.47-.39,0h-.82v.38H77l.45,0v.37l-.41,0H75.58v.3l0,.32h-.45v-.63H73.83l-.52,0v-.36l.54,0h1.31v-.38Zm1.42-1.75,0-.18v-.12H75v.31h-.41l0-.12v-.19h-.8l-.42,0v-.38l.41,0h.81V245l0-.24H75l0,.24v.17h.73v-.2l0-.21h.41v.41h.76l.46,0v.38l-.48,0H76.1v.3Zm-1.32.49v.32h2v-.32Zm0,.61v.34h2v-.34Z" style="fill: #404041"/>
        <path d="M78.43,245.83h.18V245l0-.35H79l0,.37v.78h.16l.29,0v.4l-.28,0H79v1.32s.24-.08.42-.16a1.21,1.21,0,0,0,0,.45,3.6,3.6,0,0,0-1.2.48l-.22-.54a4.35,4.35,0,0,0,.62-.12V246.2h-.18l-.34,0v-.41Zm2.55,1.6v.82a5.57,5.57,0,0,0,0,.57h-.47a4.33,4.33,0,0,0,0-.56v-.83h-.64a3.71,3.71,0,0,0-.39,0V247l.39,0h.64v-1.77H80l-.4,0v-.42l.38,0h1.64l.39,0v.42l-.41,0H81V247h.67l.46,0v.42H81Zm-.88-1.82a8.8,8.8,0,0,1,.23,1.08l-.41.05a5.89,5.89,0,0,0-.21-1.08Zm1.88,0c-.21.25-.2.36-.49,1.05l-.35-.07a4.61,4.61,0,0,0,.34-1.12S81.77,245.59,82,245.66Z" style="fill: #404041"/>
      </g>
      <g>
        <path d="M200.18,46.27l0,.43h-.44l0-.4V44.09l0-.35.43,0h1l0-.46h-1.48l-.31,0v-.39l.3,0h1.49v-.47l.59,0-.1.43h1.47l.34,0v.39l-.34,0h-1.51l-.05.46h1.24l.43,0s0,.21,0,.37v2.21c0,.41-.5.41-.83.44a.93.93,0,0,0-.11-.49c.22,0,.53,0,.51-.16v-2h-2.67ZM202,44.85h.51v.35l-.23,0h-.64v.34h.65l.25,0v.38l-.25,0h-.65v.46l0,.28h-.45l0-.3v-.44h-.85v-.38l.22,0h.63v-.34h-.57l-.23,0v-.35h1.22s.11-.46.15-.69l.5.17A5.6,5.6,0,0,0,202,44.85Zm-.93-.66a5.18,5.18,0,0,1,.22.48l-.4.13a2.74,2.74,0,0,0-.21-.47A2.42,2.42,0,0,0,201.11,44.19Z" style="fill: #404041"/>
        <path d="M206.06,42.67l0,.44v1l0,.43-.38,0h-.8v1.84c0,.08,0,.41,0,.41h-.44s0-.3,0-.42V43.11l0-.44.45,0h.77Zm-1.18.74h.76V43h-.76Zm0,.72h.76v-.37h-.76Zm3.23-1.46,0,.34v3.26c0,.31-.14.48-.75.51l0-.26a.73.73,0,0,0-.15-.29c.24,0,.52.08.52,0V44.48h-.75l-.44,0,0-.42v-1l0-.38.45,0h.84Zm-1.19.74h.76V43h-.76Zm0,.71h.76v-.36h-.76Z" style="fill: #404041"/>
        <path d="M200.68,52.44a3,3,0,0,1-1.55-1.94,2.9,2.9,0,0,1-1.72,1.93l-.31-.38a2.43,2.43,0,0,0,1.72-2.17h-1.1l-.44,0v-.46l.43,0h1.12l0-.65s0-.15,0-.56l.61,0a4.79,4.79,0,0,0-.13,1.17h1.28a3.71,3.71,0,0,0,.39,0v.46l-.39,0h-1.3a2.7,2.7,0,0,0,1.79,2A1.41,1.41,0,0,0,200.68,52.44Z" style="fill: #404041"/>
        <path d="M202.85,51.19h-.3V49.59l.31,0H205l.4,0,0,.41v.73l0,.46h-1.21v.37h1.39l.45,0v.38l-.41,0h-1.43v.29l0,.33h-.46l0-.32v-.31H202.4l-.52,0v-.37l.53,0h1.32v-.37Zm1.42-1.76,0-.18v-.12h-.73v.31h-.42l0-.12v-.19h-.79l-.42,0v-.37l.41,0h.8v-.41h.42l0,.23v.18h.73v-.2l0-.22h.41l0,.21v.21h.77l.46,0v.37l-.48,0h-.74v.3Zm-1.33.49v.32h2v-.32Zm0,.61v.34h2v-.34Z" style="fill: #404041"/>
        <path d="M207,49.49h.18v-.8l0-.34h.45l0,.37v.77H208v.39l-.28,0h-.17v1.32L208,51a1.23,1.23,0,0,0,0,.44,3.89,3.89,0,0,0-1.2.48l-.22-.54a3.19,3.19,0,0,0,.62-.12V49.86H207l-.34,0v-.41Zm2.55,1.6v.82a5.32,5.32,0,0,0,0,.57h-.47a4.28,4.28,0,0,0,0-.55v-.84h-.64a3.71,3.71,0,0,0-.39,0v-.43l.39,0h.64V48.93h-.56l-.4,0v-.42l.38,0h2V49l-.41,0h-.64v1.78h.66l.46,0v.42l-.45,0Zm-.88-1.81s.16.59.23,1.07l-.41.06a6.82,6.82,0,0,0-.21-1.08Zm1.87,0c-.21.24-.2.35-.48,1.05l-.36-.08a4.23,4.23,0,0,0,.35-1.12S210.33,49.25,210.54,49.33Z" style="fill: #404041"/>
      </g>
      <g>
        <path d="M126.07,187l.54.19a15,15,0,0,1-.79,1.64,1.08,1.08,0,0,0-.39-.14A3.26,3.26,0,0,0,126.07,187Zm1.48,2.43c0,.24-.34.37-.81.37a.65.65,0,0,0-.2-.48s.6.1.6-.13v-2.72l0-.53h.47l0,.53Zm.87-2.41s.52.9.85,1.57l-.45.24a6,6,0,0,0-.77-1.63Z" style="fill: #404041"/>
        <path d="M130.94,186.33l.39,0s0,.24,0,.36v1.77c0,.17,0,.51,0,.6h-.39v-.32h-.5v.64H130s0-.27,0-.49v-2.2c0-.14,0-.36,0-.36a2.62,2.62,0,0,0,.43,0Zm-.5.37v1.67h.5V186.7Zm2.23-.67a2,2,0,0,0-.32.45h.87l.45,0v.39l-.49,0h-1a6.63,6.63,0,0,1-.52.81l-.29-.26a3.16,3.16,0,0,0,.72-1.55S132.47,186,132.67,186Zm.25,1.38.36,0v.38c-.41.1-.82.81-1.05,1.24s.23.35.49.35c.46,0,.61-.12.62-.68,0-.05.1.09.25.16a.93.93,0,0,0,.22.09c-.18.61-.23.8-1.13.8-.59,0-1-.13-.87-.62a4,4,0,0,1,.86-1.36h-.49l-.27,0v-.38l.3,0Z" style="fill: #404041"/>
        <path d="M136.25,187.49l.4,0v.38l-.41,0h-1.45l-.34,0v-.37h1.2a4.37,4.37,0,0,0,.25-.65l.44.14a2.57,2.57,0,0,0-.33.51Zm.29-1.11v.39l-.37,0h-1.08l-.49,0v-.39l.49,0h1.1Zm-1.77,3.48,0-.4v-.94l0-.37h1.62v1.67H136v-.37h-.83v.41Zm.7-2.56-.39.16a1,1,0,0,0-.2-.45l.35-.16A2.56,2.56,0,0,1,135.47,187.3Zm-.3,1.84H136v-.66h-.83Zm.7-2.88-.44.11a.92.92,0,0,0-.21-.42l.43-.13A1.21,1.21,0,0,1,135.87,186.26Zm1.95-.08h.35s-.2.82-.39,1.44a1.65,1.65,0,0,1,.51,1c0,.65-.3.83-.83.88a1.1,1.1,0,0,0-.19-.53c.29,0,.63.13.6-.35a1.38,1.38,0,0,0-.49-.89s.15-.5.29-1.16h-.5v2.85c0,.23,0,.49,0,.49h-.42s0-.26,0-.5v-2.81c0-.11,0-.39,0-.39h1Z" style="fill: #404041"/>
      </g>
      <g>
        <path d="M105.07,188.75a3,3,0,0,1-1.54-1.94,2.85,2.85,0,0,1-1.72,1.93c-.19-.23-.32-.37-.32-.37a2.42,2.42,0,0,0,1.72-2.17h-1.09l-.45,0v-.46l.44,0h1.11l0-.66s0-.14,0-.55l.61,0a4.72,4.72,0,0,0-.13,1.17H105a2.49,2.49,0,0,0,.39,0v.47l-.39,0h-1.3a2.71,2.71,0,0,0,1.8,2A1.33,1.33,0,0,0,105.07,188.75Z" style="fill: #404041"/>
        <path d="M107.62,186.68l.26,0h2.22l.28,0v.37l-.29,0H108l-.3,0,.07.1a2.76,2.76,0,0,0-.37.21,2.42,2.42,0,0,0-.25-.51v1.65l0,.31h-.41l0-.31V187a2.61,2.61,0,0,1-.31.44,1.51,1.51,0,0,0-.28-.35,3,3,0,0,0,.85-1.36h-.79v-.36h1.33a8.28,8.28,0,0,1-.43,1v.21l.2-.12s.19.28.27.42Zm-.36-1.52-.4.17a2.64,2.64,0,0,0-.38-.63l.4-.17A6,6,0,0,1,107.26,185.16Zm.89,2.81h-.29s0-.13,0-.21v-.37c0-.08,0-.24,0-.24l.31,0h1.64a2.16,2.16,0,0,1,.28,0s0,.14,0,.21v.37c0,.08,0,.24,0,.24h-.68l.42.15-.24.31h.87v.36h-3v-.36h.88a.91.91,0,0,0-.19-.31l.27-.15Zm1.31-2.88h.38l.32,0c0,.1,0,.27,0,.27v1.24h-2.43v-1.29l0-.22.29,0h.44a4.55,4.55,0,0,0,0-.48h.39c0,.07,0,.48,0,.48h.28s0-.38,0-.46h.4A4.21,4.21,0,0,0,109.46,185.09Zm-1.36.31v.29h.33v-.29Zm0,.57v.29h.33V186Zm.14,1.51v.19h1.48v-.19Zm.35,1h.58a1.56,1.56,0,0,0,.19-.46h-.88c.06.1.19.26.27.4Zm.2-3v.29h.3v-.29Zm0,.57v.29h.3V186Zm.67-.57v.29h.32v-.29Zm0,.57v.29h.32V186Z" style="fill: #404041"/>
        <path d="M114.94,185.87v.22l0,.36h-.42v-.55h-2.94v.63h-.42l0-.34v-.28l0-.37.38,0h1.27v-.5l0-.5h.45l0,.52v.48h.37c.21-.33.36-.62.45-.74l.38.2c-.14.16-.24.31-.44.54h.44l.5,0Zm-1.12.33.45,0,0,.37v.36l0,.39-.4,0h-.59v.35h.82l.48,0v.4l-.48,0h-.82v.39h1.2l.48,0v.39l-.47,0h-2.76l-.5,0v-.39l.5,0h1.14V188h-1.29v-.38h1.29v-.35h-.57l-.41,0v-1.12l.37,0ZM112,184.85a4.16,4.16,0,0,1,.42.42l-.4.26a1.28,1.28,0,0,0-.35-.46Zm.32,2.09h1.54v-.41h-1.54Z" style="fill: #404041"/>
      </g>
      <g>
        <path d="M214.72,115.27a2.92,2.92,0,0,0-.15,1.15,2.73,2.73,0,0,0,2,2.43,1.57,1.57,0,0,0-.34.54,3.14,3.14,0,0,1-1.81-2.34,3.88,3.88,0,0,1-1.72,2.35,1.56,1.56,0,0,0-.41-.36,3.3,3.3,0,0,0,1.44-1.43,4.23,4.23,0,0,0,.37-2.38Z" style="fill: #404041"/>
        <path d="M217.7,116.07h2.92l.53,0v.44l-.51,0h-.38a3.66,3.66,0,0,1-.78,1.77,2.91,2.91,0,0,0,1.7.59,1.76,1.76,0,0,0-.25.57,3.94,3.94,0,0,1-1.75-.86,6.43,6.43,0,0,1-1.69.86,1.49,1.49,0,0,0-.34-.45,4.59,4.59,0,0,0,1.71-.72,5.12,5.12,0,0,1-.77-1.41,3.81,3.81,0,0,0,.42-.16,3.38,3.38,0,0,0,.67,1.28,2.47,2.47,0,0,0,.62-1.47h-2.11l-.42,0v-.44Zm1.65-.89s.16.38.25.68a2.48,2.48,0,0,0-.5.14,4,4,0,0,0-.23-.67Z" style="fill: #404041"/>
        <path d="M221.91,115.91l.27,0h1.26l.34,0v.34l-.34,0h-1.26l-.27,0Zm1.67,1.8,0,.38v1.14h-.38v-.32h-.72v.42h-.39l0-.41v-.85l0-.36h1.49Zm-1.47-1.19h1.47v.33l-.28,0h-.94l-.25,0Zm0,.59h1.16l.29,0v.34l-.29,0h-.89l-.27,0Zm.69-2a2.52,2.52,0,0,1,.36.55l-.42.17a1.94,1.94,0,0,0-.29-.55Zm-.33,3.46h.72V118h-.72Zm1.32-1.52.32,0h1.59a3,3,0,0,1-.66,1.42,4.33,4.33,0,0,0,1.05.43,3.43,3.43,0,0,0-.32.41,8.35,8.35,0,0,1-1-.59,6.31,6.31,0,0,1-.86.66.81.81,0,0,0-.28-.35,3.27,3.27,0,0,0,.87-.54,2.53,2.53,0,0,1-.52-.91l.39-.12a1.75,1.75,0,0,0,.41.78,2.65,2.65,0,0,0,.41-.86h-1.11l-.3,0Zm-.11-.31c.22-.13.48-.3.39-1.35h1.39l0,.32v.64c0,.11.24.12.57.06,0,0-.06.24-.08.4a4.28,4.28,0,0,1-.68,0,.19.19,0,0,1-.18-.2v-.87h-.59a1.46,1.46,0,0,1-.48,1.27A.78.78,0,0,0,223.68,116.79Z" style="fill: #404041"/>
        <path d="M226.73,116h2.08v.36l-.3,0H227l-.27,0Zm.23.58h1.64v.34H227Zm0,.62h1.62v.33H227Zm1.58.64,0,.4v1h-.39v-.36h-.76v.39H227l0-.43v-.69l0-.36h1.55Zm-.84-2.58a2.37,2.37,0,0,1,.33.56s-.24.1-.4.15a1.73,1.73,0,0,0-.28-.54Zm-.32,3.4h.76v-.51h-.76Zm2.11-3.41H230l0,.45v1h.51l.44,0v.4l-.45,0h-.5v1.81l0,.54h-.44l0-.54V117h-.86v-.39l.43,0h.43v-1Z" style="fill: #404041"/>
        <path d="M235.12,118.31h.4v.33l-.4,0h-1.35v.54c0,.21-.38.26-.55.29a.88.88,0,0,0-.18-.4c.22,0,.37,0,.36-.1v-.33h-1.46l-.4,0v-.33h1.86l0-.17a2.22,2.22,0,0,0,.66-.29h-1.46l-.37,0v-.33l.36,0h2.33a3.73,3.73,0,0,1-1.12.76Zm-.4-1.5h-.6v-.35l.24,0h.38l0-.25h-.63v-.33l.26,0h.39l0-.29h-.69v-.35h.7l.43,0-.06.28-.13,1.49.39,0v.81H235l0-.28v-.23H232v.2l0,.25h-.42l0-.14v-.6h.4l-.06-1.36c0-.09,0-.3,0-.3a2.59,2.59,0,0,0,.88-.24l.21.36s-.34.07-.68.11v.29h.65v.32h-.64v.23h.62v.33h-.61v.3h.79a.84.84,0,0,0-.28-.19,1.69,1.69,0,0,0,.48-.29,1.89,1.89,0,0,0-.32-.19l.21-.21.33.2a2.13,2.13,0,0,0,.25-.26l.29.22-.31.22s.23.17.38.31a1,1,0,0,0-.26.19h.82Zm-1.49-1.58a3.18,3.18,0,0,1,.33.24,1.61,1.61,0,0,0,.27-.29l.26.22a1.58,1.58,0,0,1-.3.24,2.85,2.85,0,0,1,.32.32,1.07,1.07,0,0,0-.23.2l-.3-.32a3.06,3.06,0,0,1-.4.3.58.58,0,0,0-.21-.22,1.34,1.34,0,0,0,.38-.26,1.48,1.48,0,0,0-.36-.24Zm.31,1.54a2.41,2.41,0,0,1-.36.29s.66,0,.66,0A2.8,2.8,0,0,0,233.54,116.77Z" style="fill: #404041"/>
        <path d="M236.82,117s.15-.46.32-1.16h-.47v3l0,.66h-.45l0-.66V116l0-.55h1.42c-.21.82-.45,1.52-.45,1.52a1.38,1.38,0,0,1,.4.88c0,.56-.28.67-.72.75a.83.83,0,0,0-.17-.47c.26,0,.5,0,.49-.33A1.07,1.07,0,0,0,236.82,117Zm1.36.38h1.57l.47,0v.4l-.44,0h-.36v1c0,.2.06.18.21.18.32,0,.32-.17.42-.54a.6.6,0,0,0,.38.22c-.1.52-.28.7-.67.7h-.33c-.43,0-.43-.14-.43-.44v-1.16h-.35a1.54,1.54,0,0,1-1.21,1.66.83.83,0,0,0-.29-.35c.79-.24,1.09-.48,1.09-1.31h-.11l-.38,0v-.4Zm-.49-1.23v-.39h1a3.35,3.35,0,0,0-.14-.47l.47-.09a3.8,3.8,0,0,1,.18.44,1.33,1.33,0,0,0-.44.12h1.51l0,.25v.19l0,.34h-.42v-.43h-1.8v.42h-.4Zm.75.48h1.45V117l-.43,0h-1l-.49,0v-.38Z" style="fill: #404041"/>
      </g>
      <g>
        <path d="M237.18,40.13a16.1,16.1,0,0,1-1.3,1.31l2,0s-.41-.47-.55-.59l.32-.22,1.14,1.16a2.36,2.36,0,0,1-.37.27s-.18-.22-.26-.3a24.89,24.89,0,0,0-2.9.21,1.3,1.3,0,0,0-.14-.43l.3-.13a5.08,5.08,0,0,0,1.21-1.44S237,40.07,237.18,40.13Zm-1.26,2.18H238l.4,0v1.86H238v-.27h-2.07v.32h-.44l0-.32V42.73l0-.44Zm0,.37v.83H238v-.83Z" style="fill: #404041"/>
        <path d="M240.67,44.11h-.39l0-.39V42.28a3,3,0,0,1-.42.86,1.74,1.74,0,0,0-.25-.31,3.12,3.12,0,0,0,.61-1.39h-.5V41.1l.35,0h.21V40.5l-.4.11a.75.75,0,0,0-.2-.3,6.93,6.93,0,0,0,1.23-.37l.24.37-.51.11v.7h.08l.37,0v.35h-.45V42l.23-.17c.16.2.42.58.42.58l-.3.24a4.38,4.38,0,0,0-.35-.52v2Zm1.3-.7.24.28c-.15.06-.55.28-1.06.48a.65.65,0,0,0-.18-.33,3.19,3.19,0,0,0,.94-.43h-.26l-.33,0,0-.44v-.87l0-.42.41,0H243l.43,0,0,.39V43l0,.41-.33,0h-.26a7.71,7.71,0,0,1,.89.46l-.26.32a5.25,5.25,0,0,0-1-.5l.2-.28Zm1.36-2.18h.36v.35l-.37,0h-1.75l-.35,0v-.35h1V41h-.54l-.29,0v-.35l.3,0h.53v-.12h-.95v-.34h.95l0-.36h.4l0,.36h1v.34h-1v.12h.58l.31,0v.35l-.32,0h-.57v.19Zm-1.63.8v.17H243V42Zm0,.47v.16H243V42.5Zm0,.45v.18H243V43Z" style="fill: #404041"/>
        <path d="M245.25,39.88l.49.2-.16.19a5.67,5.67,0,0,1,.67.45l-.24.38a2.58,2.58,0,0,0-.62-.56,6,6,0,0,1-.53.87h.42a2.85,2.85,0,0,0-.07-.44l.4-.09c0,.11.08.39.08.53h.52a1.84,1.84,0,0,0,0,.31v.83c0,.16,0,.36,0,.36h-1.09v.65l.63-.2-.15-.22.34-.17c.22.28.5.73.5.73l-.35.22a2.87,2.87,0,0,0-.16-.3L245,44a1.13,1.13,0,0,0-.19.14l-.26-.41c.05,0,.19-.1.21-.19v-2l-.17.22a1.23,1.23,0,0,0-.3-.41A3.29,3.29,0,0,0,245.25,39.88Zm-.14,2.1h.71v-.26h-.71Zm0,.59h.71v-.28h-.71Zm1.17-1.71V40.4h.9A3.53,3.53,0,0,0,247,40l.47-.06a3.1,3.1,0,0,1,.14.49h1s0,.16,0,.25v.24c0,.07,0,.27,0,.27h-.42v-.39h-1.58v.36h-.43S246.28,40.94,246.28,40.86Zm1.83,1.78h.29s0,.22,0,.3v.84c0,.12,0,.35,0,.35H248v-.3h-1.07v.35h-.4s0-.26,0-.39V41.54c0-.07,0-.39,0-.39l.42,0h.89l.36,0s0,.32,0,.4V42c0,.09,0,.34,0,.34h-1.27v.35Zm-1.17-1.14V42h.88V41.5Zm0,2H248V43h-1.07Z" style="fill: #404041"/>
      </g>
      <text transform="translate(111.02 225.13)" style="font-size: 4.6183295249938965px;fill: #404041;font-family: NotoSansMonoCJKtc-Bold-B5pc-H, Noto Sans Mono CJK TC;font-weight: 700">鴿子廣場</text>
      <text transform="translate(104.27 252.76)" style="font-size: 4.6183295249938965px;fill: #404041;font-family: NotoSansMonoCJKtc-Bold-B5pc-H, Noto Sans Mono CJK TC;font-weight: 700">教育館</text>
    </g>
  </g>
</svg>
