<svg xmlns="http://www.w3.org/2000/svg" width="430.97" height="1004.29" viewBox="0 0 430.97 1004.29">
  <defs>
    <style>
      .cls-1 {
        fill: #231815;
      }

      .cls-2 {
        fill: #fff;
      }
    </style>
  </defs>
  <g id="圖層_2" data-name="圖層 2">
    <g id="text">
      <g>
        <path d="M59,369.78H29.27a.76.76,0,0,1-.75-.91c.22-1.17.28-2.42.49-3.61a7,7,0,0,1,.45-1.63,2.84,2.84,0,0,0,.46-1.61c-.13-.8-.92-.7-1.54-.84s-1.09-.23-1.63-.32c-.75-.13-1.52-.22-2.27-.36a.8.8,0,0,0-.94.72,66.31,66.31,0,0,1-1.1,8,.76.76,0,0,1-.75.59H4.2a.8.8,0,0,0-.8.8V374a.8.8,0,0,0,.8.8H19.91a.77.77,0,0,1,.73,1Q16,388.45,1.74,396.68a.79.79,0,0,0-.3,1.09l2.34,4.11a.82.82,0,0,0,1.12.29,63.57,63.57,0,0,0,11.31-8.95.8.8,0,0,1,1.37.56V419a.79.79,0,0,0,.8.8H22a.8.8,0,0,0,.8-.8V407.59a.8.8,0,0,1,.8-.8H44.86a.8.8,0,0,1,.8.8v5.49a1.85,1.85,0,0,1-1.85,1.85H40.4a.79.79,0,0,0-.77,1l.89,3.39a.79.79,0,0,0,.77.59h4.62a5,5,0,0,0,5-5V383.46a2.66,2.66,0,0,0-2.65-2.66h-21a1.49,1.49,0,0,1-1.37-2.08,33.7,33.7,0,0,0,1.19-3.38.8.8,0,0,1,.76-.57H59a.8.8,0,0,0,.8-.8v-3.39A.8.8,0,0,0,59,369.78ZM45.66,401a.79.79,0,0,1-.8.8H23.63a.79.79,0,0,1-.8-.8v-4.17a.8.8,0,0,1,.8-.8H44.86a.8.8,0,0,1,.8.8Zm-.8-15.21a.8.8,0,0,1,.8.8v3.65a.8.8,0,0,1-.8.8H23.63a.8.8,0,0,1-.8-.8v-3.65a.8.8,0,0,1,.8-.8Z"/>
        <path d="M126.72,413.79a1.08,1.08,0,0,1-.34.84,1.24,1.24,0,0,1-.87.3h-7.12a1.25,1.25,0,0,1-.81-.34,1.22,1.22,0,0,1-.47-.8L114,401H98.56l-3.09,12.77a1.22,1.22,0,0,1-.47.8,1.24,1.24,0,0,1-.8.34H87.07a1.24,1.24,0,0,1-.87-.3,1.08,1.08,0,0,1-.34-.84.19.19,0,0,0,.07-.14v-.2l11-42.13q1.76-6.85,9.34-6.86t9.34,6.86l11,42.13a.17.17,0,0,1,.07.13ZM112.2,393.36l-4.83-20a2.7,2.7,0,0,0-.41-.84,1.09,1.09,0,0,0-1.34,0,2.73,2.73,0,0,0-.4.84l-4.84,20Z"/>
        <path d="M196.22,398a1.53,1.53,0,0,0,.13-2,57.72,57.72,0,0,0-6.52-7.12,1.54,1.54,0,0,0-2.17.08l-2.37,2.51a1.54,1.54,0,0,0,.05,2.16,61.45,61.45,0,0,1,6,6.92,1.54,1.54,0,0,0,2.35.12Z"/>
        <path d="M208,372.67h-15.7a.74.74,0,0,1-.69-1c.42-1.37.8-2.76,1.2-4.14.21-.73.42-1.45.65-2.18.17-.52.65-1.32.43-1.88s-.64-.44-1.05-.57l-2.94-1a1.55,1.55,0,0,0-2,1.22q-2.43,14.35-10.05,22.67a1.54,1.54,0,0,0-.07,2l1.88,2.26a1.54,1.54,0,0,0,2.39,0,42.66,42.66,0,0,0,6.81-11.48,1.53,1.53,0,0,1,1.43-1h12.56a1.55,1.55,0,0,1,1.54,1.61l-1.25,29.89c-.17,3.15-1.49,4.73-3.94,4.73h-5a1.54,1.54,0,0,0-1.52,1.78l.3,1.9a1.55,1.55,0,0,0,1.52,1.3h6q8.13,0,8.4-10.49l1.23-33.48A2.15,2.15,0,0,0,208,372.67Z"/>
        <path d="M175.09,372.67H168.2a.82.82,0,0,1-.74-1.17c.94-2.13,1.5-4.41,2.45-6.51.3-.64.63-1.43-.07-1.79a13.22,13.22,0,0,0-1.48-.56l-2.38-.89a1.55,1.55,0,0,0-2,1.13q-1,4.8-2.19,8.7a1.53,1.53,0,0,1-1.47,1.09h-4.15a1.54,1.54,0,0,0-1.54,1.54v40.57a1.54,1.54,0,0,0,1.54,1.54h2.17a1.54,1.54,0,0,0,1.54-1.54v-.41a1.54,1.54,0,0,1,1.54-1.54h8.47a1.54,1.54,0,0,1,1.54,1.54v.07a1.54,1.54,0,0,0,1.54,1.54h2.17a1.54,1.54,0,0,0,1.54-1.54V374.21A1.54,1.54,0,0,0,175.09,372.67Zm-3.71,33.63a1.54,1.54,0,0,1-1.54,1.54h-8.47a1.54,1.54,0,0,1-1.54-1.54V395.73a1.54,1.54,0,0,1,1.54-1.54h8.47a1.54,1.54,0,0,1,1.54,1.54Zm0-18.64a1.54,1.54,0,0,1-1.54,1.54h-8.47a1.54,1.54,0,0,1-1.54-1.54V379.2a1.54,1.54,0,0,1,1.54-1.55h8.47a1.54,1.54,0,0,1,1.54,1.55Z"/>
        <path d="M252.44,407.47q4.31,0,6.12-1.48a5.54,5.54,0,0,0,1.81-4.57,4.92,4.92,0,0,0-1.14-3.29,18.53,18.53,0,0,0-4.43-3.29l-8.87-5.31a21.47,21.47,0,0,1-4.78-3.73,11.39,11.39,0,0,1-2.45-4,14.3,14.3,0,0,1-.7-4.54,11.82,11.82,0,0,1,3.89-9.34q3.9-3.42,12.44-3.43a27,27,0,0,1,6.58.81,20,20,0,0,1,5,1.81,4.25,4.25,0,0,1,1.11.81,1.42,1.42,0,0,1,.37,1v4.57c0,1.07-.56,1.41-1.68,1a35.62,35.62,0,0,0-5.21-1.35,31.46,31.46,0,0,0-6.08-.67q-7,0-7,4.7a3.81,3.81,0,0,0,1.11,2.76,22.93,22.93,0,0,0,4.4,3.09l8.06,4.77a24.7,24.7,0,0,1,5.54,4.2,12.53,12.53,0,0,1,2.76,4.33,15.69,15.69,0,0,1,.77,5.11,14.39,14.39,0,0,1-1.68,6.86,12.64,12.64,0,0,1-5.54,5.17,21.79,21.79,0,0,1-10,2,27.64,27.64,0,0,1-7.59-1,25.56,25.56,0,0,1-4.77-1.71,7,7,0,0,1-1.21-.91,1.32,1.32,0,0,1-.27-.91v-4.57c0-1,.56-1.36,1.68-1A39.62,39.62,0,0,0,252.44,407.47Z"/>
        <path d="M319.91,371.59a1.05,1.05,0,0,1-.41.9,1.52,1.52,0,0,1-.94.31H306.8v40.78a1.26,1.26,0,0,1-.4,1,1.38,1.38,0,0,1-.94.37h-6.65a1.29,1.29,0,0,1-.94-.41,1.27,1.27,0,0,1-.41-.94V372.8H285.7a1.47,1.47,0,0,1-.94-.34,1.09,1.09,0,0,1-.4-.87v-5.31a1.23,1.23,0,0,1,.37-.91,1.3,1.3,0,0,1,1-.37h32.86a1.38,1.38,0,0,1,1,.34,1.21,1.21,0,0,1,.37.94Z"/>
        <path d="M365.4,413.11a1.29,1.29,0,0,1-1.34,1.41c-.45.05-1,.14-1.75.27a30.7,30.7,0,0,1-3.23.37c-1.43.11-2.6.19-3.49.24s-2.33.07-4.3.07a25.83,25.83,0,0,1-8.17-1.15,10.13,10.13,0,0,1-5.37-4.16q-2-3-2-8.47V378.24q0-5.39,2-8.43a10.06,10.06,0,0,1,5.37-4.2,25.55,25.55,0,0,1,8.17-1.15,79.07,79.07,0,0,1,12.77.94,2.06,2.06,0,0,1,1.07.41,1.42,1.42,0,0,1,.27,1v4.3a1.37,1.37,0,0,1-1.34,1.34H350.35c-2,0-3.35.41-4.13,1.24S345,376,345,378.24v7.26h18.21a1.37,1.37,0,0,1,1.34,1.34v4.84a1.24,1.24,0,0,1-.43.94,1.35,1.35,0,0,1-.91.4H345v8.67c0,2.2.39,3.71,1.18,4.54s2.16,1.24,4.13,1.24h13.71a1.27,1.27,0,0,1,1.34,1.34Z"/>
        <path d="M426.35,413.92c0,.67-.38,1-1.15,1h-6.78a1,1,0,0,1-.74-.41,1.38,1.38,0,0,1-.34-.94V382.34c0-.45-.06-.67-.2-.67s-.2.13-.34.4l-6.45,12.83a2.29,2.29,0,0,1-2.15,1.15h-6.78a2.21,2.21,0,0,1-2.15-1.15l-6.52-12.83c-.14-.27-.25-.4-.34-.4s-.2.22-.2.67v31.24a1.42,1.42,0,0,1-.33.94,1,1,0,0,1-.74.41h-6.79c-.76,0-1.14-.34-1.14-1V367.69a2.63,2.63,0,0,1,2.68-2.69h5.51a2.72,2.72,0,0,1,2.49,1.61L404,387.18c.31.62.56.94.74.94s.42-.32.74-.94l10.14-20.57a2.72,2.72,0,0,1,2.49-1.61h5.51a2.65,2.65,0,0,1,2.69,2.69Z"/>
        <path d="M29.69,492.29a43.15,43.15,0,0,1,6.93,4.42.94.94,0,0,0,1.37-.23l2.12-3.36a1,1,0,0,0-.25-1.27,50.48,50.48,0,0,0-7.45-4.39.93.93,0,0,0-1.18.37L29.3,491A.93.93,0,0,0,29.69,492.29Z"/>
        <path d="M31.25,477.82a62.38,62.38,0,0,1,7,4.28.93.93,0,0,0,1.32-.26l2.17-3.44a.93.93,0,0,0-.23-1.25A34.85,34.85,0,0,0,33.74,473a.94.94,0,0,0-1.17.41l-1.73,3.12A.94.94,0,0,0,31.25,477.82Z"/>
        <path d="M59.06,499.69a.93.93,0,0,0-1.11-.82l-6,1.16a.94.94,0,0,1-1.11-.92V469.32c0-.89,0-1.78,0-2.68a7.28,7.28,0,0,0,0-1.4c-.25-1.15-1.2-.95-2.1-.95H46.5a.93.93,0,0,0-.93.93v35.29a.94.94,0,0,1-.77.92l-18.28,3.13a.93.93,0,0,0-.77,1.05l.52,3.63a.93.93,0,0,0,1.11.78l17.07-3.51a.94.94,0,0,1,1.12.92v14.46a.93.93,0,0,0,.93.93h3.39a.93.93,0,0,0,.93-.93V506.27a.92.92,0,0,1,.77-.91l7-1.29a.93.93,0,0,0,.76-1Z"/>
        <path d="M27.08,495.28a89.15,89.15,0,0,0-9.13-6,.94.94,0,0,1-.46-.8v-3.26a.93.93,0,0,1,.93-.94h8.63a.93.93,0,0,0,.94-.93v-3.12a.93.93,0,0,0-.94-.93H18.42a.93.93,0,0,1-.93-.94v-7.2a.93.93,0,0,1,.77-.92c1.38-.24,2.77-.5,4.14-.81,1-.24,2.09-.45,3.1-.74,1.48-.43.14-1.64-.24-2.36l-1.12-2.11a.92.92,0,0,0-1.08-.45,119.66,119.66,0,0,1-20,4.12.94.94,0,0,0-.8,1.12l.64,2.89a.94.94,0,0,0,1,.73q3.37-.43,7.26-1a.94.94,0,0,1,1.09.92v5.85a.94.94,0,0,1-.94.94H2.67a.92.92,0,0,0-.93.93v3.12a.92.92,0,0,0,.93.93h8.41a.94.94,0,0,1,.9,1.18q-2,8-11.71,17.87a.93.93,0,0,0,0,1.29l2.63,2.8a.93.93,0,0,0,1.38,0,55.89,55.89,0,0,0,7.09-9.89.47.47,0,0,1,.89.23v24.19a.93.93,0,0,0,.93.93h3.38a.94.94,0,0,0,.94-.93v-27a.48.48,0,0,1,.77-.38,34.9,34.9,0,0,1,5.5,5.41.92.92,0,0,0,1.52-.11l2-3.36A.93.93,0,0,0,27.08,495.28Z"/>
        <path d="M152.84,516.27a50.11,50.11,0,0,1-14.13-6.33.82.82,0,0,1-.17-1.21,43.59,43.59,0,0,0,6.78-12.93c.37-1.06.78-2.1,1.17-3.15.24-.66,1.08-2.12.7-2.79a1.81,1.81,0,0,0-.53-.5,6.47,6.47,0,0,0-2.34-1.25c-1.08-.2-2.11.6-3.2.59h-5.47a.84.84,0,0,1-.83-.84v-8.3a.84.84,0,0,1,.83-.84h14.61a.83.83,0,0,0,.83-.83v-3.32a.84.84,0,0,0-.83-.84H135.65a.83.83,0,0,1-.83-.83v-7.06c0-.61,0-1.29,0-1.91,0-.45,0-.84-.88-1l-3.41-.39a.84.84,0,0,0-.92.84v9.52a.84.84,0,0,1-.84.83H117.28a.85.85,0,0,0-.84.84v3.32a.84.84,0,0,0,.84.83h11.45a.85.85,0,0,1,.84.84v8.3a.85.85,0,0,1-.84.84h-10.4a.84.84,0,0,0-.84.83v3.32a.84.84,0,0,0,.84.83h3.24a.83.83,0,0,1,.8.64A41.4,41.4,0,0,0,129.06,509a.82.82,0,0,1-.14,1.16q-5.34,4-16,6.87a.83.83,0,0,0-.57,1.1l1.75,4.47a.83.83,0,0,0,1,.5q11.64-3.27,18.45-8.83a.83.83,0,0,1,1,0,51.25,51.25,0,0,0,16,8.31.85.85,0,0,0,1-.51l1.77-4.73A.84.84,0,0,0,152.84,516.27Zm-18.42-11.13a.84.84,0,0,1-1.34,0,35.78,35.78,0,0,1-5.26-10.38.84.84,0,0,1,.8-1.1h10.29a.84.84,0,0,1,.8,1.1A39.43,39.43,0,0,1,134.42,505.14Z"/>
        <path d="M115.5,494.32l-.69-3.11a.84.84,0,0,0-1.11-.6l-5.58,2.12A.84.84,0,0,1,107,492V480.34a.84.84,0,0,1,.84-.83h5.68a.83.83,0,0,0,.83-.84v-3.31a.84.84,0,0,0-.83-.84h-5.68a.84.84,0,0,1-.84-.83s0-7.39,0-9.28a1.19,1.19,0,0,0-.87-1.23c-.43-.07-.88-.1-1.32-.14l-2.17-.23a.84.84,0,0,0-.93.83v10.05a.83.83,0,0,1-.83.83H94.44a.84.84,0,0,0-.83.84v3.31a.83.83,0,0,0,.83.84h6.47a.83.83,0,0,1,.83.83V494.1a.83.83,0,0,1-.61.8l-8,2.22a.83.83,0,0,0-.56,1.09l1,2.73c.18.48.35,1,.53,1.45s.16.57.55.72a1,1,0,0,0,.71,0c.46-.16.56-.19,1-.38l4.19-1.71a.83.83,0,0,1,1.15.77v13.67a1.89,1.89,0,0,1-1.88,1.89H97.23a.83.83,0,0,0-.82,1l.75,4.11a.83.83,0,0,0,.82.68h4a5,5,0,0,0,5-5V499.22a.83.83,0,0,1,.51-.76l7.52-3.19A.83.83,0,0,0,115.5,494.32Z"/>
        <rect x="194.4" y="504.18" width="40.16" height="3.15" rx="0.46"/>
        <path d="M244.4,493l-2-1.57a.41.41,0,0,0-.65.22l-.64,2.54c-.35,1.57-.78,2.36-1.31,2.36q-1.58,0-1.84-10.5l-.24-7.21a.41.41,0,0,0-.41-.4h-7.86a.41.41,0,0,1-.41-.41s0-3.53,0-4.1-.87-.48-1.65-.48h-2.31v-2a.41.41,0,0,1,.41-.41h17a.41.41,0,0,0,.41-.41v-3.38a.41.41,0,0,0-.41-.41h-17a.41.41,0,0,1-.41-.42c0-.65,0-1.3,0-1.95a12.82,12.82,0,0,0,0-1.52c0-.58-.33-.57-.72-.57h-3.35a.41.41,0,0,0-.41.41v3.64a.41.41,0,0,1-.41.41H208.46a.41.41,0,0,1-.41-.41V465c0-.48,0-1,0-1.47,0-.29.12-.83-.21-1a.86.86,0,0,0-.42-.06H204a.41.41,0,0,0-.41.41v3.64a.41.41,0,0,1-.41.41h-17a.41.41,0,0,0-.41.41v3.38a.41.41,0,0,0,.41.41h17a.41.41,0,0,1,.41.41v1.69h-3.45a.49.49,0,0,0-.49.49v2.13H189.56a.42.42,0,0,0-.41.41v2.33a.41.41,0,0,0,.41.41h9.68a.41.41,0,0,1,.41.41v1.81a.41.41,0,0,1-.41.41H186.41a.41.41,0,0,0-.41.41v2.33a.41.41,0,0,0,.41.41h8.23a.41.41,0,0,1,.38.57q-1.26,3.21-9.15,3.12a.41.41,0,0,0-.39.57l.94,2.06a.41.41,0,0,0,.38.24q10.74-.07,12-6.23a.41.41,0,0,1,.4-.33h6.08a.41.41,0,0,1,.41.41v2.21c0,1.41.79,2.1,2.36,2.1h5.78a2.43,2.43,0,0,0,2.62-1.83l.35-1a.42.42,0,0,0-.39-.54h-2.75a.39.39,0,0,0-.38.36,1.32,1.32,0,0,1-1,1.22h-1.84c-.7,0-1-.27-1-.79v-1.69a.41.41,0,0,1,.41-.41H216a.41.41,0,0,0,.41-.41V482a.41.41,0,0,0-.41-.41H204.52a.41.41,0,0,1-.41-.41v-1.81a.42.42,0,0,1,.41-.41h9.16a.41.41,0,0,0,.41-.41v-2.33a.42.42,0,0,0-.41-.41h-9.57v-1.57h3.53a.41.41,0,0,0,.41-.41v-2.33a.41.41,0,0,1,.41-.41h11.78a.41.41,0,0,1,.41.41v2.33a.41.41,0,0,0,.41.41h3.53v3.79a.41.41,0,0,1-.41.41h-5.74a.41.41,0,0,0-.41.41v3.38a.41.41,0,0,0,.41.41h5.74a.42.42,0,0,1,.41.42,32.54,32.54,0,0,1-.34,5.46.41.41,0,0,1-.66.24,15.7,15.7,0,0,0-3.61-2.27.42.42,0,0,0-.55.2l-1,2.2a.39.39,0,0,0,.14.5,42.31,42.31,0,0,1,4.16,3.24.44.44,0,0,1,.09.56,12,12,0,0,1-6.35,5.29.42.42,0,0,1-.55-.4v-.83a.41.41,0,0,0-.43-.41l-10.94.73a.41.41,0,0,1-.44-.41v-1.77a.41.41,0,0,1,.41-.41h8.63a.41.41,0,0,0,.41-.41v-2.33a.41.41,0,0,0-.41-.41h-8.63a.41.41,0,0,1-.41-.41v-1.7c0-.38,0-.76,0-1.13,0-.67-.13-1-.83-1H200.1a.45.45,0,0,0-.45.45v3.34a.41.41,0,0,1-.41.41h-9.42a.41.41,0,0,0-.41.41v2.33a.42.42,0,0,0,.41.41h9.42a.41.41,0,0,1,.41.41v2.08a.41.41,0,0,1-.39.41l-13.27.49a.41.41,0,0,0-.38.51,13.92,13.92,0,0,0,.68,2.59c.62,1.3,1.39.83,2.56,1l0-.1L215.46,500a.41.41,0,0,1,.34.14l2.23,2.47a19.78,19.78,0,0,0,8.14-6.93.4.4,0,0,1,.62-.08,30.09,30.09,0,0,1,3.71,4.11.41.41,0,0,0,.69-.06l1.66-3.32a.43.43,0,0,0-.1-.5c-1.59-1.42-3.11-2.69-4.55-3.83a.38.38,0,0,1-.13-.4,32.39,32.39,0,0,0,1-8.53.41.41,0,0,1,.41-.41h3.39a.4.4,0,0,1,.41.39l.25,7q.53,12.6,6,12.6,3.15,0,4.72-4.73l.84-2.51A2.12,2.12,0,0,0,244.4,493Z"/>
        <path d="M244.08,510h-59.2a.45.45,0,0,0-.45.45v2.24a.46.46,0,0,0,.45.46h16.83a.46.46,0,0,1,.39.7l-2.58,4.08a.44.44,0,0,1-.38.21l-10.11.24a.46.46,0,0,0-.41.63c.37.88.6,1.86,1.06,2.72.67,1.24,1.73,1.35,3,1.31,7.23-.26,14.47-.92,21.69-1.4l16.37-1.07,1.07-.07a.52.52,0,0,1,.21,0,17.64,17.64,0,0,1,4.86,3.11.44.44,0,0,0,.58,0l3.41-2.77a.46.46,0,0,0-.06-.74A95.68,95.68,0,0,0,229.28,514a.45.45,0,0,1,.18-.86h14.62a.47.47,0,0,0,.46-.46v-2.24A.46.46,0,0,0,244.08,510Zm-19.66,7.42-18.84.68a.46.46,0,0,1-.38-.73l3-4a.45.45,0,0,1,.36-.18h13.68l-.64.55a1,1,0,0,0,.25,1.65l2.75,1.2A.45.45,0,0,1,224.42,517.38Z"/>
        <path d="M295.76,466.65a.81.81,0,0,0,0-.41l-.11-.12h0s0,0,0,0l-3.4-2.41a.71.71,0,0,0-1,.24,37.31,37.31,0,0,1-11.94,12.86.69.69,0,0,0-.21.93l2.14,3.5a.72.72,0,0,0,1,.2,57.28,57.28,0,0,0,10.32-9.84c.52-.66,1-1.34,1.51-2,.33-.47.68-.93,1-1.42A4.22,4.22,0,0,0,295.76,466.65Z"/>
        <path d="M314.21,475.13a.7.7,0,0,0,1,.2l3.1-2.53a.7.7,0,0,0,.16-.9,21.9,21.9,0,0,0-3.46-4.59.68.68,0,0,0-.9,0l-2.71,2.13a.69.69,0,0,0-.16.91Q312.74,472.65,314.21,475.13Z"/>
        <rect x="320.13" y="466.65" width="14.7" height="4.99" rx="0.69"/>
        <path d="M294.78,478.85c.11-.29.05-.45-.25-.62l-.66-.37-1.79-1-.68-.38a.69.69,0,0,0-1,.33q-4.8,10.74-12.38,16.8a.68.68,0,0,0-.19.85l2,3.92a.71.71,0,0,0,1.1.2q1.69-1.59,3.11-3.07a.69.69,0,0,1,1.19.48v25.88a.7.7,0,0,0,.7.7h3.86a.69.69,0,0,0,.69-.7V487.57a.74.74,0,0,1,.1-.35,63.93,63.93,0,0,0,3.67-7.06C294.37,479.85,294.62,479.27,294.78,478.85Z"/>
        <path d="M336.5,482.92H319.78a.7.7,0,0,0-.7.7v3.59a.7.7,0,0,0,.7.7h4.91a.69.69,0,0,1,.69.69v27.22a1.49,1.49,0,0,1-1.48,1.49h-3.44a.69.69,0,0,0-.68.84l.76,3.59a.7.7,0,0,0,.68.55h4.25a5.15,5.15,0,0,0,5.16-5.15V488.6a.69.69,0,0,1,.7-.69h5.17a.69.69,0,0,0,.69-.7v-3.59A.69.69,0,0,0,336.5,482.92Z"/>
        <path d="M301.43,490.49l0,0-.06-.11,0,0-.17-.18-.08-.08L301,490h0l-.05,0-.07-.05-3.32-.55a.68.68,0,0,0-.8.66,76.1,76.1,0,0,1-3.46,19.58.7.7,0,0,0,.42.86l3.69,1.36a.71.71,0,0,0,.91-.45,60.71,60.71,0,0,0,3.19-19.43.8.8,0,0,1,.05-.21h0A6.08,6.08,0,0,0,301.43,490.49Z"/>
        <path d="M317.13,489.8a.69.69,0,0,0-.75-.51l-3.29.36a.7.7,0,0,0-.59.89,65.42,65.42,0,0,1,2.36,16.57.69.69,0,0,0,.76.67l3.57-.38a.69.69,0,0,0,.62-.75A100.53,100.53,0,0,0,317.13,489.8Z"/>
        <path d="M317.86,477.41h-7.53a.7.7,0,0,1-.7-.7v-10.5c0-.08,0-.62,0-.69,0-.38.06-.78-.11-1a.67.67,0,0,0-.64-.25h-3.81a.69.69,0,0,0-.7.69v11.73a.69.69,0,0,1-.69.7h-6.75a.69.69,0,0,0-.69.69v3.6a.69.69,0,0,0,.69.7h6.75a.69.69,0,0,1,.69.69v36.67a.7.7,0,0,0,.7.7h3.86a.69.69,0,0,0,.69-.7V483.09a.69.69,0,0,1,.7-.69h7.53a.7.7,0,0,0,.7-.7v-3.6A.69.69,0,0,0,317.86,477.41Z"/>
        <path d="M398.05,469.27H383.62a1.08,1.08,0,0,1-1-1.45s.64-1.72,1-2.55a1,1,0,0,0,.06-.89c-.17-.35-.54-.37-1.07-.5l-2.64-.66a1.1,1.1,0,0,0-1.3.72,41.43,41.43,0,0,1-8.68,15.36,1.08,1.08,0,0,0,0,1.49l2.21,2.37a1.1,1.1,0,0,0,1.59,0,39.31,39.31,0,0,0,6-8.51.77.77,0,0,1,.66-.39h4.5a.77.77,0,0,1,.73.55l1.4,5a1.08,1.08,0,0,0,1.29.76l3.17-.75a1.1,1.1,0,0,0,.72-1.55l-1.72-3.42a.42.42,0,0,1,.37-.6h7.17a1.09,1.09,0,0,0,1.09-1.09v-2.81A1.09,1.09,0,0,0,398.05,469.27Z"/>
        <path d="M423.78,482.92H403.9a1.08,1.08,0,0,0-1.08,1.09v37.72a1.08,1.08,0,0,0,1.08,1.09H407a1.08,1.08,0,0,0,1.08-1.09V488.42a.51.51,0,0,1,.51-.51h10.54a.5.5,0,0,1,.5.51v20.19a2.13,2.13,0,0,1-2.13,2.14h-2.3a1.08,1.08,0,0,0-1.06,1.31l.59,2.81a1.08,1.08,0,0,0,1.06.86h4.33a4.76,4.76,0,0,0,4.76-4.76V484A1.08,1.08,0,0,0,423.78,482.92Z"/>
        <path d="M427.71,469.27H409.54a1.08,1.08,0,0,1-1-1.41l.68-2.18.21-.73c.16-.59.39-1.3-.37-1.51l-.78-.23-1.94-.55-.57-.16a1.09,1.09,0,0,0-1.35.79,46,46,0,0,1-6.58,15.24,1.09,1.09,0,0,0,.09,1.36l2.18,2.34a1.1,1.1,0,0,0,1.69-.12,35.52,35.52,0,0,0,4.28-7.37.74.74,0,0,1,.7-.48h3.19a.75.75,0,0,1,.69.44l2.3,5a1.09,1.09,0,0,0,1.27.6l3.44-.94a1.08,1.08,0,0,0,.61-1.65l-1.88-2.83a.41.41,0,0,1,.34-.64h11a1.09,1.09,0,0,0,1.09-1.09v-2.81A1.09,1.09,0,0,0,427.71,469.27Z"/>
        <path d="M400.11,515.35a59.25,59.25,0,0,0-7.68-9.24,1.1,1.1,0,0,0-1.37-.13l-2.15,1.43a1.08,1.08,0,0,0-.19,1.64l.94,1a1.08,1.08,0,0,1-.61,1.8l-7,1.26a1.08,1.08,0,0,1-1.27-1.07V505a1.08,1.08,0,0,1,1.08-1.09h14.37a1.08,1.08,0,0,0,1.08-1.09V484a1.08,1.08,0,0,0-1.08-1.09H377.39A1.09,1.09,0,0,0,376.3,484v29.16a1.08,1.08,0,0,1-1,1.08l-3.12.3a1.08,1.08,0,0,0-.91,1.46l.69,1.83.49,1.31c.13.36.22.81.59,1a2.68,2.68,0,0,0,2,0c1.68-.45,3.4-.78,5.09-1.18s3.53-.84,5.29-1.29c2.41-.61,4.81-1.27,7.19-2a1.07,1.07,0,0,1,1.21.44l1.58,2.36a1.07,1.07,0,0,0,1.5.3l2.92-1.94A1.08,1.08,0,0,0,400.11,515.35Zm-19.34-27.66a.57.57,0,0,1,.57-.57h10.93a.57.57,0,0,1,.57.57v3.06a.56.56,0,0,1-.57.57H381.34a.56.56,0,0,1-.57-.57Zm0,8.4a.57.57,0,0,1,.57-.57h10.93a.57.57,0,0,1,.57.57v3.06a.56.56,0,0,1-.57.57H381.34a.56.56,0,0,1-.57-.57Z"/>
      </g>
      <g>
        <path d="M414.94,183.12a20.41,20.41,0,0,1-4.54-5c-.2-.29-1.73-2.67-2.75-4.28l14-7.1a1.7,1.7,0,0,0,.76-2.45h0a2.16,2.16,0,0,0-2.75-.67l-13.56,6.9a51.74,51.74,0,0,0-3.64-7.5c-.3-.52-2.11-3.47-3.67-6-.68-1.1-1.23-2-1.69-2.71H420c3.81,0,6.9-2.77,6.9-6.17V140.7c0-3.41-3.09-6.17-6.9-6.17H399.37l5.7-4.17a3.59,3.59,0,0,0,1.38-4.31,4.11,4.11,0,0,0-3.85-2.35H375.21a4.44,4.44,0,0,0-2.53.77l-5.45,3.76a1.67,1.67,0,0,0-.37,2.52h0a2.19,2.19,0,0,0,2.83.33l5.52-3.79H402.6a.09.09,0,0,1,.11.07c0,.07,0,.08,0,.12l-9.43,6.88-.2.17H367.2c-3.81,0-6.9,2.76-6.9,6.17v7.46c0,3.4,3.09,6.17,6.9,6.17h19c-7.73,3.83-17.84,8.87-22.4,11.13a1.7,1.7,0,0,0-.78,2.44h0a2.15,2.15,0,0,0,2.74.7c19.32-9.58,24.37-12.11,27.18-13.51,1,1.61,2.66,4.26,4,6.38l-28.39,14.41a1.69,1.69,0,0,0-.75,2.44h0a2.15,2.15,0,0,0,2.74.67l28.32-14.37h0a46.46,46.46,0,0,1,3.67,7.7l-27.76,14.06a1.7,1.7,0,0,0-.75,2.45h0a2.14,2.14,0,0,0,2.74.67L403.46,176h0c1.88,10-6,17.81-14.9,21.52a1.73,1.73,0,0,0-1,2.28h0a2.1,2.1,0,0,0,2.7,1c8.68-3.59,16.44-10.64,17.44-19.8a21.91,21.91,0,0,0,4.73,4.94A14.37,14.37,0,0,0,421,188.6a19.57,19.57,0,0,0,9-2.33,1.69,1.69,0,0,0,.58-2.64h0a2.14,2.14,0,0,0-2.61-.46C424,185.26,418.86,186,414.94,183.12Zm7.94-42.42v7.46a2.74,2.74,0,0,1-2.88,2.57H395.74V138.12H420A2.75,2.75,0,0,1,422.88,140.7Zm-58.56,7.46V140.7a2.75,2.75,0,0,1,2.88-2.58h24.52v12.61H367.2A2.74,2.74,0,0,1,364.32,148.16Z"/>
        <g>
          <path d="M281.73,259a6.55,6.55,0,0,0-6.46-6.44h-16.4a1.93,1.93,0,0,0-1.91,1.93h0a1.93,1.93,0,0,0,1.91,1.94h16.4a2.68,2.68,0,0,1,2.64,2.64l0,.72a60.83,60.83,0,0,1-1,14.75,26.93,26.93,0,0,1-2.61,7.65,19.62,19.62,0,0,1-15.58,9.85A1.92,1.92,0,0,0,257,294h0a1.92,1.92,0,0,0,2,1.94,23.46,23.46,0,0,0,18.64-11.85,30.51,30.51,0,0,0,3-8.75,64.31,64.31,0,0,0,1.09-15.57Z"/>
          <path d="M258.87,241.89h20.65a1.93,1.93,0,0,0,1.91-1.93h0a1.93,1.93,0,0,0-1.91-1.94H258.87A1.93,1.93,0,0,0,257,240h0A1.93,1.93,0,0,0,258.87,241.89Z"/>
          <path d="M325.62,232.31a1.92,1.92,0,0,0,1.91-1.93h0a1.92,1.92,0,0,0-1.91-1.93H309.88v-1.33a1.93,1.93,0,0,0-1.91-1.94h0a1.93,1.93,0,0,0-1.91,1.94v1.33H291.3a1.92,1.92,0,0,0-1.91,1.93h0a1.92,1.92,0,0,0,1.91,1.93h14.76v7.87H291.3a1.93,1.93,0,0,0-1.91,1.94h0a1.92,1.92,0,0,0,1.91,1.93h14.76v7.87H291.3a1.93,1.93,0,0,0-1.91,1.94h0a1.93,1.93,0,0,0,1.91,1.93h34.32a1.93,1.93,0,0,0,1.91-1.93h0a1.93,1.93,0,0,0-1.91-1.94H309.88v-7.87h15.74a1.92,1.92,0,0,0,1.91-1.93h0a1.93,1.93,0,0,0-1.91-1.94H309.88v-7.87Z"/>
          <path d="M320.27,260.18H296.94a6.5,6.5,0,0,0-6.46,6.55v30.82a1.91,1.91,0,0,0,1.91,1.93h0a1.91,1.91,0,0,0,1.9-1.93V285h28.52c-.28,5.19-1.38,8.58-5.73,10.49a2,2,0,0,0-1.06,2.34A1.9,1.9,0,0,0,318.6,299c8.07-3.54,8.1-11.16,8.13-18.53V266.73A6.5,6.5,0,0,0,320.27,260.18Zm2.65,20.14v.17c0,.22,0,.43,0,.64H294.29v-6.55h28.63Zm0-9.6H294.29v-4a2.67,2.67,0,0,1,2.65-2.68h23.33a2.67,2.67,0,0,1,2.65,2.68Z"/>
        </g>
        <g>
          <path d="M361.82,234.71h14.82v3.74a1.94,1.94,0,0,0,3.88,0v-3.74h24.7v3.74a1.94,1.94,0,0,0,3.88,0v-3.74h14.57a1.94,1.94,0,1,0,0-3.87H409.1V227.1a1.94,1.94,0,1,0-3.88,0v3.74h-24.7V227.1a1.94,1.94,0,1,0-3.88,0v3.74H361.82a1.94,1.94,0,1,0,0,3.87Z"/>
          <path d="M410.34,247.25h13.33a1.94,1.94,0,0,0,0-3.88H361.82a1.94,1.94,0,0,0,0,3.88h13.59a1.23,1.23,0,0,1,1.23,1.24v8.16a1.24,1.24,0,0,1-1.23,1.24H361.82a1.94,1.94,0,1,0,0,3.87h13.59a1.24,1.24,0,0,1,1.23,1.24v8.17a1.23,1.23,0,0,1-1.23,1.23H361.82a1.94,1.94,0,0,0,0,3.88H389.7a1.23,1.23,0,0,1,1.23,1.23v3.77a1.23,1.23,0,0,1-1.23,1.23H361.82a1.94,1.94,0,0,0,0,3.88H389.7a1.23,1.23,0,0,1,1.23,1.24v10.28a1.94,1.94,0,0,0,3.88,0V287.63a1.23,1.23,0,0,1,1.24-1.24h27.62a1.94,1.94,0,0,0,0-3.88H396.05a1.23,1.23,0,0,1-1.24-1.23v-3.77a1.23,1.23,0,0,1,1.24-1.23h27.62a1.94,1.94,0,0,0,0-3.88H410.34a1.23,1.23,0,0,1-1.24-1.23V263a1.24,1.24,0,0,1,1.24-1.24h13.33a1.94,1.94,0,1,0,0-3.87H410.34a1.24,1.24,0,0,1-1.24-1.24v-8.16A1.23,1.23,0,0,1,410.34,247.25Zm-19.41,23.92a1.23,1.23,0,0,1-1.23,1.23h-7.95a1.23,1.23,0,0,1-1.23-1.23V263a1.24,1.24,0,0,1,1.23-1.24h7.95a1.24,1.24,0,0,1,1.23,1.24Zm0-14.52a1.24,1.24,0,0,1-1.23,1.24h-7.95a1.24,1.24,0,0,1-1.23-1.24v-8.16a1.23,1.23,0,0,1,1.23-1.24h7.95a1.23,1.23,0,0,1,1.23,1.24Zm14.29,14.52A1.23,1.23,0,0,1,404,272.4h-7.94a1.23,1.23,0,0,1-1.24-1.23V263a1.24,1.24,0,0,1,1.24-1.24H404a1.24,1.24,0,0,1,1.23,1.24Zm0-14.52a1.24,1.24,0,0,1-1.23,1.24h-7.94a1.24,1.24,0,0,1-1.24-1.24v-8.16a1.23,1.23,0,0,1,1.24-1.24H404a1.23,1.23,0,0,1,1.23,1.24Z"/>
        </g>
        <g>
          <path d="M285.42,128l-22.38.1a6.41,6.41,0,0,0-6.35,6.3l0,1.61c-.23,17.18-.45,33.4,16.95,40.38a32.37,32.37,0,0,0,11.76,2.17,1.9,1.9,0,1,0,.08-3.79A28.45,28.45,0,0,1,275,172.87c-9.19-3.69-12.67-10.48-13.94-19h24.33a1.9,1.9,0,0,0,1.89-1.9h0a1.89,1.89,0,0,0-1.89-1.89H260.67c-.34-4.38-.28-9.11-.22-14l0-1.62a2.6,2.6,0,0,1,2.58-2.55l22.39-.1a1.9,1.9,0,0,0,1.88-1.91h0A1.89,1.89,0,0,0,285.42,128Z"/>
          <path d="M330.12,134.81l0-1.91a6.29,6.29,0,0,0-6.36-6.06H303.16a6.27,6.27,0,0,0-6.37,6.16v62.9a1.86,1.86,0,0,0,1.9,1.83h0a1.85,1.85,0,0,0,1.89-1.83V133a2.54,2.54,0,0,1,2.58-2.5h20.56A2.55,2.55,0,0,1,326.3,133l0,1.92c.3,16.08.6,32.69-16.59,39.32a1.81,1.81,0,0,0-1.09,2.28h0a1.92,1.92,0,0,0,2.49,1.12C330.77,170.07,330.42,151.37,330.12,134.81Z"/>
        </g>
      </g>
      <g>
        <path d="M276.73,585.59a.34.34,0,0,1-.14.3.48.48,0,0,1-.31.1h-4v13.74a.42.42,0,0,1-.14.33.45.45,0,0,1-.32.12h-2.24a.42.42,0,0,1-.31-.13.45.45,0,0,1-.14-.32V586h-4a.44.44,0,0,1-.31-.11.33.33,0,0,1-.14-.29V583.8a.45.45,0,0,1,.12-.31.48.48,0,0,1,.33-.12h11.07a.52.52,0,0,1,.33.11.42.42,0,0,1,.12.32Z"/>
        <path d="M290.31,597.92a2.42,2.42,0,0,0,1.38-.27.87.87,0,0,0,.34-.73.94.94,0,0,0-.22-.64,3.19,3.19,0,0,0-.78-.6l-3.1-1.9a4.18,4.18,0,0,1-1.39-1.35,3.21,3.21,0,0,1-.51-1.77q0-3.4,4.3-3.4a9.82,9.82,0,0,1,4,.75.77.77,0,0,1,.36.22.57.57,0,0,1,.12.37V590q0,.49-.48.36a12.17,12.17,0,0,0-3.64-.63,3,3,0,0,0-1.25.19.67.67,0,0,0-.38.64.77.77,0,0,0,.1.42,1,1,0,0,0,.28.3l.52.32,3,1.81a4.76,4.76,0,0,1,1.73,1.59,3.47,3.47,0,0,1,.44,1.7,3.62,3.62,0,0,1-.5,1.92,3.26,3.26,0,0,1-1.5,1.3,5.76,5.76,0,0,1-2.43.46,10,10,0,0,1-4-.74,1.06,1.06,0,0,1-.38-.26.56.56,0,0,1-.09-.33v-1.38c0-.33.16-.45.47-.36A12.25,12.25,0,0,0,290.31,597.92Z"/>
        <path d="M308.25,585.27a.42.42,0,0,1-.13.33.47.47,0,0,1-.32.12h-2.19a.5.5,0,0,1-.33-.12.4.4,0,0,1-.15-.33v-2a.42.42,0,0,1,.15-.32.46.46,0,0,1,.33-.13h2.19a.44.44,0,0,1,.45.45Zm-.06,14.44a.51.51,0,0,1-.13.34.42.42,0,0,1-.33.13h-2.08a.44.44,0,0,1-.33-.14.52.52,0,0,1-.12-.33V587.87a.45.45,0,0,1,.12-.31.44.44,0,0,1,.33-.14h2.08a.45.45,0,0,1,.33.12.49.49,0,0,1,.13.33Z"/>
        <path d="M329.16,599.71a.48.48,0,0,1-.13.33.45.45,0,0,1-.32.14h-2.08a.42.42,0,0,1-.33-.14.52.52,0,0,1-.12-.33v-7.47a4,4,0,0,0-.21-1.43,1.37,1.37,0,0,0-.7-.76,3,3,0,0,0-1.36-.25,10.4,10.4,0,0,0-2.21.25v9.66a.51.51,0,0,1-.13.34.42.42,0,0,1-.33.13h-2.08a.45.45,0,0,1-.33-.14.52.52,0,0,1-.12-.33V588.39q0-.33.45-.45a18.6,18.6,0,0,1,2.43-.5,17.69,17.69,0,0,1,2.41-.18,5.54,5.54,0,0,1,3.92,1.18,5,5,0,0,1,1.24,3.78Z"/>
        <path d="M344.66,602.31a4.27,4.27,0,0,0,1.37-.17,1,1,0,0,0,.63-.59,4,4,0,0,0,.15-1.25v-.18l-1.07.14a10.51,10.51,0,0,1-1.1.1,6.07,6.07,0,0,1-3-.67,4.33,4.33,0,0,1-1.8-2,7.12,7.12,0,0,1-.6-3.05v-1.74a7.11,7.11,0,0,1,.6-3,4.28,4.28,0,0,1,1.8-2,6.07,6.07,0,0,1,3-.68c.41,0,.8,0,1.19,0s.73.06,1,.1.71.1,1.22.2.88.18,1.11.24a1.07,1.07,0,0,1,.49.22.54.54,0,0,1,.12.39v11.68a5.42,5.42,0,0,1-.55,2.6,3.27,3.27,0,0,1-1.71,1.49,7.54,7.54,0,0,1-2.88.48,9.24,9.24,0,0,1-2.28-.28,10.81,10.81,0,0,1-1.88-.63,1.35,1.35,0,0,1-.26-.15.58.58,0,0,1-.17-.19.55.55,0,0,1,0-.24v-1.16c0-.33.15-.45.47-.36.6.15,1.29.29,2.06.42A12.67,12.67,0,0,0,344.66,602.31Zm2.15-4.57v-7.83c-.28-.06-.61-.11-1-.15s-.76,0-1.2,0a2.06,2.06,0,0,0-1.9.84,4.58,4.58,0,0,0-.52,2.39v1.74a7.3,7.3,0,0,0,.11,1.29,3.07,3.07,0,0,0,.39,1,1.8,1.8,0,0,0,.74.68,2.61,2.61,0,0,0,1.18.24c.26,0,.6,0,1-.06S346.5,597.78,346.81,597.74Z"/>
        <path d="M386.73,599.73a.42.42,0,0,1-.13.33.47.47,0,0,1-.32.12H384a.47.47,0,0,1-.31-.13.45.45,0,0,1-.14-.32v-6.92h-6.43v6.92a.42.42,0,0,1-.15.32.43.43,0,0,1-.3.13h-2.24a.45.45,0,0,1-.31-.13.41.41,0,0,1-.14-.32V583.8a.42.42,0,0,1,.13-.31.47.47,0,0,1,.32-.12h2.24a.49.49,0,0,1,.32.12.42.42,0,0,1,.13.31v6.25h6.43V583.8a.42.42,0,0,1,.13-.31.47.47,0,0,1,.32-.12h2.24a.49.49,0,0,1,.33.11.42.42,0,0,1,.12.32Z"/>
        <path d="M397.37,587.9a.5.5,0,0,1,.12-.33.43.43,0,0,1,.33-.15h2.08a.42.42,0,0,1,.33.14.49.49,0,0,1,.13.34v7.46a4.42,4.42,0,0,0,.11,1.11,1.8,1.8,0,0,0,.37.76,1.55,1.55,0,0,0,.69.44,3.7,3.7,0,0,0,1.09.14,10.49,10.49,0,0,0,2.22-.25V587.9a.5.5,0,0,1,.12-.33.4.4,0,0,1,.33-.15h2.08a.42.42,0,0,1,.32.15.46.46,0,0,1,.13.33v11.31q0,.35-.45.45a17.31,17.31,0,0,1-2.48.51,16.49,16.49,0,0,1-2.36.17,8,8,0,0,1-2.3-.28,4.06,4.06,0,0,1-1.59-.89,3.66,3.66,0,0,1-1-1.54,7.36,7.36,0,0,1-.3-2.24Z"/>
        <path d="M422.83,589.75a11.86,11.86,0,0,0-3.62.59q-.48.13-.48-.36V588.6a.6.6,0,0,1,.1-.34.89.89,0,0,1,.38-.25,9.61,9.61,0,0,1,1.72-.52,10.35,10.35,0,0,1,2.24-.23,6,6,0,0,1,2.49.48,3.36,3.36,0,0,1,1.59,1.46,4.76,4.76,0,0,1,.56,2.38v7.72a.66.66,0,0,1-.06.34.55.55,0,0,1-.26.16,19.77,19.77,0,0,1-2,.42,15.05,15.05,0,0,1-2.3.14,9.9,9.9,0,0,1-3-.38,3.25,3.25,0,0,1-1.74-1.22,3.84,3.84,0,0,1-.57-2.2v-.11a4.63,4.63,0,0,1,.29-1.71,2.79,2.79,0,0,1,.91-1.2,4.43,4.43,0,0,1,1.64-.72,11,11,0,0,1,2.5-.24h1.59v-1a1.84,1.84,0,0,0-.46-1.44A2.38,2.38,0,0,0,422.83,589.75Zm2,8.17v-3.35h-1.59a4.69,4.69,0,0,0-1.52.18,1,1,0,0,0-.65.57,3,3,0,0,0-.16,1.06v.14a1.86,1.86,0,0,0,.21,1,1.07,1.07,0,0,0,.69.48,5.72,5.72,0,0,0,1.43.13A5.9,5.9,0,0,0,424.82,597.92Z"/>
        <path d="M319.93,650.49a.44.44,0,0,1-.45.48,4.51,4.51,0,0,0-.59.09,10.79,10.79,0,0,1-1.09.12c-.48,0-.87.07-1.17.08s-.79,0-1.45,0a8.57,8.57,0,0,1-2.75-.38,3.4,3.4,0,0,1-1.81-1.4,5.14,5.14,0,0,1-.67-2.85v-7.9a5.12,5.12,0,0,1,.67-2.84,3.39,3.39,0,0,1,1.81-1.42,8.86,8.86,0,0,1,2.75-.38,25.38,25.38,0,0,1,4.3.32.69.69,0,0,1,.36.13.48.48,0,0,1,.09.34v1.45a.45.45,0,0,1-.14.32.42.42,0,0,1-.31.13h-4.62a1.86,1.86,0,0,0-1.39.42,2.21,2.21,0,0,0-.4,1.53v2.44h6.14a.48.48,0,0,1,.45.45v1.63a.42.42,0,0,1-.15.32.46.46,0,0,1-.3.14h-6.14v2.92a2.2,2.2,0,0,0,.4,1.52,1.86,1.86,0,0,0,1.39.42h4.62a.44.44,0,0,1,.33.13.44.44,0,0,1,.12.32Z"/>
        <path d="M337.45,635.49c0,.26-.12.38-.34.38h-1a2.46,2.46,0,0,0-.84.11.61.61,0,0,0-.38.4,2.44,2.44,0,0,0-.12.85v1.11h2.18a.48.48,0,0,1,.45.45v1.36a.43.43,0,0,1-.14.31.45.45,0,0,1-.31.12h-2.18v10a.5.5,0,0,1-.12.34.43.43,0,0,1-.33.13h-2.06a.49.49,0,0,1-.33-.14.45.45,0,0,1-.14-.33v-10l-2-.32c-.3,0-.45-.18-.45-.43v-1a.45.45,0,0,1,.12-.31.45.45,0,0,1,.33-.14h2v-1.11a4.35,4.35,0,0,1,.47-2.21,2.49,2.49,0,0,1,1.32-1.1,6.2,6.2,0,0,1,2.12-.31,7.15,7.15,0,0,1,1.36.18c.27.06.41.18.41.36Z"/>
        <path d="M354.19,635.49c0,.26-.11.38-.34.38h-1a2.43,2.43,0,0,0-.83.11.62.62,0,0,0-.39.4,2.47,2.47,0,0,0-.11.85v1.11h2.17a.45.45,0,0,1,.32.14.42.42,0,0,1,.13.31v1.36a.42.42,0,0,1-.13.31.47.47,0,0,1-.32.12H351.5v10a.47.47,0,0,1-.13.34.41.41,0,0,1-.32.13H349a.47.47,0,0,1-.33-.14.46.46,0,0,1-.15-.33v-10l-2-.32c-.31,0-.46-.18-.46-.43v-1a.46.46,0,0,1,.13-.31.42.42,0,0,1,.33-.14h2v-1.11A4.34,4.34,0,0,1,349,635a2.42,2.42,0,0,1,1.32-1.1,6.16,6.16,0,0,1,2.12-.31,7,7,0,0,1,1.35.18c.28.06.41.18.41.36Z"/>
        <path d="M369.19,651.28a7,7,0,0,1-2.72-.53,4.75,4.75,0,0,1-2.17-1.8,5.73,5.73,0,0,1-.88-3.35v-1.67a7,7,0,0,1,.64-3,4.4,4.4,0,0,1,1.87-2,5.88,5.88,0,0,1,2.93-.69,5.58,5.58,0,0,1,2.92.74,4.73,4.73,0,0,1,1.84,2,6.88,6.88,0,0,1,.62,3v1.27c0,.37-.15.56-.45.56h-7.38v.07a3.19,3.19,0,0,0,.64,2.08,2.9,2.9,0,0,0,2.37.79,11.86,11.86,0,0,0,2.06-.19,14.15,14.15,0,0,0,1.81-.42c.32-.09.48,0,.48.37v1.33a.44.44,0,0,1-.12.34,1.29,1.29,0,0,1-.36.25,8.38,8.38,0,0,1-1.81.63A9.63,9.63,0,0,1,369.19,651.28Zm2-7.64v-.1a3,3,0,0,0-.63-2.08,2.26,2.26,0,0,0-1.74-.7,2.5,2.5,0,0,0-1.26.31,2,2,0,0,0-.86.93,3.52,3.52,0,0,0-.31,1.54v.1Z"/>
        <path d="M389.13,648.75a9.75,9.75,0,0,0,2.92-.52q.48-.13.48.36V650a.49.49,0,0,1-.12.34,1,1,0,0,1-.36.25,5.89,5.89,0,0,1-2.92.65,6,6,0,0,1-2.67-.56,4.11,4.11,0,0,1-1.82-1.8,6.48,6.48,0,0,1-.67-3.13v-2.11a6.49,6.49,0,0,1,.66-3.09,4.16,4.16,0,0,1,1.82-1.82,6.59,6.59,0,0,1,5.6.07.87.87,0,0,1,.36.25.49.49,0,0,1,.12.34v1.45q0,.5-.48.36a13.36,13.36,0,0,0-1.35-.39,6.75,6.75,0,0,0-1.46-.13c-1.52,0-2.28,1-2.28,3v2.11a3.36,3.36,0,0,0,.62,2.28A2,2,0,0,0,389.13,648.75Z"/>
        <path d="M410,650.72c0,.23-.14.36-.43.41a11.35,11.35,0,0,1-1.78.15,6.59,6.59,0,0,1-2.11-.27,1.93,1.93,0,0,1-1.13-1,5.58,5.58,0,0,1-.36-2.28v-7.11l-1.88-.32q-.45-.06-.45-.45v-1a.45.45,0,0,1,.12-.31.42.42,0,0,1,.33-.14h1.88v-1.86q0-.37.45-.45l2.11-.36h.09c.24,0,.36.11.36.34v2.33h2.28a.45.45,0,0,1,.33.12.49.49,0,0,1,.13.33v1.34a.43.43,0,0,1-.14.31.41.41,0,0,1-.32.14h-2.28v7.11a2.24,2.24,0,0,0,.15,1c.09.14.34.21.73.21h1.45c.32,0,.47.12.47.34Z"/>
        <path d="M423.44,648.84a2.42,2.42,0,0,0,1.38-.27.87.87,0,0,0,.34-.73.94.94,0,0,0-.22-.64,3.19,3.19,0,0,0-.78-.6l-3.1-1.9a4.28,4.28,0,0,1-1.39-1.35,3.21,3.21,0,0,1-.51-1.77c0-2.27,1.44-3.4,4.3-3.4a9.78,9.78,0,0,1,4,.75.77.77,0,0,1,.36.22.57.57,0,0,1,.12.37v1.38q0,.5-.48.36a12.17,12.17,0,0,0-3.64-.63,3,3,0,0,0-1.25.19.67.67,0,0,0-.38.64.77.77,0,0,0,.1.42,1,1,0,0,0,.28.3l.53.32,3,1.81a4.76,4.76,0,0,1,1.73,1.59,3.47,3.47,0,0,1,.44,1.7,3.62,3.62,0,0,1-.5,1.92,3.26,3.26,0,0,1-1.5,1.3,5.76,5.76,0,0,1-2.43.46,10,10,0,0,1-4-.74,1.06,1.06,0,0,1-.38-.26.58.58,0,0,1-.09-.33v-1.38c0-.33.16-.45.47-.36A12.25,12.25,0,0,0,423.44,648.84Z"/>
        <path d="M252,687.43a.36.36,0,0,1-.14.3.48.48,0,0,1-.31.1h-4v13.74a.42.42,0,0,1-.14.33.47.47,0,0,1-.32.12h-2.24a.42.42,0,0,1-.31-.13.41.41,0,0,1-.14-.32V687.83h-4a.46.46,0,0,1-.32-.11.35.35,0,0,1-.13-.29v-1.79a.41.41,0,0,1,.45-.43h11.07a.48.48,0,0,1,.32.11.39.39,0,0,1,.13.32Z"/>
        <path d="M267.13,702.2a7,7,0,0,1-2.72-.53,4.83,4.83,0,0,1-2.18-1.8,5.8,5.8,0,0,1-.87-3.35v-1.67a6.89,6.89,0,0,1,.64-3.06,4.45,4.45,0,0,1,1.86-2,5.94,5.94,0,0,1,2.94-.69,5.52,5.52,0,0,1,2.91.74,4.69,4.69,0,0,1,1.85,2,6.88,6.88,0,0,1,.62,3v1.27c0,.37-.15.56-.45.56h-7.38v.07a3.24,3.24,0,0,0,.63,2.08,2.93,2.93,0,0,0,2.38.79,12,12,0,0,0,2.06-.19,14.15,14.15,0,0,0,1.81-.42c.32-.09.48,0,.48.37v1.33a.44.44,0,0,1-.12.34,1.29,1.29,0,0,1-.36.25,8.38,8.38,0,0,1-1.81.63A9.63,9.63,0,0,1,267.13,702.2Zm2-7.64v-.1a3,3,0,0,0-.63-2.08,2.27,2.27,0,0,0-1.74-.7,2.5,2.5,0,0,0-1.26.31,2,2,0,0,0-.86.93,3.52,3.52,0,0,0-.31,1.54v.1Z"/>
        <path d="M287.07,699.67a9.75,9.75,0,0,0,2.92-.52q.48-.14.48.36V701a.49.49,0,0,1-.12.34,1,1,0,0,1-.36.25,5.89,5.89,0,0,1-2.92.65,6,6,0,0,1-2.67-.56,4.11,4.11,0,0,1-1.82-1.8,6.48,6.48,0,0,1-.67-3.13V694.6a6.49,6.49,0,0,1,.66-3.09,4.16,4.16,0,0,1,1.82-1.82,6.59,6.59,0,0,1,5.6.07.87.87,0,0,1,.36.25.49.49,0,0,1,.12.34v1.44c0,.34-.16.46-.48.37a13.36,13.36,0,0,0-1.35-.39,6.75,6.75,0,0,0-1.46-.13c-1.52,0-2.28,1-2.28,3v2.11a3.36,3.36,0,0,0,.62,2.28A2,2,0,0,0,287.07,699.67Z"/>
        <path d="M311,701.55a.48.48,0,0,1-.13.33.45.45,0,0,1-.32.14h-2.08a.42.42,0,0,1-.33-.14.53.53,0,0,1-.13-.33V694.1a6.41,6.41,0,0,0-.14-1.54,1.12,1.12,0,0,0-.55-.71,2.53,2.53,0,0,0-1.16-.21,5.72,5.72,0,0,0-2.63.77v9.14a.5.5,0,0,1-.12.34.42.42,0,0,1-.33.13H301a.42.42,0,0,1-.33-.14.52.52,0,0,1-.12-.33v-16.3a.42.42,0,0,1,.13-.31.45.45,0,0,1,.32-.14h2.08a.44.44,0,0,1,.32.13.41.41,0,0,1,.13.32v4.69a6.47,6.47,0,0,1,3.42-.84q4.05,0,4.05,5Z"/>
        <path d="M331.9,701.55a.48.48,0,0,1-.13.33.47.47,0,0,1-.32.14h-2.08a.42.42,0,0,1-.33-.14.48.48,0,0,1-.13-.33v-7.47a4,4,0,0,0-.2-1.43,1.41,1.41,0,0,0-.7-.76,3,3,0,0,0-1.36-.25,10.56,10.56,0,0,0-2.22.25v9.66a.5.5,0,0,1-.12.34.42.42,0,0,1-.33.13H321.9a.42.42,0,0,1-.33-.14.52.52,0,0,1-.12-.33V690.23q0-.33.45-.45a18.27,18.27,0,0,1,2.43-.5,17.69,17.69,0,0,1,2.41-.18,5.54,5.54,0,0,1,3.92,1.18,5,5,0,0,1,1.24,3.78Z"/>
        <path d="M352.83,696.57a6.53,6.53,0,0,1-.62,2.9,4.59,4.59,0,0,1-1.84,2,6.38,6.38,0,0,1-5.89,0,4.59,4.59,0,0,1-1.84-2,6.53,6.53,0,0,1-.62-2.9v-1.83a6.53,6.53,0,0,1,.62-2.9,4.59,4.59,0,0,1,1.84-2,6.31,6.31,0,0,1,5.89,0,4.59,4.59,0,0,1,1.84,2,6.53,6.53,0,0,1,.62,2.9Zm-3,0v-1.83a3.58,3.58,0,0,0-.63-2.23,2.36,2.36,0,0,0-3.59,0,3.58,3.58,0,0,0-.63,2.23v1.83a3.52,3.52,0,0,0,.64,2.23,2.36,2.36,0,0,0,3.58,0A3.58,3.58,0,0,0,349.85,696.57Z"/>
        <path d="M366,701.55a.48.48,0,0,1-.13.33.39.39,0,0,1-.3.14h-2.11a.45.45,0,0,1-.33-.14.52.52,0,0,1-.12-.33v-16.3a.48.48,0,0,1,.45-.45h2.11a.39.39,0,0,1,.3.14.42.42,0,0,1,.13.31Z"/>
        <path d="M387.05,696.57a6.67,6.67,0,0,1-.62,2.9,4.61,4.61,0,0,1-1.85,2,6.36,6.36,0,0,1-5.88,0,4.59,4.59,0,0,1-1.84-2,6.53,6.53,0,0,1-.63-2.9v-1.83a6.53,6.53,0,0,1,.63-2.9,4.59,4.59,0,0,1,1.84-2,6.29,6.29,0,0,1,5.88,0,4.61,4.61,0,0,1,1.85,2,6.67,6.67,0,0,1,.62,2.9Zm-3,0v-1.83a3.58,3.58,0,0,0-.62-2.23,2.11,2.11,0,0,0-1.8-.83,2.13,2.13,0,0,0-1.8.83,3.64,3.64,0,0,0-.62,2.23v1.83a3.58,3.58,0,0,0,.63,2.23,2.13,2.13,0,0,0,1.79.82,2.1,2.1,0,0,0,1.8-.82A3.58,3.58,0,0,0,384.06,696.57Z"/>
        <path d="M402.21,704.15a4.27,4.27,0,0,0,1.37-.17,1,1,0,0,0,.62-.59,3.64,3.64,0,0,0,.16-1.25V702l-1.07.14a10.51,10.51,0,0,1-1.1.1,6.07,6.07,0,0,1-3-.67,4.33,4.33,0,0,1-1.8-2,7.12,7.12,0,0,1-.6-3.05v-1.74a7.07,7.07,0,0,1,.6-3,4.28,4.28,0,0,1,1.8-2,6.07,6.07,0,0,1,3-.68c.41,0,.8,0,1.19,0s.73.06,1,.1.71.1,1.22.2.88.18,1.11.24a1.07,1.07,0,0,1,.49.22.54.54,0,0,1,.12.39V702a5.54,5.54,0,0,1-.55,2.6,3.27,3.27,0,0,1-1.71,1.49,7.54,7.54,0,0,1-2.88.48,9.24,9.24,0,0,1-2.28-.28,10.81,10.81,0,0,1-1.88-.63,1.35,1.35,0,0,1-.26-.15.58.58,0,0,1-.17-.19.54.54,0,0,1-.05-.24V703.9q0-.49.48-.36c.6.15,1.29.29,2.06.42A12.67,12.67,0,0,0,402.21,704.15Zm2.15-4.57v-7.83c-.28-.06-.61-.11-1-.15a11.09,11.09,0,0,0-1.2-.05,2.06,2.06,0,0,0-1.9.84,4.58,4.58,0,0,0-.52,2.39v1.74a7.3,7.3,0,0,0,.11,1.29,3.07,3.07,0,0,0,.39,1,1.8,1.8,0,0,0,.74.68,2.61,2.61,0,0,0,1.18.24c.26,0,.6,0,1-.06S404.05,699.62,404.36,699.58Z"/>
        <path d="M428.58,689.65a.23.23,0,0,1,0,.13L424.77,703a7.51,7.51,0,0,1-.87,2.08,2.83,2.83,0,0,1-1.36,1.11,6.37,6.37,0,0,1-2.38.36,10.08,10.08,0,0,1-1.27-.09,10.52,10.52,0,0,1-1.13-.2q-.48-.12-.48-.39v-1.45a.38.38,0,0,1,.14-.28.46.46,0,0,1,.32-.13h0c.2,0,.62,0,1.27.07s1.08.07,1.29.07a2.57,2.57,0,0,0,.84-.12,1.3,1.3,0,0,0,.56-.43,2.94,2.94,0,0,0,.39-.9l.18-.68H422a2.3,2.3,0,0,1-.74-.12,1.6,1.6,0,0,1-.68-.53,3.4,3.4,0,0,1-.55-1.22l-3-10.37a.7.7,0,0,1,0-.16c0-.24.14-.36.43-.36h2.29a.39.39,0,0,1,.28.12.58.58,0,0,1,.15.29l2.28,9.21c.08.33.18.5.32.5h.2l2.45-9.73a.43.43,0,0,1,.45-.39h2.31a.43.43,0,0,1,.28.11A.39.39,0,0,1,428.58,689.65Z"/>
        <path d="M395.58,752.56a.38.38,0,0,1-.11.28.42.42,0,0,1-.3.1h-2.39a.45.45,0,0,1-.43-.38l-1.05-4.3h-5.2l-1,4.3a.48.48,0,0,1-.16.27.39.39,0,0,1-.27.11h-2.4a.39.39,0,0,1-.29-.1.35.35,0,0,1-.12-.28s0,0,0,0v-.06l3.71-14.19a3.3,3.3,0,0,1,6.29,0l3.71,14.19,0,0Zm-4.89-6.88L389.06,739a.81.81,0,0,0-.13-.28.27.27,0,0,0-.23-.08.25.25,0,0,0-.22.08.79.79,0,0,0-.14.28l-1.63,6.72Z"/>
        <path d="M411.38,742.58h-1a10.56,10.56,0,0,0-2.22.25v9.66a.5.5,0,0,1-.12.34.44.44,0,0,1-.33.13h-2.08a.42.42,0,0,1-.33-.14.53.53,0,0,1-.13-.33V741.15c0-.22.16-.37.46-.45a18.27,18.27,0,0,1,2.43-.5,17.69,17.69,0,0,1,2.41-.18,7.63,7.63,0,0,1,.93.05c.3,0,.45.17.45.43v1.63A.4.4,0,0,1,411.38,742.58Z"/>
        <path d="M428.69,752.56c0,.23-.14.36-.43.41a11.47,11.47,0,0,1-1.79.15,6.52,6.52,0,0,1-2.1-.27,1.94,1.94,0,0,1-1.14-1,5.58,5.58,0,0,1-.36-2.28v-7.11L421,742.1q-.45-.06-.45-.45v-1a.46.46,0,0,1,.45-.45h1.88v-1.86c0-.25.15-.4.46-.45l2.1-.36h.09c.24,0,.36.11.36.34v2.33h2.29a.42.42,0,0,1,.45.45V742a.42.42,0,0,1-.13.31.41.41,0,0,1-.32.14h-2.29v7.11a2.24,2.24,0,0,0,.15,1.05c.1.14.34.21.74.21h1.44c.32,0,.48.12.48.34Z"/>
        <path d="M304.22,789.11a.44.44,0,0,1-.45.45h-4.61a1.89,1.89,0,0,0-1.4.42,2.27,2.27,0,0,0-.39,1.53V794h6.13a.45.45,0,0,1,.32.14.42.42,0,0,1,.13.31V796a.45.45,0,0,1-.14.32.46.46,0,0,1-.31.14h-6.13v6.92a.42.42,0,0,1-.15.32.44.44,0,0,1-.3.13H294.7a.45.45,0,0,1-.31-.13.42.42,0,0,1-.15-.32v-11.9a5.21,5.21,0,0,1,.67-2.84,3.43,3.43,0,0,1,1.81-1.42,8.86,8.86,0,0,1,2.75-.38,25.38,25.38,0,0,1,4.3.32.69.69,0,0,1,.36.13.48.48,0,0,1,.09.34Z"/>
        <path d="M320,804a7.06,7.06,0,0,1-2.73-.53,4.75,4.75,0,0,1-2.17-1.8,5.8,5.8,0,0,1-.87-3.35v-1.67a7,7,0,0,1,.63-3.05,4.45,4.45,0,0,1,1.87-2,5.91,5.91,0,0,1,2.93-.69,5.58,5.58,0,0,1,2.92.74,4.67,4.67,0,0,1,1.84,2,6.74,6.74,0,0,1,.62,3V798c0,.37-.15.56-.45.56h-7.38v.07a3.23,3.23,0,0,0,.64,2.08,2.9,2.9,0,0,0,2.37.79,11.86,11.86,0,0,0,2.06-.19,13.76,13.76,0,0,0,1.81-.42c.32-.09.48,0,.48.37v1.33a.48.48,0,0,1-.11.34,1.56,1.56,0,0,1-.37.25,8.19,8.19,0,0,1-1.81.63A9.61,9.61,0,0,1,320,804Zm2-7.64v-.09a3.05,3.05,0,0,0-.63-2.09,2.24,2.24,0,0,0-1.74-.7,2.5,2.5,0,0,0-1.26.31,2.05,2.05,0,0,0-.86.93,3.54,3.54,0,0,0-.3,1.55v.09Z"/>
        <path d="M339.05,801.6a2.38,2.38,0,0,0,1.38-.27.87.87,0,0,0,.34-.73,1,1,0,0,0-.21-.64,3.65,3.65,0,0,0-.78-.6l-3.1-1.9a4.21,4.21,0,0,1-1.4-1.35,3.2,3.2,0,0,1-.5-1.77q0-3.4,4.29-3.4a9.78,9.78,0,0,1,4,.75.78.78,0,0,1,.37.23.57.57,0,0,1,.11.36v1.38q0,.5-.48.36a12.12,12.12,0,0,0-3.64-.63,2.91,2.91,0,0,0-1.24.19.66.66,0,0,0-.39.64.87.87,0,0,0,.1.42,1,1,0,0,0,.29.3c.12.08.29.19.52.32l3,1.81a4.76,4.76,0,0,1,1.73,1.59,3.37,3.37,0,0,1,.44,1.7,3.71,3.71,0,0,1-.49,1.92,3.34,3.34,0,0,1-1.51,1.3,5.76,5.76,0,0,1-2.43.46,10,10,0,0,1-4-.74A1,1,0,0,1,335,803a.54.54,0,0,1-.09-.33v-1.38q0-.5.48-.36A12.19,12.19,0,0,0,339.05,801.6Z"/>
        <path d="M361.25,803.48c0,.23-.14.36-.43.41A11.47,11.47,0,0,1,359,804a6.52,6.52,0,0,1-2.1-.27,1.9,1.9,0,0,1-1.13-1,5.58,5.58,0,0,1-.36-2.28v-7.11l-1.88-.32q-.45-.06-.45-.45v-1a.45.45,0,0,1,.12-.31.42.42,0,0,1,.33-.14h1.88v-1.86q0-.37.45-.45l2.1-.36h.09c.24,0,.37.11.37.34v2.33h2.28a.42.42,0,0,1,.33.13.44.44,0,0,1,.12.32v1.34a.45.45,0,0,1-.13.32.44.44,0,0,1-.32.13h-2.28v7.11a2.28,2.28,0,0,0,.14,1c.1.14.35.21.74.21h1.45c.31,0,.47.12.47.34Z"/>
        <path d="M374,789a.42.42,0,0,1-.14.33.47.47,0,0,1-.32.12H371.3a.52.52,0,0,1-.33-.12.4.4,0,0,1-.15-.33v-2a.42.42,0,0,1,.15-.32.48.48,0,0,1,.33-.13h2.19a.44.44,0,0,1,.32.13.45.45,0,0,1,.14.32Zm-.07,14.44a.47.47,0,0,1-.13.34.41.41,0,0,1-.32.13h-2.09a.42.42,0,0,1-.32-.14.48.48,0,0,1-.13-.33V791.55a.46.46,0,0,1,.45-.45h2.09a.44.44,0,0,1,.45.45Z"/>
        <path d="M395,791.46a.51.51,0,0,1,0,.16l-2.85,10.3a2.94,2.94,0,0,1-5.64,0l-2.85-10.3a.51.51,0,0,1,0-.16.36.36,0,0,1,.36-.36h2.26c.23,0,.38.15.46.45l2.17,9.49c.08.37.22.56.43.56s.35-.19.43-.56l2.17-9.49a.64.64,0,0,1,.17-.34.49.49,0,0,1,.31-.11h2.26a.34.34,0,0,1,.26.1A.35.35,0,0,1,395,791.46Z"/>
        <path d="M409.2,793.43a11.91,11.91,0,0,0-3.62.59c-.31.09-.47,0-.47-.36v-1.38a.53.53,0,0,1,.1-.34.85.85,0,0,1,.37-.25,9.87,9.87,0,0,1,1.72-.52,10.42,10.42,0,0,1,2.24-.23,5.88,5.88,0,0,1,2.49.48,3.34,3.34,0,0,1,1.6,1.46,4.76,4.76,0,0,1,.55,2.38V803a.83.83,0,0,1-.05.34.55.55,0,0,1-.26.16c-.68.18-1.34.32-2,.42a15.05,15.05,0,0,1-2.3.14,9.81,9.81,0,0,1-3-.38,3.17,3.17,0,0,1-1.74-1.22,3.84,3.84,0,0,1-.57-2.2v-.11a4.64,4.64,0,0,1,.28-1.71,2.9,2.9,0,0,1,.92-1.2,4.36,4.36,0,0,1,1.64-.72,11,11,0,0,1,2.5-.24h1.59v-1a1.8,1.8,0,0,0-.47-1.44A2.38,2.38,0,0,0,409.2,793.43Zm2,8.17v-3.35h-1.59a4.8,4.8,0,0,0-1.53.18,1,1,0,0,0-.64.57,2.75,2.75,0,0,0-.16,1.06v.14a2,2,0,0,0,.2,1,1.12,1.12,0,0,0,.69.48,5.86,5.86,0,0,0,1.44.13A6,6,0,0,0,411.2,801.6Z"/>
        <path d="M427.71,803.39a.52.52,0,0,1-.12.33.41.41,0,0,1-.31.14h-2.1a.44.44,0,0,1-.33-.14.52.52,0,0,1-.12-.33v-16.3a.42.42,0,0,1,.13-.31.45.45,0,0,1,.32-.14h2.1a.41.41,0,0,1,.31.14.45.45,0,0,1,.12.31Z"/>
      </g>
      <g>
        <path class="cls-1" d="M184,89.18H134.79a3.38,3.38,0,0,1-3.32-3.32V74.48a35.06,35.06,0,0,1,2.39-13,34.49,34.49,0,0,1,6.34-10.34,48.17,48.17,0,0,1,9.37-7.89l11.49-7.65c3.19-2.21,5.51-3.93,6.86-5.1a9.43,9.43,0,0,0,2.64-3.34,13.2,13.2,0,0,0,.73-4.9c0-2.73-.94-4.62-2.87-5.75s-5.54-1.84-10.29-1.84a54.86,54.86,0,0,0-11.86,1.43,68.36,68.36,0,0,0-9.83,2.8,3.36,3.36,0,0,1-3.19-.07,3,3,0,0,1-1.08-2.6V9.59c0-1.46,1-2.8,3-4a35.65,35.65,0,0,1,5.64-2.35A62.15,62.15,0,0,1,149.76,1,52.25,52.25,0,0,1,159.4,0c9.94,0,17.29,1.81,21.86,5.38s7,9.3,7,16.86A22.27,22.27,0,0,1,184.55,35c-2.42,3.57-6.2,7.13-11.23,10.59l-10.46,7a75.34,75.34,0,0,0-9.28,7.1,22.22,22.22,0,0,0-5.05,6.78,18.31,18.31,0,0,0-1.7,7.51H184a3.38,3.38,0,0,1,2.35.84,3,3,0,0,1,1,2.25v8.82a3.13,3.13,0,0,1-1.08,2.36A3.26,3.26,0,0,1,184,89.18ZM158.13,12.65c5.18,0,8.87.69,11.3,2.11s3.86,4,3.86,7.48a14.75,14.75,0,0,1-.89,5.68A11.44,11.44,0,0,1,169.23,32c-1.43,1.23-3.74,2.94-7,5.23L150.67,44.9a45.57,45.57,0,0,0-9,7.56,32.35,32.35,0,0,0-6,9.74,33,33,0,0,0-2.25,12.28V85.86a1.27,1.27,0,0,0,.4.92,1.23,1.23,0,0,0,.92.4H184a1.32,1.32,0,0,0,.88-.43,1.15,1.15,0,0,0,.44-.89V77a1,1,0,0,0-.32-.77,1.38,1.38,0,0,0-1-.32h-39.2V74.48a20.74,20.74,0,0,1,1.9-8.9,24.19,24.19,0,0,1,5.5-7.38,75.9,75.9,0,0,1,9.53-7.3l10.45-7c4.81-3.31,8.42-6.69,10.7-10.06a20.36,20.36,0,0,0,3.37-11.63c0-6.91-2.1-12.06-6.24-15.29S168.88,2,159.4,2a50.74,50.74,0,0,0-9.27.91,60.36,60.36,0,0,0-8.62,2.23,35,35,0,0,0-5.29,2.18c-.93.55-2.05,1.4-2.05,2.27v6.62c0,.59.12.89.23,1s.33.2,1.33-.16a70.39,70.39,0,0,1,10.11-2.88A56.81,56.81,0,0,1,158.13,12.65Z"/>
        <path class="cls-1" d="M239.39,90.11a35.69,35.69,0,0,1-13.14-2.27,24.52,24.52,0,0,1-9.92-7.26,33.17,33.17,0,0,1-6.17-12.74,72,72,0,0,1-2.07-18.43V40.82a73.75,73.75,0,0,1,2.06-18.54,33.28,33.28,0,0,1,6.12-12.8,24.18,24.18,0,0,1,9.93-7.21A36.29,36.29,0,0,1,239.39,0c10.17,0,18,3.29,23.35,9.77s7.95,16.87,7.95,31.05v8.59A72.21,72.21,0,0,1,268.62,68a33.18,33.18,0,0,1-6.17,12.62,24.67,24.67,0,0,1-9.86,7.26A35.57,35.57,0,0,1,239.39,90.11Zm0-88.11a34.08,34.08,0,0,0-12.46,2.14,22.18,22.18,0,0,0-9.12,6.61,31.19,31.19,0,0,0-5.72,12,71.61,71.61,0,0,0-2,18v8.59a70.17,70.17,0,0,0,2,17.91,31.23,31.23,0,0,0,5.78,12A22.5,22.5,0,0,0,227,86a37.33,37.33,0,0,0,24.86,0,22.59,22.59,0,0,0,9.06-6.68,31.21,31.21,0,0,0,5.78-11.87,69.94,69.94,0,0,0,2-18V40.82c0-13.71-2.52-23.73-7.49-29.78S248.93,2,239.39,2Zm0,75a12.9,12.9,0,0,1-8-2.58c-2.26-1.71-4-4.67-5.29-8.81s-1.84-9.46-1.84-16.19V40.82c0-10.12,1.28-17.07,3.92-21.26s6.48-6.44,11.24-6.44,8.53,2.17,11.23,6.44,3.93,11.15,3.93,21.26v8.59c0,6.72-.62,12.17-1.84,16.19s-3,7.1-5.29,8.81A12.9,12.9,0,0,1,239.39,77Zm0-61.87c-4.08,0-7.2,1.8-9.54,5.51s-3.62,10.6-3.62,20.19v8.59c0,6.53.59,11.78,1.75,15.61s2.67,6.35,4.58,7.8a11.82,11.82,0,0,0,13.65,0c1.91-1.45,3.45-4.07,4.59-7.8s1.75-9.09,1.75-15.61V40.82c0-9.59-1.22-16.38-3.62-20.19S243.47,15.12,239.39,15.12Z"/>
        <path class="cls-1" d="M343.06,89.18H293.83a3.38,3.38,0,0,1-3.32-3.32V74.48a34.86,34.86,0,0,1,2.4-13,34.27,34.27,0,0,1,6.33-10.34,48.17,48.17,0,0,1,9.37-7.89l11.49-7.65c3.19-2.21,5.51-3.93,6.86-5.1a9.43,9.43,0,0,0,2.64-3.34,13.2,13.2,0,0,0,.73-4.9c0-2.73-.94-4.62-2.87-5.75s-5.54-1.84-10.29-1.84a54.86,54.86,0,0,0-11.86,1.43,68.36,68.36,0,0,0-9.83,2.8,3.37,3.37,0,0,1-3.19-.07,3,3,0,0,1-1.08-2.6V9.59c0-1.46,1-2.8,3-4a35.65,35.65,0,0,1,5.64-2.35A62.15,62.15,0,0,1,308.8,1,52.25,52.25,0,0,1,318.44,0c9.94,0,17.29,1.81,21.87,5.38s7,9.3,7,16.86A22.27,22.27,0,0,1,343.59,35c-2.42,3.57-6.2,7.13-11.23,10.59l-10.46,7a74.38,74.38,0,0,0-9.27,7.1,22.09,22.09,0,0,0-5.06,6.78,18.63,18.63,0,0,0-1.7,7.51h37.19a3.37,3.37,0,0,1,2.35.84,3,3,0,0,1,1,2.25v8.82a3.13,3.13,0,0,1-1.08,2.36A3.26,3.26,0,0,1,343.06,89.18ZM317.17,12.65c5.18,0,8.87.69,11.3,2.11s3.86,4,3.86,7.48a14.75,14.75,0,0,1-.89,5.68A11.44,11.44,0,0,1,328.27,32c-1.43,1.23-3.74,2.94-7,5.23L309.71,44.9a45.86,45.86,0,0,0-9,7.56,32.35,32.35,0,0,0-6,9.74,33,33,0,0,0-2.25,12.28V85.86a1.24,1.24,0,0,0,.41.92,1.19,1.19,0,0,0,.91.4h49.23a1.36,1.36,0,0,0,.89-.43,1.17,1.17,0,0,0,.43-.89V77a1,1,0,0,0-.31-.77,1.43,1.43,0,0,0-1-.32h-39.2V74.48a20.74,20.74,0,0,1,1.9-8.9,24.35,24.35,0,0,1,5.5-7.38,75.9,75.9,0,0,1,9.53-7.3l10.45-7c4.81-3.31,8.42-6.69,10.7-10.06a20.36,20.36,0,0,0,3.37-11.63c0-6.91-2.1-12.06-6.24-15.29S327.92,2,318.44,2a50.83,50.83,0,0,0-9.27.91,60.36,60.36,0,0,0-8.62,2.23,35,35,0,0,0-5.29,2.18c-.93.55-2.05,1.4-2.05,2.27v6.62c0,.59.12.89.23,1s.33.2,1.33-.16a70.78,70.78,0,0,1,10.11-2.88A56.81,56.81,0,0,1,317.17,12.65Z"/>
        <path class="cls-1" d="M398.43,90.11a35.69,35.69,0,0,1-13.14-2.27,24.59,24.59,0,0,1-9.92-7.26,33.17,33.17,0,0,1-6.17-12.74,72.42,72.42,0,0,1-2.07-18.43V40.82a73.72,73.72,0,0,1,2.07-18.54,33.13,33.13,0,0,1,6.11-12.8,24.18,24.18,0,0,1,9.93-7.21A36.29,36.29,0,0,1,398.43,0c10.17,0,18,3.29,23.35,9.77s8,16.87,8,31.05v8.59A72.21,72.21,0,0,1,427.66,68a33.18,33.18,0,0,1-6.17,12.62,24.67,24.67,0,0,1-9.86,7.26A35.57,35.57,0,0,1,398.43,90.11Zm0-88.11A34.08,34.08,0,0,0,386,4.14a22.18,22.18,0,0,0-9.12,6.61,31.19,31.19,0,0,0-5.72,12,71.61,71.61,0,0,0-2,18v8.59a70.17,70.17,0,0,0,2,17.91,31.23,31.23,0,0,0,5.78,12A22.5,22.5,0,0,0,386,86a37.33,37.33,0,0,0,24.86,0A22.59,22.59,0,0,0,420,79.3a31.21,31.21,0,0,0,5.78-11.87,69.94,69.94,0,0,0,2-18V40.82c0-13.71-2.52-23.73-7.49-29.78S408,2,398.43,2Zm0,75a12.9,12.9,0,0,1-8-2.58c-2.26-1.71-4-4.67-5.29-8.81s-1.84-9.46-1.84-16.19V40.82c0-10.12,1.28-17.07,3.92-21.26s6.48-6.44,11.24-6.44,8.54,2.17,11.24,6.44,3.92,11.15,3.92,21.26v8.59c0,6.72-.62,12.17-1.84,16.19s-3,7.1-5.29,8.81A12.9,12.9,0,0,1,398.43,77Zm0-61.87c-4.08,0-7.2,1.8-9.54,5.51s-3.62,10.6-3.62,20.19v8.59c0,6.53.59,11.78,1.75,15.61s2.68,6.35,4.59,7.8A10.86,10.86,0,0,0,398.43,75a11.06,11.06,0,0,0,6.83-2.17c1.9-1.45,3.44-4.07,4.58-7.8s1.75-9.09,1.75-15.61V40.82c0-9.59-1.21-16.38-3.62-20.19S402.51,15.12,398.43,15.12Z"/>
      </g>
      <g>
        <g>
          <g>
            <path class="cls-2" d="M308.65,898.38a.78.78,0,0,1-.24.59.87.87,0,0,1-.57.22h-4a.82.82,0,0,1-.55-.24.78.78,0,0,1-.26-.57V874.81l-4.77,1.62a1.42,1.42,0,0,1-.48.08q-.45,0-.45-.48V872.1a.44.44,0,0,1,.28-.44l6.63-2.34a2.69,2.69,0,0,1,.93-.17h2.67a.75.75,0,0,1,.55.23.76.76,0,0,1,.22.54Z"/>
            <path class="cls-2" d="M333.51,898.38a.78.78,0,0,1-.24.59.89.89,0,0,1-.57.22h-4a.82.82,0,0,1-.55-.24.78.78,0,0,1-.26-.57V874.81l-4.77,1.62a1.44,1.44,0,0,1-.49.08c-.29,0-.44-.16-.44-.48V872.1a.44.44,0,0,1,.28-.44l6.63-2.34a2.69,2.69,0,0,1,.93-.17h2.67a.76.76,0,0,1,.55.23.76.76,0,0,1,.22.54Z"/>
            <path class="cls-2" d="M353.61,899.68a3.08,3.08,0,0,1-2.12-.79,2.79,2.79,0,0,1-.88-2.21,2.85,2.85,0,0,1,.85-2.07,2.79,2.79,0,0,1,2.09-.87,2.94,2.94,0,0,1,2.12.86,3,3,0,0,1,0,4.28A2.94,2.94,0,0,1,353.61,899.68Z"/>
            <path class="cls-2" d="M393,885.69a24.64,24.64,0,0,1-.71,6.36,11.14,11.14,0,0,1-2.08,4.27,8.2,8.2,0,0,1-3.29,2.42,13.3,13.3,0,0,1-8.92,0,8.13,8.13,0,0,1-3.31-2.42,11.12,11.12,0,0,1-2.08-4.31,24.3,24.3,0,0,1-.71-6.32v-3a24.82,24.82,0,0,1,.71-6.37,11.13,11.13,0,0,1,2.06-4.33,8,8,0,0,1,3.31-2.4,12.25,12.25,0,0,1,4.47-.77q5.18,0,7.86,3.27T393,882.7Zm-5.62,0v-3c0-3.43-.44-5.83-1.31-7.22a4.19,4.19,0,0,0-7.24,0c-.87,1.39-1.31,3.79-1.31,7.22v3a20,20,0,0,0,.62,5.54,5.59,5.59,0,0,0,1.72,2.89,4.5,4.5,0,0,0,5.18,0,5.58,5.58,0,0,0,1.71-2.89A19.61,19.61,0,0,0,387.35,885.69Z"/>
            <path class="cls-2" d="M418.8,899.51a25.71,25.71,0,0,1-4.45-.44,15.86,15.86,0,0,1-3.39-1c-.6-.3-.89-.66-.89-1.09v-2.31c0-.46.19-.69.56-.69a2.66,2.66,0,0,1,.45.08,19.15,19.15,0,0,0,3.35.73,26.9,26.9,0,0,0,3.72.29c1.86,0,3.16-.35,3.88-1a4.27,4.27,0,0,0,1.09-3.25v-.85a5.07,5.07,0,0,0-.78-3,3.38,3.38,0,0,0-2.93-1.11h-7.16a.75.75,0,0,1-.77-.77v-2.55a.77.77,0,0,1,.22-.54.74.74,0,0,1,.55-.22h7.16a3.48,3.48,0,0,0,2.93-1,4.84,4.84,0,0,0,.78-2.92v-.64a4.09,4.09,0,0,0-.95-2.87c-.63-.7-1.79-1-3.49-1a19.42,19.42,0,0,0-4.15.5,25.06,25.06,0,0,0-3.45,1,1.26,1.26,0,0,1-.45.08c-.37,0-.56-.23-.56-.68v-2.31c0-.38.29-.74.89-1.09a13.72,13.72,0,0,1,3.39-1.27,18.65,18.65,0,0,1,4.85-.63,13.08,13.08,0,0,1,4.94.87,7.21,7.21,0,0,1,3.37,2.73,8.4,8.4,0,0,1,1.23,4.73v.64a6.36,6.36,0,0,1-3.47,6,6.2,6.2,0,0,1,2.56,2.54,7.35,7.35,0,0,1,.91,3.6v.85a9.23,9.23,0,0,1-.74,3.82,7.39,7.39,0,0,1-2.11,2.73,9.26,9.26,0,0,1-3.13,1.64A13.64,13.64,0,0,1,418.8,899.51Z"/>
          </g>
          <g>
            <path class="cls-1" d="M307.84,900.69h-4a2.35,2.35,0,0,1-2.31-2.31V876.91l-2.79.94a2.56,2.56,0,0,1-1,.16,1.9,1.9,0,0,1-1.95-2V872.1a2,2,0,0,1,1.19-1.82l6.72-2.38a4.3,4.3,0,0,1,1.43-.25h2.67a2.25,2.25,0,0,1,1.6.66,2.3,2.3,0,0,1,.67,1.61v28.46a2.26,2.26,0,0,1-.73,1.69A2.28,2.28,0,0,1,307.84,900.69Zm-3.27-3h2.58v-27h-1.94a1.2,1.2,0,0,0-.42.08l-5.92,2.09v1.83l5.7-1.93ZM297.81,875l-.07,0Z"/>
            <path class="cls-1" d="M332.7,900.69h-4a2.29,2.29,0,0,1-1.57-.64,2.25,2.25,0,0,1-.74-1.67V876.91l-2.79.94a2.58,2.58,0,0,1-1,.16,1.9,1.9,0,0,1-1.94-2V872.1a2,2,0,0,1,1.19-1.82l6.72-2.38a4.3,4.3,0,0,1,1.43-.25h2.67a2.25,2.25,0,0,1,1.6.66,2.3,2.3,0,0,1,.67,1.61v28.46a2.26,2.26,0,0,1-.73,1.69A2.28,2.28,0,0,1,332.7,900.69Zm-3.27-3H332v-27h-1.94a1.2,1.2,0,0,0-.42.08l-5.92,2.09v1.83l5.7-1.93ZM322.66,875l-.06,0Z"/>
            <path class="cls-1" d="M353.61,901.18A4.53,4.53,0,0,1,350.5,900a4.25,4.25,0,0,1-1.39-3.33,4.42,4.42,0,0,1,1.27-3.12,4.36,4.36,0,0,1,3.17-1.32,4.46,4.46,0,0,1,3.17,1.29,4.54,4.54,0,0,1,0,6.46A4.43,4.43,0,0,1,353.61,901.18Zm-.06-5.94a1.31,1.31,0,0,0-1,.42,1.37,1.37,0,0,0-.42,1,1.32,1.32,0,0,0,.38,1.09,1.55,1.55,0,0,0,1.12.41,1.44,1.44,0,0,0,1.05-.41,1.55,1.55,0,0,0,0-2.1A1.42,1.42,0,0,0,353.55,895.24Z"/>
            <path class="cls-1" d="M382.42,901a13.59,13.59,0,0,1-5-.87,9.76,9.76,0,0,1-3.92-2.86,12.65,12.65,0,0,1-2.37-4.88,26,26,0,0,1-.76-6.71v-3a26.43,26.43,0,0,1,.76-6.75,12.51,12.51,0,0,1,2.35-4.9,9.56,9.56,0,0,1,3.92-2.85,13.73,13.73,0,0,1,5-.87c3.9,0,6.94,1.29,9,3.82s3,6.26,3,11.55v3a26.47,26.47,0,0,1-.76,6.76,12.78,12.78,0,0,1-2.38,4.83,9.76,9.76,0,0,1-3.89,2.86A13.51,13.51,0,0,1,382.42,901Zm0-30.68a10.56,10.56,0,0,0-3.92.67,6.51,6.51,0,0,0-2.71,2,9.7,9.7,0,0,0-1.76,3.75,23.71,23.71,0,0,0-.66,6v3a23.19,23.19,0,0,0,.66,5.94,9.75,9.75,0,0,0,1.78,3.73,6.6,6.6,0,0,0,2.71,2,10.66,10.66,0,0,0,3.9.66,10.53,10.53,0,0,0,3.91-.66,6.63,6.63,0,0,0,2.7-2,9.91,9.91,0,0,0,1.79-3.7,23.5,23.5,0,0,0,.65-6v-3c0-4.5-.79-7.75-2.35-9.64S385.42,870.33,382.42,870.33Zm0,26.11a5.63,5.63,0,0,1-3.49-1.13,6.87,6.87,0,0,1-2.25-3.65,20.71,20.71,0,0,1-.69-6v-3c0-3.75.5-6.37,1.54-8a5.69,5.69,0,0,1,9.78,0c1,1.65,1.54,4.27,1.54,8v3a21.07,21.07,0,0,1-.69,6,6.87,6.87,0,0,1-2.25,3.65A5.63,5.63,0,0,1,382.42,896.44Zm0-21.54a2.57,2.57,0,0,0-2.35,1.38c-.49.78-1.08,2.53-1.08,6.42v3a18.48,18.48,0,0,0,.56,5.1,4,4,0,0,0,1.19,2.13,3,3,0,0,0,3.36,0,4,4,0,0,0,1.19-2.13,18.48,18.48,0,0,0,.56-5.1v-3c0-3.89-.59-5.64-1.08-6.42A2.58,2.58,0,0,0,382.42,874.9Z"/>
            <path class="cls-1" d="M418.8,901h0a27.61,27.61,0,0,1-4.7-.47,17,17,0,0,1-3.73-1.12,2.72,2.72,0,0,1-1.77-2.45v-2.31a2,2,0,0,1,2.06-2.19,3.31,3.31,0,0,1,.81.13l.11,0a18,18,0,0,0,3.09.67,25.26,25.26,0,0,0,3.51.27c2,0,2.66-.44,2.85-.63a3.08,3.08,0,0,0,.62-2.16v-.85a3.64,3.64,0,0,0-.51-2.1c-.22-.31-.82-.48-1.7-.48h-7.16a2.25,2.25,0,0,1-2.27-2.27v-2.55a2.25,2.25,0,0,1,2.27-2.26h7.16a2.39,2.39,0,0,0,1.73-.45,3.44,3.44,0,0,0,.48-2v-.64a2.68,2.68,0,0,0-.56-1.87c-.15-.16-.69-.55-2.38-.55a17.13,17.13,0,0,0-3.82.47,20.35,20.35,0,0,0-3.22.92,3.17,3.17,0,0,1-1,.18,2,2,0,0,1-2.06-2.18v-2.31a2.76,2.76,0,0,1,1.62-2.38A14.7,14.7,0,0,1,414,868a20.22,20.22,0,0,1,5.23-.68,14.58,14.58,0,0,1,5.5,1,8.67,8.67,0,0,1,4.06,3.29,9.9,9.9,0,0,1,1.48,5.56v.64a8,8,0,0,1-2.44,6,7.85,7.85,0,0,1,1.35,1.8,9,9,0,0,1,1.09,4.32v.85a10.54,10.54,0,0,1-.88,4.44,8.83,8.83,0,0,1-2.53,3.28,10.94,10.94,0,0,1-3.63,1.9A14.86,14.86,0,0,1,418.8,901Zm-7.23-4.33.06,0a13.91,13.91,0,0,0,3,.89,23.48,23.48,0,0,0,4.17.41,11.87,11.87,0,0,0,3.51-.48,7.58,7.58,0,0,0,2.63-1.37,5.76,5.76,0,0,0,1.68-2.18,7.65,7.65,0,0,0,.61-3.2v-.85a5.75,5.75,0,0,0-.72-2.87,4.72,4.72,0,0,0-2-1.95l-2.44-1.31,2.43-1.33a4.84,4.84,0,0,0,2.69-4.67v-.64a7,7,0,0,0-1-3.9,5.72,5.72,0,0,0-2.69-2.17,11.69,11.69,0,0,0-4.37-.76,17,17,0,0,0-4.46.58,12.18,12.18,0,0,0-3,1.1l-.17.11V873c.73-.23,1.6-.46,2.63-.69a20.59,20.59,0,0,1,4.48-.54c2.16,0,3.67.5,4.61,1.54a5.64,5.64,0,0,1,1.33,3.88v.64a6.27,6.27,0,0,1-1.08,3.82,4.86,4.86,0,0,1-4.13,1.65H413v1.08h6.43a4.77,4.77,0,0,1,4.15,1.74,6.5,6.5,0,0,1,1.06,3.84v.85a5.73,5.73,0,0,1-1.56,4.35c-1,1-2.63,1.44-4.91,1.44a28.08,28.08,0,0,1-3.92-.3,23.85,23.85,0,0,1-2.66-.51Z"/>
          </g>
          <g>
            <path class="cls-2" d="M308.65,898.38a.78.78,0,0,1-.24.59.87.87,0,0,1-.57.22h-4a.82.82,0,0,1-.55-.24.78.78,0,0,1-.26-.57V874.81l-4.77,1.62a1.42,1.42,0,0,1-.48.08q-.45,0-.45-.48V872.1a.44.44,0,0,1,.28-.44l6.63-2.34a2.69,2.69,0,0,1,.93-.17h2.67a.75.75,0,0,1,.55.23.76.76,0,0,1,.22.54Z"/>
            <path class="cls-2" d="M333.51,898.38a.78.78,0,0,1-.24.59.89.89,0,0,1-.57.22h-4a.82.82,0,0,1-.55-.24.78.78,0,0,1-.26-.57V874.81l-4.77,1.62a1.44,1.44,0,0,1-.49.08c-.29,0-.44-.16-.44-.48V872.1a.44.44,0,0,1,.28-.44l6.63-2.34a2.69,2.69,0,0,1,.93-.17h2.67a.76.76,0,0,1,.55.23.76.76,0,0,1,.22.54Z"/>
            <path class="cls-2" d="M353.61,899.68a3.08,3.08,0,0,1-2.12-.79,2.79,2.79,0,0,1-.88-2.21,2.85,2.85,0,0,1,.85-2.07,2.79,2.79,0,0,1,2.09-.87,2.94,2.94,0,0,1,2.12.86,3,3,0,0,1,0,4.28A2.94,2.94,0,0,1,353.61,899.68Z"/>
            <path class="cls-2" d="M393,885.69a24.64,24.64,0,0,1-.71,6.36,11.14,11.14,0,0,1-2.08,4.27,8.2,8.2,0,0,1-3.29,2.42,13.3,13.3,0,0,1-8.92,0,8.13,8.13,0,0,1-3.31-2.42,11.12,11.12,0,0,1-2.08-4.31,24.3,24.3,0,0,1-.71-6.32v-3a24.82,24.82,0,0,1,.71-6.37,11.13,11.13,0,0,1,2.06-4.33,8,8,0,0,1,3.31-2.4,12.25,12.25,0,0,1,4.47-.77q5.18,0,7.86,3.27T393,882.7Zm-5.62,0v-3c0-3.43-.44-5.83-1.31-7.22a4.19,4.19,0,0,0-7.24,0c-.87,1.39-1.31,3.79-1.31,7.22v3a20,20,0,0,0,.62,5.54,5.59,5.59,0,0,0,1.72,2.89,4.5,4.5,0,0,0,5.18,0,5.58,5.58,0,0,0,1.71-2.89A19.61,19.61,0,0,0,387.35,885.69Z"/>
            <path class="cls-2" d="M418.8,899.51a25.71,25.71,0,0,1-4.45-.44,15.86,15.86,0,0,1-3.39-1c-.6-.3-.89-.66-.89-1.09v-2.31c0-.46.19-.69.56-.69a2.66,2.66,0,0,1,.45.08,19.15,19.15,0,0,0,3.35.73,26.9,26.9,0,0,0,3.72.29c1.86,0,3.16-.35,3.88-1a4.27,4.27,0,0,0,1.09-3.25v-.85a5.07,5.07,0,0,0-.78-3,3.38,3.38,0,0,0-2.93-1.11h-7.16a.75.75,0,0,1-.77-.77v-2.55a.77.77,0,0,1,.22-.54.74.74,0,0,1,.55-.22h7.16a3.48,3.48,0,0,0,2.93-1,4.84,4.84,0,0,0,.78-2.92v-.64a4.09,4.09,0,0,0-.95-2.87c-.63-.7-1.79-1-3.49-1a19.42,19.42,0,0,0-4.15.5,25.06,25.06,0,0,0-3.45,1,1.26,1.26,0,0,1-.45.08c-.37,0-.56-.23-.56-.68v-2.31c0-.38.29-.74.89-1.09a13.72,13.72,0,0,1,3.39-1.27,18.65,18.65,0,0,1,4.85-.63,13.08,13.08,0,0,1,4.94.87,7.21,7.21,0,0,1,3.37,2.73,8.4,8.4,0,0,1,1.23,4.73v.64a6.36,6.36,0,0,1-3.47,6,6.2,6.2,0,0,1,2.56,2.54,7.35,7.35,0,0,1,.91,3.6v.85a9.23,9.23,0,0,1-.74,3.82,7.39,7.39,0,0,1-2.11,2.73,9.26,9.26,0,0,1-3.13,1.64A13.64,13.64,0,0,1,418.8,899.51Z"/>
          </g>
        </g>
        <g>
          <g>
            <path class="cls-2" d="M308.65,1001.49a.78.78,0,0,1-.24.59.82.82,0,0,1-.57.22h-4a.82.82,0,0,1-.55-.24.76.76,0,0,1-.26-.57V977.92l-4.77,1.62a1.21,1.21,0,0,1-.48.08q-.45,0-.45-.48v-3.92a.44.44,0,0,1,.28-.45l6.63-2.34a2.68,2.68,0,0,1,.93-.16h2.67a.74.74,0,0,1,.55.22.77.77,0,0,1,.22.54Z"/>
            <path class="cls-2" d="M333.51,1001.49a.78.78,0,0,1-.24.59.83.83,0,0,1-.57.22h-4a.82.82,0,0,1-.55-.24.76.76,0,0,1-.26-.57V977.92l-4.77,1.62a1.23,1.23,0,0,1-.49.08c-.29,0-.44-.16-.44-.48v-3.92a.44.44,0,0,1,.28-.45l6.63-2.34a2.68,2.68,0,0,1,.93-.16h2.67a.75.75,0,0,1,.55.22.77.77,0,0,1,.22.54Z"/>
            <path class="cls-2" d="M353.61,1002.79a3.08,3.08,0,0,1-2.12-.79,2.79,2.79,0,0,1-.88-2.21,2.85,2.85,0,0,1,.85-2.07,2.79,2.79,0,0,1,2.09-.87,2.94,2.94,0,0,1,2.12.86,3,3,0,0,1,0,4.28A2.94,2.94,0,0,1,353.61,1002.79Z"/>
            <path class="cls-2" d="M381.81,976.35a19.78,19.78,0,0,0-4.2.5,24.86,24.86,0,0,0-3.48,1c-.67.25-1,0-1-.6v-2.31c0-.37.3-.74.89-1.09a13.19,13.19,0,0,1,1.9-.79,20.77,20.77,0,0,1,3-.78,17.57,17.57,0,0,1,3.3-.33c3.39,0,5.86.6,7.39,1.8s2.31,3.07,2.31,5.6a7.37,7.37,0,0,1-1.23,4.24,14.37,14.37,0,0,1-3.82,3.6l-3.64,2.43a25.76,25.76,0,0,0-3.28,2.5,8.33,8.33,0,0,0-1.84,2.47,7,7,0,0,0-.62,2.95v.16h13.3a.83.83,0,0,1,.58.2.69.69,0,0,1,.23.53v3.07a.74.74,0,0,1-.27.57.78.78,0,0,1-.54.24H373.69a.82.82,0,0,1-.81-.81v-4a11.77,11.77,0,0,1,.81-4.41,11.57,11.57,0,0,1,2.14-3.49,16,16,0,0,1,3.19-2.69l4-2.67a29.6,29.6,0,0,0,2.42-1.8,3.63,3.63,0,0,0,1-1.29,4.84,4.84,0,0,0,.28-1.84,2.44,2.44,0,0,0-1.17-2.3A7.71,7.71,0,0,0,381.81,976.35Z"/>
            <path class="cls-2" d="M429.07,976.06a6.79,6.79,0,0,1-.73,1.86l-10.92,23.61a1.81,1.81,0,0,1-.46.61,1,1,0,0,1-.63.16h-4.2c-.38,0-.57-.2-.57-.61a1.07,1.07,0,0,1,.08-.36l11.61-24.17v-.08a.33.33,0,0,0,0-.15.21.21,0,0,0-.17-.06H410.59a.79.79,0,0,1-.56-.22.69.69,0,0,1-.25-.5V973a.72.72,0,0,1,.25-.54.79.79,0,0,1,.56-.22h16.86a1.57,1.57,0,0,1,1.13.46,1.54,1.54,0,0,1,.49,1.15Z"/>
          </g>
          <g>
            <path class="cls-1" d="M307.84,1003.8h-4a2.35,2.35,0,0,1-2.31-2.31V980l-2.79.94a2.56,2.56,0,0,1-1,.16,1.9,1.9,0,0,1-1.95-2v-3.92a2,2,0,0,1,1.19-1.83l6.72-2.38a4.29,4.29,0,0,1,1.43-.24h2.67a2.24,2.24,0,0,1,1.6.65,2.3,2.3,0,0,1,.67,1.61v28.46a2.26,2.26,0,0,1-.73,1.69A2.28,2.28,0,0,1,307.84,1003.8Zm-3.27-3h2.58v-27h-1.94a1.2,1.2,0,0,0-.42.07l-5.92,2.09v1.84l5.7-1.94Zm-6.76-22.67-.07,0Z"/>
            <path class="cls-1" d="M332.7,1003.8h-4a2.29,2.29,0,0,1-1.57-.64,2.25,2.25,0,0,1-.74-1.67V980l-2.79.94a2.58,2.58,0,0,1-1,.16,1.9,1.9,0,0,1-1.94-2v-3.92a2,2,0,0,1,1.19-1.83l6.72-2.38a4.29,4.29,0,0,1,1.43-.24h2.67a2.24,2.24,0,0,1,1.6.65A2.3,2.3,0,0,1,335,973v28.46a2.26,2.26,0,0,1-.73,1.69A2.28,2.28,0,0,1,332.7,1003.8Zm-3.27-3H332v-27h-1.94a1.2,1.2,0,0,0-.42.07l-5.92,2.09v1.84l5.7-1.94Zm-6.77-22.67-.06,0Z"/>
            <path class="cls-1" d="M353.61,1004.29a4.56,4.56,0,0,1-3.11-1.16,4.29,4.29,0,0,1-1.39-3.34,4.42,4.42,0,0,1,1.27-3.12,4.36,4.36,0,0,1,3.17-1.32,4.46,4.46,0,0,1,3.17,1.29,4.54,4.54,0,0,1,0,6.46A4.43,4.43,0,0,1,353.61,1004.29Zm-.06-5.94a1.31,1.31,0,0,0-1,.42,1.37,1.37,0,0,0-.42,1,1.32,1.32,0,0,0,.38,1.09,1.55,1.55,0,0,0,1.12.41,1.44,1.44,0,0,0,1.05-.41,1.55,1.55,0,0,0,0-2.1A1.42,1.42,0,0,0,353.55,998.35Z"/>
            <path class="cls-1" d="M390.83,1003.8H373.69a2.29,2.29,0,0,1-1.63-.68,2.25,2.25,0,0,1-.68-1.63v-4a13.19,13.19,0,0,1,.92-5,12.91,12.91,0,0,1,2.42-4,18.08,18.08,0,0,1,3.48-2.94l4-2.66a28.05,28.05,0,0,0,2.28-1.68,2.25,2.25,0,0,0,.61-.75,3.41,3.41,0,0,0,.16-1.25c0-.76-.28-.92-.43-1a6.21,6.21,0,0,0-3-.48,18,18,0,0,0-3.87.47,21.71,21.71,0,0,0-3.25.92,2.27,2.27,0,0,1-2.2-.16,2.1,2.1,0,0,1-.87-1.84v-2.31a2.77,2.77,0,0,1,1.63-2.38,13.19,13.19,0,0,1,2.17-.91,21.79,21.79,0,0,1,3.27-.85,19.52,19.52,0,0,1,3.57-.35c3.77,0,6.49.69,8.32,2.12s2.88,3.77,2.88,6.78a8.88,8.88,0,0,1-1.49,5.08,16,16,0,0,1-4.21,4l-3.66,2.43a24.17,24.17,0,0,0-3.08,2.36,6.68,6.68,0,0,0-1.51,2,5.3,5.3,0,0,0-.34,1h11.66a2.37,2.37,0,0,1,1.59.59,2.23,2.23,0,0,1,.72,1.64v3.07a2.37,2.37,0,0,1-2.31,2.31Zm-16.45-3h15.76v-1.61H376v-1.66a8.38,8.38,0,0,1,.77-3.59A9.34,9.34,0,0,1,379,991a27.05,27.05,0,0,1,3.47-2.66l3.63-2.43a12.81,12.81,0,0,0,3.41-3.19,5.84,5.84,0,0,0,1-3.4c0-2.07-.57-3.51-1.73-4.42s-3.44-1.48-6.47-1.48a16.17,16.17,0,0,0-3,.3,20.47,20.47,0,0,0-2.84.73,12.07,12.07,0,0,0-1.64.67l-.14.09v.85c.74-.23,1.61-.46,2.66-.69a21,21,0,0,1,4.53-.54,9,9,0,0,1,4.52.89,3.9,3.9,0,0,1,1.91,3.6,6.18,6.18,0,0,1-.4,2.42,5.11,5.11,0,0,1-1.41,1.85,29.14,29.14,0,0,1-2.55,1.89l-4,2.69a14.88,14.88,0,0,0-2.92,2.44,10.34,10.34,0,0,0-1.86,3,10.22,10.22,0,0,0-.7,3.85Z"/>
            <path class="cls-1" d="M416.33,1003.8h-4.2a2,2,0,0,1-2.07-2.11,2.56,2.56,0,0,1,.19-.91l0-.1L421,978.37H410.59a2.32,2.32,0,0,1-1.58-.61,2.2,2.2,0,0,1-.73-1.61V973a2.24,2.24,0,0,1,.73-1.65,2.34,2.34,0,0,1,1.58-.61h16.86a3.06,3.06,0,0,1,2.17.88,3,3,0,0,1,.95,2.23v2.18a6.22,6.22,0,0,1-.88,2.52l-10.9,23.58a3.29,3.29,0,0,1-1,1.19A2.48,2.48,0,0,1,416.33,1003.8Zm-2.77-3h2.55L427,977.29a11.82,11.82,0,0,0,.59-1.34v-2.07c-.08-.11-.09-.11-.12-.11H411.28v1.6H423a1.66,1.66,0,0,1,1.41.73,1.72,1.72,0,0,1,.3,1v.34l-.15.39Z"/>
          </g>
          <g>
            <path class="cls-2" d="M308.65,1001.49a.78.78,0,0,1-.24.59.82.82,0,0,1-.57.22h-4a.82.82,0,0,1-.55-.24.76.76,0,0,1-.26-.57V977.92l-4.77,1.62a1.21,1.21,0,0,1-.48.08q-.45,0-.45-.48v-3.92a.44.44,0,0,1,.28-.45l6.63-2.34a2.68,2.68,0,0,1,.93-.16h2.67a.74.74,0,0,1,.55.22.77.77,0,0,1,.22.54Z"/>
            <path class="cls-2" d="M333.51,1001.49a.78.78,0,0,1-.24.59.83.83,0,0,1-.57.22h-4a.82.82,0,0,1-.55-.24.76.76,0,0,1-.26-.57V977.92l-4.77,1.62a1.23,1.23,0,0,1-.49.08c-.29,0-.44-.16-.44-.48v-3.92a.44.44,0,0,1,.28-.45l6.63-2.34a2.68,2.68,0,0,1,.93-.16h2.67a.75.75,0,0,1,.55.22.77.77,0,0,1,.22.54Z"/>
            <path class="cls-2" d="M353.61,1002.79a3.08,3.08,0,0,1-2.12-.79,2.79,2.79,0,0,1-.88-2.21,2.85,2.85,0,0,1,.85-2.07,2.79,2.79,0,0,1,2.09-.87,2.94,2.94,0,0,1,2.12.86,3,3,0,0,1,0,4.28A2.94,2.94,0,0,1,353.61,1002.79Z"/>
            <path class="cls-2" d="M381.81,976.35a19.78,19.78,0,0,0-4.2.5,24.86,24.86,0,0,0-3.48,1c-.67.25-1,0-1-.6v-2.31c0-.37.3-.74.89-1.09a13.19,13.19,0,0,1,1.9-.79,20.77,20.77,0,0,1,3-.78,17.57,17.57,0,0,1,3.3-.33c3.39,0,5.86.6,7.39,1.8s2.31,3.07,2.31,5.6a7.37,7.37,0,0,1-1.23,4.24,14.37,14.37,0,0,1-3.82,3.6l-3.64,2.43a25.76,25.76,0,0,0-3.28,2.5,8.33,8.33,0,0,0-1.84,2.47,7,7,0,0,0-.62,2.95v.16h13.3a.83.83,0,0,1,.58.2.69.69,0,0,1,.23.53v3.07a.74.74,0,0,1-.27.57.78.78,0,0,1-.54.24H373.69a.82.82,0,0,1-.81-.81v-4a11.77,11.77,0,0,1,.81-4.41,11.57,11.57,0,0,1,2.14-3.49,16,16,0,0,1,3.19-2.69l4-2.67a29.6,29.6,0,0,0,2.42-1.8,3.63,3.63,0,0,0,1-1.29,4.84,4.84,0,0,0,.28-1.84,2.44,2.44,0,0,0-1.17-2.3A7.71,7.71,0,0,0,381.81,976.35Z"/>
            <path class="cls-2" d="M429.07,976.06a6.79,6.79,0,0,1-.73,1.86l-10.92,23.61a1.81,1.81,0,0,1-.46.61,1,1,0,0,1-.63.16h-4.2c-.38,0-.57-.2-.57-.61a1.07,1.07,0,0,1,.08-.36l11.61-24.17v-.08a.33.33,0,0,0,0-.15.21.21,0,0,0-.17-.06H410.59a.79.79,0,0,1-.56-.22.69.69,0,0,1-.25-.5V973a.72.72,0,0,1,.25-.54.79.79,0,0,1,.56-.22h16.86a1.57,1.57,0,0,1,1.13.46,1.54,1.54,0,0,1,.49,1.15Z"/>
          </g>
        </g>
        <rect class="cls-1" x="426.96" y="910.91" width="1" height="51.06" rx="0.5"/>
      </g>
    </g>
  </g>
</svg>
