<svg xmlns="http://www.w3.org/2000/svg" viewBox="0 0 69.14 37.37">
  <defs>
    <style>
      .cls-1 {
        fill: #ffff01;
      }
    </style>
  </defs>
  <title>yellow_light</title>
  <g id="圖層_2" data-name="圖層 2">
    <g id="圖層_1-2" data-name="圖層 1">
      <path class="cls-1" d="M4.79,6.62c-1.3.24-2.59.53-3.9.83,0,0-1.66-.12-.44,1.66L16.89,36.56s.56,1,2.78.77l31-3.44,6-.67c1.65-.18.77-1.91.75-2.87,0-1.7,1.43-2.53,2.57-3.52,2.14-1.84,4-4,6.24-5.69,1.23-.94,3.87-2.88,2.55-4.81L57.56,0,37.39,2.51C27.47,3.74,17.56,5,7.64,6.19c-1,.11-1.91.26-2.85.43"/>
    </g>
  </g>
</svg>
